<?xml version="1.0" encoding="UTF-8" standalone="no"?>
<!DOCTYPE svg PUBLIC "-//W3C//DTD SVG 1.1//EN"
 "http://www.w3.org/Graphics/SVG/1.1/DTD/svg11.dtd">
<!-- Generated by graphviz version 2.43.0 (0)
 -->
<!-- Title: Ikarus::PathFollowing&lt; NonLinearSolver, PathFollowingType, AdaptiveStepSizing &gt; Pages: 1 -->
<svg width="209pt" height="196pt"
 viewBox="0.00 0.00 209.00 196.00" xmlns="http://www.w3.org/2000/svg" xmlns:xlink="http://www.w3.org/1999/xlink">
<g id="graph0" class="graph" transform="scale(1 1) rotate(0) translate(4 192)">
<title>Ikarus::PathFollowing&lt; NonLinearSolver, PathFollowingType, AdaptiveStepSizing &gt;</title>
<polygon fill="white" stroke="transparent" points="-4,4 -4,-192 205,-192 205,4 -4,4"/>
<!-- Node1 -->
<g id="node1" class="node">
<title>Node1</title>
<g id="a_node1"><a xlink:title="The PathFollowing control routine for path&#45;following analysis.">
<polygon fill="#bfbfbf" stroke="black" points="0,-0.5 0,-41.5 182,-41.5 182,-0.5 0,-0.5"/>
<text text-anchor="start" x="8" y="-29.5" font-family="Helvetica,sans-Serif" font-size="10.00">Ikarus::PathFollowing</text>
<text text-anchor="start" x="8" y="-18.5" font-family="Helvetica,sans-Serif" font-size="10.00">&lt; NonLinearSolver, PathFollowing</text>
<text text-anchor="middle" x="91" y="-7.5" font-family="Helvetica,sans-Serif" font-size="10.00">Type, AdaptiveStepSizing &gt;</text>
</a>
</g>
</g>
<!-- Node2 -->
<g id="node2" class="node">
<title>Node2</title>
<g id="a_node2"><a xlink:href="../../dd/dba/a01545.html" target="_top" xlink:title=" ">
<polygon fill="white" stroke="black" points="29.5,-79.5 29.5,-109.5 152.5,-109.5 152.5,-79.5 29.5,-79.5"/>
<text text-anchor="start" x="37.5" y="-97.5" font-family="Helvetica,sans-Serif" font-size="10.00">Ikarus::IObservable</text>
<text text-anchor="middle" x="91" y="-86.5" font-family="Helvetica,sans-Serif" font-size="10.00">&lt; ControlMessages &gt;</text>
</a>
</g>
</g>
<!-- Node2&#45;&gt;Node1 -->
<g id="edge1" class="edge">
<title>Node2&#45;&gt;Node1</title>
<path fill="none" stroke="midnightblue" d="M91,-69.1C91,-60.1 91,-50.02 91,-41.51"/>
<polygon fill="midnightblue" stroke="midnightblue" points="87.5,-69.37 91,-79.37 94.5,-69.37 87.5,-69.37"/>
</g>
<!-- Node3 -->
<g id="node3" class="node">
<title>Node3</title>
<g id="a_node3"><a xlink:href="../../dd/dba/a01545.html" target="_top" xlink:title="Generic observable interface for the Observer design pattern. See &#160;for a description of the design pa...">
<polygon fill="white" stroke="black" points="36,-157.5 36,-187.5 146,-187.5 146,-157.5 36,-157.5"/>
<text text-anchor="start" x="44" y="-175.5" font-family="Helvetica,sans-Serif" font-size="10.00">Ikarus::IObservable</text>
<text text-anchor="middle" x="91" y="-164.5" font-family="Helvetica,sans-Serif" font-size="10.00">&lt; MessageType &gt;</text>
</a>
</g>
</g>
<!-- Node3&#45;&gt;Node2 -->
<g id="edge2" class="edge">
<title>Node3&#45;&gt;Node2</title>
<path fill="none" stroke="orange" stroke-dasharray="5,2" d="M91,-147.09C91,-134.76 91,-120.22 91,-109.73"/>
<polygon fill="orange" stroke="orange" points="87.5,-147.2 91,-157.2 94.5,-147.21 87.5,-147.2"/>
<text text-anchor="middle" x="146" y="-131" font-family="Helvetica,sans-Serif" font-size="10.00"> &lt; ControlMessages &gt;</text>
</g>
</g>
</svg>
