<?xml version="1.0" encoding="UTF-8" standalone="no"?>
<!DOCTYPE svg PUBLIC "-//W3C//DTD SVG 1.1//EN"
 "http://www.w3.org/Graphics/SVG/1.1/DTD/svg11.dtd">
<!-- Generated by graphviz version 2.43.0 (0)
 -->
<!-- Title: Ikarus::planeStressLinearElasticMaterialTangent Pages: 1 -->
<svg width="476pt" height="235pt"
 viewBox="0.00 0.00 476.00 235.00" xmlns="http://www.w3.org/2000/svg" xmlns:xlink="http://www.w3.org/1999/xlink">
<g id="graph0" class="graph" transform="scale(1 1) rotate(0) translate(4 231)">
<title>Ikarus::planeStressLinearElasticMaterialTangent</title>
<polygon fill="white" stroke="transparent" points="-4,4 -4,-231 472,-231 472,4 -4,4"/>
<!-- Node1 -->
<g id="node1" class="node">
<title>Node1</title>
<g id="a_node1"><a xlink:title="Computes the plane stress linear elastic material tangent matrix.">
<polygon fill="#bfbfbf" stroke="black" points="329,-98.5 329,-128.5 468,-128.5 468,-98.5 329,-98.5"/>
<text text-anchor="start" x="337" y="-116.5" font-family="Helvetica,sans-Serif" font-size="10.00">Ikarus::planeStressLinear</text>
<text text-anchor="middle" x="398.5" y="-105.5" font-family="Helvetica,sans-Serif" font-size="10.00">ElasticMaterialTangent</text>
</a>
</g>
</g>
<!-- Node2 -->
<g id="node2" class="node">
<title>Node2</title>
<g id="a_node2"><a xlink:href="../../d2/d1d/a01277.html#ae9391f3895e965ecc5dfea1af1ac62f7" target="_top" xlink:title="Gets the material tangent matrix for the linear elastic material.">
<polygon fill="white" stroke="black" points="179,-98.5 179,-128.5 293,-128.5 293,-98.5 179,-98.5"/>
<text text-anchor="start" x="187" y="-116.5" font-family="Helvetica,sans-Serif" font-size="10.00">Ikarus::LinearElastic</text>
<text text-anchor="middle" x="236" y="-105.5" font-family="Helvetica,sans-Serif" font-size="10.00">::materialTangent</text>
</a>
</g>
</g>
<!-- Node1&#45;&gt;Node2 -->
<g id="edge1" class="edge">
<title>Node1&#45;&gt;Node2</title>
<path fill="none" stroke="midnightblue" d="M318.84,-113.5C310.19,-113.5 301.51,-113.5 293.21,-113.5"/>
<polygon fill="midnightblue" stroke="midnightblue" points="318.97,-117 328.97,-113.5 318.97,-110 318.97,-117"/>
</g>
<!-- Node3 -->
<g id="node3" class="node">
<title>Node3</title>
<g id="a_node3"><a xlink:href="../../d2/d1d/a01277.html#a51a4d30fb9b0ee5c2bf7683b69f0eda9" target="_top" xlink:title="Calculates results at a specific local position.">
<polygon fill="white" stroke="black" points="14.5,-196.5 14.5,-226.5 128.5,-226.5 128.5,-196.5 14.5,-196.5"/>
<text text-anchor="start" x="22.5" y="-214.5" font-family="Helvetica,sans-Serif" font-size="10.00">Ikarus::LinearElastic</text>
<text text-anchor="middle" x="71.5" y="-203.5" font-family="Helvetica,sans-Serif" font-size="10.00">::calculateAt</text>
</a>
</g>
</g>
<!-- Node2&#45;&gt;Node3 -->
<g id="edge2" class="edge">
<title>Node2&#45;&gt;Node3</title>
<path fill="none" stroke="midnightblue" d="M212.09,-135.74C194.41,-151.92 168.7,-173.37 143,-187.5 137,-190.8 130.46,-193.77 123.86,-196.39"/>
<polygon fill="midnightblue" stroke="midnightblue" points="214.69,-138.1 219.62,-128.73 209.92,-132.98 214.69,-138.1"/>
</g>
<!-- Node4 -->
<g id="node4" class="node">
<title>Node4</title>
<g id="a_node4"><a xlink:href="../../d2/d1d/a01277.html#a9d491b6c69f9f28b2a838075526fa705" target="_top" xlink:title="Calculates the matrix stiffness for the given FERequirementType.">
<polygon fill="white" stroke="black" points="14.5,-147.5 14.5,-177.5 128.5,-177.5 128.5,-147.5 14.5,-147.5"/>
<text text-anchor="start" x="22.5" y="-165.5" font-family="Helvetica,sans-Serif" font-size="10.00">Ikarus::LinearElastic</text>
<text text-anchor="middle" x="71.5" y="-154.5" font-family="Helvetica,sans-Serif" font-size="10.00">::calculateMatrix</text>
</a>
</g>
</g>
<!-- Node2&#45;&gt;Node4 -->
<g id="edge3" class="edge">
<title>Node2&#45;&gt;Node4</title>
<path fill="none" stroke="midnightblue" d="M174.93,-131.61C157.66,-136.82 139.01,-142.45 122.42,-147.45"/>
<polygon fill="midnightblue" stroke="midnightblue" points="176.35,-134.84 184.92,-128.6 174.33,-128.14 176.35,-134.84"/>
</g>
<!-- Node5 -->
<g id="node5" class="node">
<title>Node5</title>
<g id="a_node5"><a xlink:href="../../d2/d1d/a01277.html#a2f4e42b682af401fcfaada66e5a05d53" target="_top" xlink:title=" ">
<polygon fill="white" stroke="black" points="12,-98.5 12,-128.5 131,-128.5 131,-98.5 12,-98.5"/>
<text text-anchor="start" x="20" y="-116.5" font-family="Helvetica,sans-Serif" font-size="10.00">Ikarus::LinearElastic</text>
<text text-anchor="middle" x="71.5" y="-105.5" font-family="Helvetica,sans-Serif" font-size="10.00">::calculateScalarImpl</text>
</a>
</g>
</g>
<!-- Node2&#45;&gt;Node5 -->
<g id="edge4" class="edge">
<title>Node2&#45;&gt;Node5</title>
<path fill="none" stroke="midnightblue" d="M168.41,-113.5C156.1,-113.5 143.32,-113.5 131.26,-113.5"/>
<polygon fill="midnightblue" stroke="midnightblue" points="168.62,-117 178.62,-113.5 168.62,-110 168.62,-117"/>
</g>
<!-- Node6 -->
<g id="node6" class="node">
<title>Node6</title>
<g id="a_node6"><a xlink:href="../../d2/d1d/a01277.html#a3cb0f7f1a2745097f3e91b9c0928722f" target="_top" xlink:title=" ">
<polygon fill="white" stroke="black" points="12,-49.5 12,-79.5 131,-79.5 131,-49.5 12,-49.5"/>
<text text-anchor="start" x="20" y="-67.5" font-family="Helvetica,sans-Serif" font-size="10.00">Ikarus::LinearElastic</text>
<text text-anchor="middle" x="71.5" y="-56.5" font-family="Helvetica,sans-Serif" font-size="10.00">::calculateVectorImpl</text>
</a>
</g>
</g>
<!-- Node2&#45;&gt;Node6 -->
<g id="edge5" class="edge">
<title>Node2&#45;&gt;Node6</title>
<path fill="none" stroke="midnightblue" d="M174.93,-95.39C157.66,-90.18 139.01,-84.55 122.42,-79.55"/>
<polygon fill="midnightblue" stroke="midnightblue" points="174.33,-98.86 184.92,-98.4 176.35,-92.16 174.33,-98.86"/>
</g>
<!-- Node7 -->
<g id="node7" class="node">
<title>Node7</title>
<g id="a_node7"><a xlink:href="../../d2/d1d/a01277.html#a23a003fe0c49bfc18714da0889b00c65" target="_top" xlink:title="Gets the material tangent function for the given FERequirementType.">
<polygon fill="white" stroke="black" points="0,-0.5 0,-30.5 143,-30.5 143,-0.5 0,-0.5"/>
<text text-anchor="start" x="8" y="-18.5" font-family="Helvetica,sans-Serif" font-size="10.00">Ikarus::LinearElastic</text>
<text text-anchor="middle" x="71.5" y="-7.5" font-family="Helvetica,sans-Serif" font-size="10.00">::materialTangentFunction</text>
</a>
</g>
</g>
<!-- Node2&#45;&gt;Node7 -->
<g id="edge6" class="edge">
<title>Node2&#45;&gt;Node7</title>
<path fill="none" stroke="midnightblue" d="M211.67,-91.38C193.94,-75.52 168.37,-54.55 143,-40.5 136.3,-36.79 128.94,-33.46 121.58,-30.53"/>
<polygon fill="midnightblue" stroke="midnightblue" points="209.48,-94.12 219.23,-98.27 214.19,-88.95 209.48,-94.12"/>
</g>
</g>
</svg>
