<?xml version="1.0" encoding="UTF-8" standalone="no"?>
<!DOCTYPE svg PUBLIC "-//W3C//DTD SVG 1.1//EN"
 "http://www.w3.org/Graphics/SVG/1.1/DTD/svg11.dtd">
<!-- Generated by graphviz version 2.43.0 (0)
 -->
<!-- Title: utils Pages: 1 -->
<svg width="95pt" height="151pt"
 viewBox="0.00 0.00 95.00 151.00" xmlns="http://www.w3.org/2000/svg" xmlns:xlink="http://www.w3.org/1999/xlink">
<g id="graph0" class="graph" transform="scale(1 1) rotate(0) translate(4 147)">
<title>utils</title>
<polygon fill="white" stroke="transparent" points="-4,4 -4,-147 91,-147 91,4 -4,4"/>
<g id="clust1" class="cluster">
<title>clusterdir_6063e92d97cad5a47908d6a96069b24d</title>
<g id="a_clust1"><a xlink:href="dir_6063e92d97cad5a47908d6a96069b24d.html" target="_top" xlink:title="python">
<polygon fill="#edf0f7" stroke="#7f7f7f" stroke-dasharray="5,2" points="8.5,-64 8.5,-135 78.5,-135 78.5,-64 8.5,-64"/>
<text text-anchor="middle" x="43.5" y="-123" font-family="Helvetica,sans-Serif" font-size="10.00">python</text>
</a>
</g>
</g>
<!-- dir_afe0d1ab0c4a41ee8553ea61e92b67bf -->
<g id="node1" class="node">
<title>dir_afe0d1ab0c4a41ee8553ea61e92b67bf</title>
<g id="a_node1"><a xlink:href="dir_afe0d1ab0c4a41ee8553ea61e92b67bf.html" target="_top" xlink:title="utils">
<polygon fill="#edf0f7" stroke="#404040" stroke-width="2" points="70.5,-108 16.5,-108 16.5,-72 70.5,-72 70.5,-108"/>
<text text-anchor="middle" x="43.5" y="-87.5" font-family="Helvetica,sans-Serif" font-size="10.00">utils</text>
</a>
</g>
</g>
<!-- dir_f5e28093cb075fb92f2345f7d8607df6 -->
<g id="node2" class="node">
<title>dir_f5e28093cb075fb92f2345f7d8607df6</title>
<g id="a_node2"><a xlink:href="dir_f5e28093cb075fb92f2345f7d8607df6.html" target="_top" xlink:title="finiteelements">
<polygon fill="none" stroke="red" stroke-dasharray="5,2" points="87,-36 0,-36 0,0 87,0 87,-36"/>
<text text-anchor="middle" x="43.5" y="-15.5" font-family="Helvetica,sans-Serif" font-size="10.00">finiteelements</text>
</a>
</g>
</g>
<!-- dir_afe0d1ab0c4a41ee8553ea61e92b67bf&#45;&gt;dir_f5e28093cb075fb92f2345f7d8607df6 -->
<g id="edge1" class="edge">
<title>dir_afe0d1ab0c4a41ee8553ea61e92b67bf&#45;&gt;dir_f5e28093cb075fb92f2345f7d8607df6</title>
<path fill="none" stroke="black" d="M43.5,-71.7C43.5,-63.98 43.5,-54.71 43.5,-46.11"/>
<polygon fill="black" stroke="black" points="47,-46.1 43.5,-36.1 40,-46.1 47,-46.1"/>
<g id="a_edge1&#45;headlabel"><a xlink:href="dir_000026_000011.html" target="_top" xlink:title="1">
<text text-anchor="middle" x="49.84" y="-47.2" font-family="Helvetica,sans-Serif" font-size="10.00">1</text>
</a>
</g>
</g>
</g>
</svg>
