<?xml version="1.0" encoding="UTF-8" standalone="no"?>
<!DOCTYPE svg PUBLIC "-//W3C//DTD SVG 1.1//EN"
 "http://www.w3.org/Graphics/SVG/1.1/DTD/svg11.dtd">
<!-- Generated by graphviz version 2.43.0 (0)
 -->
<!-- Title: Eigen::TruncatedConjugateGradient&lt; MatrixType_, UpLo_, Preconditioner_ &gt; Pages: 1 -->
<svg width="792pt" height="62pt"
 viewBox="0.00 0.00 792.00 62.00" xmlns="http://www.w3.org/2000/svg" xmlns:xlink="http://www.w3.org/1999/xlink">
<g id="graph0" class="graph" transform="scale(1 1) rotate(0) translate(4 58)">
<title>Eigen::TruncatedConjugateGradient&lt; MatrixType_, UpLo_, Preconditioner_ &gt;</title>
<polygon fill="white" stroke="transparent" points="-4,4 -4,-58 788,-58 788,4 -4,4"/>
<!-- Node1 -->
<g id="node1" class="node">
<title>Node1</title>
<g id="a_node1"><a xlink:title="Iterative solver for solving linear systems using the truncated conjugate gradient method.">
<polygon fill="#bfbfbf" stroke="black" points="264,-0.5 264,-41.5 410,-41.5 410,-0.5 264,-0.5"/>
<text text-anchor="start" x="272" y="-29.5" font-family="Helvetica,sans-Serif" font-size="10.00">Eigen::TruncatedConjugate</text>
<text text-anchor="start" x="272" y="-18.5" font-family="Helvetica,sans-Serif" font-size="10.00">Gradient&lt; MatrixType_,</text>
<text text-anchor="middle" x="337" y="-7.5" font-family="Helvetica,sans-Serif" font-size="10.00"> UpLo_, Preconditioner_ &gt;</text>
</a>
</g>
</g>
<!-- Node3 -->
<g id="node3" class="node">
<title>Node3</title>
<g id="a_node3"><a xlink:href="../../d1/d17/a01369.html" target="_top" xlink:title=" ">
<polygon fill="white" stroke="black" points="555,-0.5 555,-41.5 784,-41.5 784,-0.5 555,-0.5"/>
<text text-anchor="start" x="563" y="-29.5" font-family="Helvetica,sans-Serif" font-size="10.00">Eigen::TruncatedConjugate</text>
<text text-anchor="start" x="563" y="-18.5" font-family="Helvetica,sans-Serif" font-size="10.00">Gradient&lt; MatrixType, Eigen</text>
<text text-anchor="middle" x="669.5" y="-7.5" font-family="Helvetica,sans-Serif" font-size="10.00">::Lower|Eigen::Upper, PreConditionerType &gt;</text>
</a>
</g>
</g>
<!-- Node1&#45;&gt;Node3 -->
<g id="edge2" class="edge">
<title>Node1&#45;&gt;Node3</title>
<path fill="none" stroke="orange" stroke-dasharray="5,2" d="M420.26,-21C460.95,-21 510.7,-21 554.95,-21"/>
<polygon fill="orange" stroke="orange" points="420.12,-17.5 410.12,-21 420.12,-24.5 420.12,-17.5"/>
<text text-anchor="start" x="428" y="-46" font-family="Helvetica,sans-Serif" font-size="10.00"> &lt; MatrixType, Eigen</text>
<text text-anchor="start" x="428" y="-35" font-family="Helvetica,sans-Serif" font-size="10.00">::Lower|Eigen::Upper,</text>
<text text-anchor="middle" x="482.5" y="-24" font-family="Helvetica,sans-Serif" font-size="10.00"> PreConditionerType &gt;</text>
</g>
<!-- Node2 -->
<g id="node2" class="node">
<title>Node2</title>
<g id="a_node2"><a xlink:title=" ">
<polygon fill="white" stroke="black" points="0,-0.5 0,-41.5 227,-41.5 227,-0.5 0,-0.5"/>
<text text-anchor="start" x="8" y="-29.5" font-family="Helvetica,sans-Serif" font-size="10.00">IterativeSolverBase</text>
<text text-anchor="start" x="8" y="-18.5" font-family="Helvetica,sans-Serif" font-size="10.00">&lt; TruncatedConjugateGradient</text>
<text text-anchor="middle" x="113.5" y="-7.5" font-family="Helvetica,sans-Serif" font-size="10.00">&lt; MatrixType_, UpLo_, Preconditioner_ &gt; &gt;</text>
</a>
</g>
</g>
<!-- Node2&#45;&gt;Node1 -->
<g id="edge1" class="edge">
<title>Node2&#45;&gt;Node1</title>
<path fill="none" stroke="midnightblue" d="M237.43,-21C246.47,-21 255.4,-21 263.97,-21"/>
<polygon fill="midnightblue" stroke="midnightblue" points="237.2,-17.5 227.2,-21 237.2,-24.5 237.2,-17.5"/>
</g>
</g>
</svg>
