<?xml version="1.0" encoding="UTF-8" standalone="no"?>
<!DOCTYPE svg PUBLIC "-//W3C//DTD SVG 1.1//EN"
 "http://www.w3.org/Graphics/SVG/1.1/DTD/svg11.dtd">
<!-- Generated by graphviz version 2.43.0 (0)
 -->
<!-- Title: Ikarus::init Pages: 1 -->
<svg width="447pt" height="519pt"
 viewBox="0.00 0.00 447.00 519.00" xmlns="http://www.w3.org/2000/svg" xmlns:xlink="http://www.w3.org/1999/xlink">
<g id="graph0" class="graph" transform="scale(1 1) rotate(0) translate(4 515)">
<title>Ikarus::init</title>
<polygon fill="white" stroke="transparent" points="-4,4 -4,-515 443,-515 443,4 -4,4"/>
<!-- Node1 -->
<g id="node1" class="node">
<title>Node1</title>
<g id="a_node1"><a xlink:title="Initializes the Ikarus framework.">
<polygon fill="#bfbfbf" stroke="black" points="371,-251 371,-270 439,-270 439,-251 371,-251"/>
<text text-anchor="middle" x="405" y="-258" font-family="Helvetica,sans-Serif" font-size="10.00">Ikarus::init</text>
</a>
</g>
</g>
<!-- Node2 -->
<g id="node2" class="node">
<title>Node2</title>
<g id="a_node2"><a xlink:href="a00343.html#ga2f6146bb687ad25cfb413fbcfd470788" target="_top" xlink:title="Register a Python wrapper for an Ikarus basis class.">
<polygon fill="white" stroke="black" points="191.5,-480.5 191.5,-510.5 320.5,-510.5 320.5,-480.5 191.5,-480.5"/>
<text text-anchor="start" x="199.5" y="-498.5" font-family="Helvetica,sans-Serif" font-size="10.00">Ikarus::Python::register</text>
<text text-anchor="middle" x="256" y="-487.5" font-family="Helvetica,sans-Serif" font-size="10.00">BasisHandler</text>
</a>
</g>
</g>
<!-- Node1&#45;&gt;Node2 -->
<g id="edge1" class="edge">
<title>Node1&#45;&gt;Node2</title>
<path fill="none" stroke="midnightblue" d="M403.34,-280.2C400.87,-321.59 389.28,-418.17 335,-471.5 330.86,-475.57 326.04,-478.95 320.87,-481.76"/>
<polygon fill="midnightblue" stroke="midnightblue" points="406.84,-280.23 403.82,-270.07 399.85,-279.89 406.84,-280.23"/>
</g>
<!-- Node3 -->
<g id="node3" class="node">
<title>Node3</title>
<g id="a_node3"><a xlink:href="a00363.html#a331fd78be5a4155963abe5829282c8f1" target="_top" xlink:title=" ">
<polygon fill="white" stroke="black" points="191.5,-431.5 191.5,-461.5 320.5,-461.5 320.5,-431.5 191.5,-431.5"/>
<text text-anchor="start" x="199.5" y="-449.5" font-family="Helvetica,sans-Serif" font-size="10.00">Ikarus::Python::register</text>
<text text-anchor="middle" x="256" y="-438.5" font-family="Helvetica,sans-Serif" font-size="10.00">BoundaryPatch</text>
</a>
</g>
</g>
<!-- Node1&#45;&gt;Node3 -->
<g id="edge2" class="edge">
<title>Node1&#45;&gt;Node3</title>
<path fill="none" stroke="midnightblue" d="M401.08,-280.21C395.02,-314.2 377.85,-383.89 335,-422.5 330.68,-426.39 325.75,-429.65 320.51,-432.38"/>
<polygon fill="midnightblue" stroke="midnightblue" points="404.57,-280.58 402.74,-270.15 397.66,-279.45 404.57,-280.58"/>
</g>
<!-- Node4 -->
<g id="node4" class="node">
<title>Node4</title>
<g id="a_node4"><a xlink:href="a00343.html#ga39b6df6adfe4858b13ac71f5830f29f6" target="_top" xlink:title="Register Python bindings for a DirichletValues class.">
<polygon fill="white" stroke="black" points="191.5,-382.5 191.5,-412.5 320.5,-412.5 320.5,-382.5 191.5,-382.5"/>
<text text-anchor="start" x="199.5" y="-400.5" font-family="Helvetica,sans-Serif" font-size="10.00">Ikarus::Python::register</text>
<text text-anchor="middle" x="256" y="-389.5" font-family="Helvetica,sans-Serif" font-size="10.00">DirichletValues</text>
</a>
</g>
</g>
<!-- Node1&#45;&gt;Node4 -->
<g id="edge3" class="edge">
<title>Node1&#45;&gt;Node4</title>
<path fill="none" stroke="midnightblue" d="M397.19,-279.87C387.34,-305.08 366.76,-348.82 335,-373.5 330.64,-376.89 325.79,-379.8 320.72,-382.31"/>
<polygon fill="midnightblue" stroke="midnightblue" points="400.54,-280.9 400.75,-270.31 393.98,-278.46 400.54,-280.9"/>
</g>
<!-- Node5 -->
<g id="node5" class="node">
<title>Node5</title>
<g id="a_node5"><a xlink:href="a00363.html#a79dfab8379c15a5c5da0d3e5a415f0a3" target="_top" xlink:title="Registers an EnhancedAssumedStrainsPre class in Python.">
<polygon fill="white" stroke="black" points="177,-333.5 177,-363.5 335,-363.5 335,-333.5 177,-333.5"/>
<text text-anchor="start" x="185" y="-351.5" font-family="Helvetica,sans-Serif" font-size="10.00">Ikarus::Python::register</text>
<text text-anchor="middle" x="256" y="-340.5" font-family="Helvetica,sans-Serif" font-size="10.00">EnhancedAssumedStrainsPre</text>
</a>
</g>
</g>
<!-- Node1&#45;&gt;Node5 -->
<g id="edge4" class="edge">
<title>Node1&#45;&gt;Node5</title>
<path fill="none" stroke="midnightblue" d="M387.11,-277.49C373.84,-290.11 354.42,-307.04 335,-318.5 325.25,-324.25 314.21,-329.28 303.55,-333.5"/>
<polygon fill="midnightblue" stroke="midnightblue" points="389.79,-279.76 394.52,-270.28 384.91,-274.75 389.79,-279.76"/>
</g>
<!-- Node6 -->
<g id="node6" class="node">
<title>Node6</title>
<g id="a_node6"><a xlink:href="a00343.html#gac8bb4a818dee7342efbc5e174e35b840" target="_top" xlink:title="Register Python bindings for the FE class.">
<polygon fill="white" stroke="black" points="0,-273 0,-292 141,-292 141,-273 0,-273"/>
<text text-anchor="middle" x="70.5" y="-280" font-family="Helvetica,sans-Serif" font-size="10.00">Ikarus::Python::registerFE</text>
</a>
</g>
</g>
<!-- Node1&#45;&gt;Node6 -->
<g id="edge5" class="edge">
<title>Node1&#45;&gt;Node6</title>
<path fill="none" stroke="midnightblue" d="M373.95,-273.96C362.07,-278.59 348.14,-283.19 335,-285.5 270,-296.91 194.59,-294.51 141.14,-290.24"/>
<polygon fill="midnightblue" stroke="midnightblue" points="375.45,-277.13 383.38,-270.11 372.8,-270.65 375.45,-277.13"/>
</g>
<!-- Node7 -->
<g id="node7" class="node">
<title>Node7</title>
<g id="a_node7"><a xlink:href="a00363.html#a32c3989a8ef1dbc581313ef17a0c6f5b" target="_top" xlink:title=" ">
<polygon fill="white" stroke="black" points="191.5,-245.5 191.5,-275.5 320.5,-275.5 320.5,-245.5 191.5,-245.5"/>
<text text-anchor="start" x="199.5" y="-263.5" font-family="Helvetica,sans-Serif" font-size="10.00">Ikarus::Python::register</text>
<text text-anchor="middle" x="256" y="-252.5" font-family="Helvetica,sans-Serif" font-size="10.00">FERequirement</text>
</a>
</g>
</g>
<!-- Node1&#45;&gt;Node7 -->
<g id="edge6" class="edge">
<title>Node1&#45;&gt;Node7</title>
<path fill="none" stroke="midnightblue" d="M360.5,-260.5C347.99,-260.5 334.08,-260.5 320.62,-260.5"/>
<polygon fill="midnightblue" stroke="midnightblue" points="360.64,-264 370.64,-260.5 360.64,-257 360.64,-264"/>
</g>
<!-- Node8 -->
<g id="node8" class="node">
<title>Node8</title>
<g id="a_node8"><a xlink:href="a00363.html#a0ef1ab14030985bd8af2551f51ceeeb6" target="_top" xlink:title="Registers a KirchhoffLoveShellPre class in Python.">
<polygon fill="white" stroke="black" points="191.5,-196.5 191.5,-226.5 320.5,-226.5 320.5,-196.5 191.5,-196.5"/>
<text text-anchor="start" x="199.5" y="-214.5" font-family="Helvetica,sans-Serif" font-size="10.00">Ikarus::Python::register</text>
<text text-anchor="middle" x="256" y="-203.5" font-family="Helvetica,sans-Serif" font-size="10.00">KirchhoffLoveShellPre</text>
</a>
</g>
</g>
<!-- Node1&#45;&gt;Node8 -->
<g id="edge8" class="edge">
<title>Node1&#45;&gt;Node8</title>
<path fill="none" stroke="midnightblue" d="M367.23,-247.52C356.83,-243.9 345.48,-240 335,-236.5 325.15,-233.21 314.58,-229.76 304.5,-226.52"/>
<polygon fill="midnightblue" stroke="midnightblue" points="366.26,-250.89 376.85,-250.88 368.57,-244.28 366.26,-250.89"/>
</g>
<!-- Node9 -->
<g id="node9" class="node">
<title>Node9</title>
<g id="a_node9"><a xlink:href="a00363.html#a04d0c82e615a65a1ba027cb77bbf784d" target="_top" xlink:title="Registers a LinearElasticPre class in Python.">
<polygon fill="white" stroke="black" points="191.5,-147.5 191.5,-177.5 320.5,-177.5 320.5,-147.5 191.5,-147.5"/>
<text text-anchor="start" x="199.5" y="-165.5" font-family="Helvetica,sans-Serif" font-size="10.00">Ikarus::Python::register</text>
<text text-anchor="middle" x="256" y="-154.5" font-family="Helvetica,sans-Serif" font-size="10.00">LinearElasticPre</text>
</a>
</g>
</g>
<!-- Node1&#45;&gt;Node9 -->
<g id="edge9" class="edge">
<title>Node1&#45;&gt;Node9</title>
<path fill="none" stroke="midnightblue" d="M391.4,-242.72C378.86,-226.22 358.16,-202.08 335,-187.5 328.98,-183.71 322.34,-180.45 315.55,-177.65"/>
<polygon fill="midnightblue" stroke="midnightblue" points="388.75,-245.01 397.5,-250.99 394.38,-240.86 388.75,-245.01"/>
</g>
<!-- Node10 -->
<g id="node10" class="node">
<title>Node10</title>
<g id="a_node10"><a xlink:href="a00363.html#a813121e686b5d64d6ef1e11bd4bfc59b" target="_top" xlink:title="Registers a NeumannBoundaryLoadPre class in Python.">
<polygon fill="white" stroke="black" points="181.5,-98.5 181.5,-128.5 330.5,-128.5 330.5,-98.5 181.5,-98.5"/>
<text text-anchor="start" x="189.5" y="-116.5" font-family="Helvetica,sans-Serif" font-size="10.00">Ikarus::Python::register</text>
<text text-anchor="middle" x="256" y="-105.5" font-family="Helvetica,sans-Serif" font-size="10.00">NeumannBoundaryLoadPre</text>
</a>
</g>
</g>
<!-- Node1&#45;&gt;Node10 -->
<g id="edge10" class="edge">
<title>Node1&#45;&gt;Node10</title>
<path fill="none" stroke="midnightblue" d="M398.11,-241.23C388.93,-214.37 368.67,-165.9 335,-138.5 330.26,-134.64 324.91,-131.37 319.29,-128.61"/>
<polygon fill="midnightblue" stroke="midnightblue" points="394.86,-242.56 401.28,-250.99 401.52,-240.39 394.86,-242.56"/>
</g>
<!-- Node11 -->
<g id="node11" class="node">
<title>Node11</title>
<g id="a_node11"><a xlink:href="a00363.html#ab45b29a3ca18f1c8bf87263c60d14711" target="_top" xlink:title="Registers a NonLinearElasticPre class in Python.">
<polygon fill="white" stroke="black" points="191.5,-49.5 191.5,-79.5 320.5,-79.5 320.5,-49.5 191.5,-49.5"/>
<text text-anchor="start" x="199.5" y="-67.5" font-family="Helvetica,sans-Serif" font-size="10.00">Ikarus::Python::register</text>
<text text-anchor="middle" x="256" y="-56.5" font-family="Helvetica,sans-Serif" font-size="10.00">NonLinearElasticPre</text>
</a>
</g>
</g>
<!-- Node1&#45;&gt;Node11 -->
<g id="edge11" class="edge">
<title>Node1&#45;&gt;Node11</title>
<path fill="none" stroke="midnightblue" d="M401.53,-240.74C396.05,-205.35 379.65,-130.99 335,-89.5 330.73,-85.53 325.83,-82.19 320.6,-79.38"/>
<polygon fill="midnightblue" stroke="midnightblue" points="398.08,-241.36 402.94,-250.77 405.01,-240.38 398.08,-241.36"/>
</g>
<!-- Node12 -->
<g id="node12" class="node">
<title>Node12</title>
<g id="a_node12"><a xlink:href="a00363.html#a1f597ae7aac82dc24a8a2669f86fc12b" target="_top" xlink:title="Registers a VolumeLoadPre class in Python.">
<polygon fill="white" stroke="black" points="191.5,-0.5 191.5,-30.5 320.5,-30.5 320.5,-0.5 191.5,-0.5"/>
<text text-anchor="start" x="199.5" y="-18.5" font-family="Helvetica,sans-Serif" font-size="10.00">Ikarus::Python::register</text>
<text text-anchor="middle" x="256" y="-7.5" font-family="Helvetica,sans-Serif" font-size="10.00">VolumeLoadPre</text>
</a>
</g>
</g>
<!-- Node1&#45;&gt;Node12 -->
<g id="edge12" class="edge">
<title>Node1&#45;&gt;Node12</title>
<path fill="none" stroke="midnightblue" d="M403.58,-240.3C401.58,-197.44 390.83,-96.68 335,-40.5 330.79,-36.26 325.86,-32.74 320.56,-29.82"/>
<polygon fill="midnightblue" stroke="midnightblue" points="400.09,-240.69 403.94,-250.56 407.09,-240.44 400.09,-240.69"/>
</g>
<!-- Node7&#45;&gt;Node6 -->
<g id="edge7" class="edge">
<title>Node7&#45;&gt;Node6</title>
<path fill="none" stroke="midnightblue" d="M181.29,-269.34C168,-270.93 154.17,-272.59 141,-274.17"/>
<polygon fill="midnightblue" stroke="midnightblue" points="181.82,-272.8 191.34,-268.13 180.99,-265.85 181.82,-272.8"/>
</g>
</g>
</svg>
