<?xml version="1.0" encoding="UTF-8" standalone="no"?>
<!DOCTYPE svg PUBLIC "-//W3C//DTD SVG 1.1//EN"
 "http://www.w3.org/Graphics/SVG/1.1/DTD/svg11.dtd">
<!-- Generated by graphviz version 2.43.0 (0)
 -->
<!-- Title: Ikarus::FlatAssemblerBase::dBCOption Pages: 1 -->
<svg width="536pt" height="137pt"
 viewBox="0.00 0.00 536.00 137.00" xmlns="http://www.w3.org/2000/svg" xmlns:xlink="http://www.w3.org/1999/xlink">
<g id="graph0" class="graph" transform="scale(1 1) rotate(0) translate(4 133)">
<title>Ikarus::FlatAssemblerBase::dBCOption</title>
<polygon fill="white" stroke="transparent" points="-4,4 -4,-133 532,-133 532,4 -4,4"/>
<!-- Node1 -->
<g id="node1" class="node">
<title>Node1</title>
<g id="a_node1"><a xlink:title="Returns the dirichlet boundary condition enforcement option.">
<polygon fill="#bfbfbf" stroke="black" points="382,-49.5 382,-79.5 528,-79.5 528,-49.5 382,-49.5"/>
<text text-anchor="start" x="390" y="-67.5" font-family="Helvetica,sans-Serif" font-size="10.00">Ikarus::FlatAssemblerBase</text>
<text text-anchor="middle" x="455" y="-56.5" font-family="Helvetica,sans-Serif" font-size="10.00">::dBCOption</text>
</a>
</g>
</g>
<!-- Node2 -->
<g id="node2" class="node">
<title>Node2</title>
<g id="a_node2"><a xlink:href="a01207.html#aae15a4403c966b9e074636d4e828873b" target="_top" xlink:title="Calculates the matrix quantity requested by the bound feRequirements, the affordance and the dBCOptio...">
<polygon fill="white" stroke="black" points="191,-98.5 191,-128.5 346,-128.5 346,-98.5 191,-98.5"/>
<text text-anchor="start" x="199" y="-116.5" font-family="Helvetica,sans-Serif" font-size="10.00">Ikarus::SparseFlatAssembler</text>
<text text-anchor="middle" x="268.5" y="-105.5" font-family="Helvetica,sans-Serif" font-size="10.00">::matrix</text>
</a>
</g>
</g>
<!-- Node1&#45;&gt;Node2 -->
<g id="edge1" class="edge">
<title>Node1&#45;&gt;Node2</title>
<path fill="none" stroke="midnightblue" d="M387.64,-82.12C367.46,-87.48 345.47,-93.32 326,-98.49"/>
<polygon fill="midnightblue" stroke="midnightblue" points="388.62,-85.48 397.39,-79.53 386.83,-78.72 388.62,-85.48"/>
</g>
<!-- Node4 -->
<g id="node4" class="node">
<title>Node4</title>
<g id="a_node4"><a xlink:href="a01211.html#aa198c22fc8dce6f01ff2984b474a0bd4" target="_top" xlink:title=" ">
<polygon fill="white" stroke="black" points="192,-49.5 192,-79.5 345,-79.5 345,-49.5 192,-49.5"/>
<text text-anchor="start" x="200" y="-67.5" font-family="Helvetica,sans-Serif" font-size="10.00">Ikarus::DenseFlatAssembler</text>
<text text-anchor="middle" x="268.5" y="-56.5" font-family="Helvetica,sans-Serif" font-size="10.00">::matrix</text>
</a>
</g>
</g>
<!-- Node1&#45;&gt;Node4 -->
<g id="edge3" class="edge">
<title>Node1&#45;&gt;Node4</title>
<path fill="none" stroke="midnightblue" d="M371.63,-64.5C362.84,-64.5 353.93,-64.5 345.23,-64.5"/>
<polygon fill="midnightblue" stroke="midnightblue" points="371.87,-68 381.87,-64.5 371.87,-61 371.87,-68"/>
</g>
<!-- Node6 -->
<g id="node6" class="node">
<title>Node6</title>
<g id="a_node6"><a xlink:href="a01203.html#a2a64033f5c431c36f8585cb2da243dcf" target="_top" xlink:title="Calculates the vectorial quantity requested by the bound feRequirements, the affordance and the dBCOp...">
<polygon fill="white" stroke="black" points="192,-0.5 192,-30.5 345,-30.5 345,-0.5 192,-0.5"/>
<text text-anchor="start" x="200" y="-18.5" font-family="Helvetica,sans-Serif" font-size="10.00">Ikarus::VectorFlatAssembler</text>
<text text-anchor="middle" x="268.5" y="-7.5" font-family="Helvetica,sans-Serif" font-size="10.00">::vector</text>
</a>
</g>
</g>
<!-- Node1&#45;&gt;Node6 -->
<g id="edge5" class="edge">
<title>Node1&#45;&gt;Node6</title>
<path fill="none" stroke="midnightblue" d="M387.64,-46.88C367.46,-41.52 345.47,-35.68 326,-30.51"/>
<polygon fill="midnightblue" stroke="midnightblue" points="386.83,-50.28 397.39,-49.47 388.62,-43.52 386.83,-50.28"/>
</g>
<!-- Node3 -->
<g id="node3" class="node">
<title>Node3</title>
<g id="a_node3"><a xlink:href="a01207.html#a67e315001064876edfa09041b5627ba3" target="_top" xlink:title="Calculates the matrix quantity requested by the bound feRequirements and the affordance.">
<polygon fill="white" stroke="black" points="0,-98.5 0,-128.5 155,-128.5 155,-98.5 0,-98.5"/>
<text text-anchor="start" x="8" y="-116.5" font-family="Helvetica,sans-Serif" font-size="10.00">Ikarus::SparseFlatAssembler</text>
<text text-anchor="middle" x="77.5" y="-105.5" font-family="Helvetica,sans-Serif" font-size="10.00">::matrix</text>
</a>
</g>
</g>
<!-- Node2&#45;&gt;Node3 -->
<g id="edge2" class="edge">
<title>Node2&#45;&gt;Node3</title>
<path fill="none" stroke="midnightblue" d="M180.9,-113.5C172.33,-113.5 163.67,-113.5 155.21,-113.5"/>
<polygon fill="midnightblue" stroke="midnightblue" points="180.9,-117 190.9,-113.5 180.9,-110 180.9,-117"/>
</g>
<!-- Node5 -->
<g id="node5" class="node">
<title>Node5</title>
<g id="a_node5"><a xlink:href="a01211.html#a6381a98e1358aa8e13ceaa3ac3011e9c" target="_top" xlink:title="Calculates the matrix quantity requested by the bound feRequirements and the affordance....">
<polygon fill="white" stroke="black" points="1,-49.5 1,-79.5 154,-79.5 154,-49.5 1,-49.5"/>
<text text-anchor="start" x="9" y="-67.5" font-family="Helvetica,sans-Serif" font-size="10.00">Ikarus::DenseFlatAssembler</text>
<text text-anchor="middle" x="77.5" y="-56.5" font-family="Helvetica,sans-Serif" font-size="10.00">::matrix</text>
</a>
</g>
</g>
<!-- Node4&#45;&gt;Node5 -->
<g id="edge4" class="edge">
<title>Node4&#45;&gt;Node5</title>
<path fill="none" stroke="midnightblue" d="M181.7,-64.5C172.53,-64.5 163.24,-64.5 154.2,-64.5"/>
<polygon fill="midnightblue" stroke="midnightblue" points="181.99,-68 191.99,-64.5 181.99,-61 181.99,-68"/>
</g>
<!-- Node7 -->
<g id="node7" class="node">
<title>Node7</title>
<g id="a_node7"><a xlink:href="a01203.html#ac06d14d576bc6a18c3d66f7774fc0c59" target="_top" xlink:title="Calculates the vectorial quantity requested by the bound feRequirements and the affordance....">
<polygon fill="white" stroke="black" points="1,-0.5 1,-30.5 154,-30.5 154,-0.5 1,-0.5"/>
<text text-anchor="start" x="9" y="-18.5" font-family="Helvetica,sans-Serif" font-size="10.00">Ikarus::VectorFlatAssembler</text>
<text text-anchor="middle" x="77.5" y="-7.5" font-family="Helvetica,sans-Serif" font-size="10.00">::vector</text>
</a>
</g>
</g>
<!-- Node6&#45;&gt;Node7 -->
<g id="edge6" class="edge">
<title>Node6&#45;&gt;Node7</title>
<path fill="none" stroke="midnightblue" d="M181.7,-15.5C172.53,-15.5 163.24,-15.5 154.2,-15.5"/>
<polygon fill="midnightblue" stroke="midnightblue" points="181.99,-19 191.99,-15.5 181.99,-12 181.99,-19"/>
</g>
</g>
</svg>
