<?xml version="1.0" encoding="UTF-8" standalone="no"?>
<!DOCTYPE svg PUBLIC "-//W3C//DTD SVG 1.1//EN"
 "http://www.w3.org/Graphics/SVG/1.1/DTD/svg11.dtd">
<!-- Generated by graphviz version 2.43.0 (0)
 -->
<!-- Title: Ikarus::VectorFlatAssembler::vector Pages: 1 -->
<svg width="350pt" height="39pt"
 viewBox="0.00 0.00 350.00 39.00" xmlns="http://www.w3.org/2000/svg" xmlns:xlink="http://www.w3.org/1999/xlink">
<g id="graph0" class="graph" transform="scale(1 1) rotate(0) translate(4 35)">
<title>Ikarus::VectorFlatAssembler::vector</title>
<polygon fill="white" stroke="transparent" points="-4,4 -4,-35 346,-35 346,4 -4,4"/>
<!-- Node1 -->
<g id="node1" class="node">
<title>Node1</title>
<g id="a_node1"><a xlink:title="Calculates the vectorial quantity requested by the bound feRequirements, the affordance and the dBCOp...">
<polygon fill="#bfbfbf" stroke="black" points="189,-0.5 189,-30.5 342,-30.5 342,-0.5 189,-0.5"/>
<text text-anchor="start" x="197" y="-18.5" font-family="Helvetica,sans-Serif" font-size="10.00">Ikarus::VectorFlatAssembler</text>
<text text-anchor="middle" x="265.5" y="-7.5" font-family="Helvetica,sans-Serif" font-size="10.00">::vector</text>
</a>
</g>
</g>
<!-- Node2 -->
<g id="node2" class="node">
<title>Node2</title>
<g id="a_node2"><a xlink:href="a01203.html#ac06d14d576bc6a18c3d66f7774fc0c59" target="_top" xlink:title="Calculates the vectorial quantity requested by the bound feRequirements and the affordance....">
<polygon fill="white" stroke="black" points="0,-0.5 0,-30.5 153,-30.5 153,-0.5 0,-0.5"/>
<text text-anchor="start" x="8" y="-18.5" font-family="Helvetica,sans-Serif" font-size="10.00">Ikarus::VectorFlatAssembler</text>
<text text-anchor="middle" x="76.5" y="-7.5" font-family="Helvetica,sans-Serif" font-size="10.00">::vector</text>
</a>
</g>
</g>
<!-- Node1&#45;&gt;Node2 -->
<g id="edge1" class="edge">
<title>Node1&#45;&gt;Node2</title>
<path fill="none" stroke="midnightblue" d="M178.7,-15.5C170.23,-15.5 161.67,-15.5 153.3,-15.5"/>
<polygon fill="midnightblue" stroke="midnightblue" points="178.98,-19 188.98,-15.5 178.98,-12 178.98,-19"/>
</g>
</g>
</svg>
