<?xml version="1.0" encoding="UTF-8" standalone="no"?>
<!DOCTYPE svg PUBLIC "-//W3C//DTD SVG 1.1//EN"
 "http://www.w3.org/Graphics/SVG/1.1/DTD/svg11.dtd">
<!-- Generated by graphviz version 2.43.0 (0)
 -->
<!-- Title: assembler Pages: 1 -->
<svg width="254pt" height="151pt"
 viewBox="0.00 0.00 253.50 151.00" xmlns="http://www.w3.org/2000/svg" xmlns:xlink="http://www.w3.org/1999/xlink">
<g id="graph0" class="graph" transform="scale(1 1) rotate(0) translate(4 147)">
<title>assembler</title>
<polygon fill="white" stroke="transparent" points="-4,4 -4,-147 249.5,-147 249.5,4 -4,4"/>
<g id="clust1" class="cluster">
<title>clusterdir_6063e92d97cad5a47908d6a96069b24d</title>
<g id="a_clust1"><a xlink:href="dir_6063e92d97cad5a47908d6a96069b24d.html" target="_top" xlink:title="python">
<polygon fill="#edf0f7" stroke="#7f7f7f" stroke-dasharray="5,2" points="64,-64 64,-135 148,-135 148,-64 64,-64"/>
<text text-anchor="middle" x="106" y="-123" font-family="Helvetica,sans-Serif" font-size="10.00">python</text>
</a>
</g>
</g>
<!-- dir_2eacd46bb6575c3620b10a673993bd91 -->
<g id="node1" class="node">
<title>dir_2eacd46bb6575c3620b10a673993bd91</title>
<g id="a_node1"><a xlink:href="dir_2eacd46bb6575c3620b10a673993bd91.html" target="_top" xlink:title="assembler">
<polygon fill="#edf0f7" stroke="#404040" stroke-width="2" points="140,-108 72,-108 72,-72 140,-72 140,-108"/>
<text text-anchor="middle" x="106" y="-87.5" font-family="Helvetica,sans-Serif" font-size="10.00">assembler</text>
</a>
</g>
</g>
<!-- dir_36505a9bfb81f81ed7a4e794d4cf597e -->
<g id="node2" class="node">
<title>dir_36505a9bfb81f81ed7a4e794d4cf597e</title>
<g id="a_node2"><a xlink:href="dir_36505a9bfb81f81ed7a4e794d4cf597e.html" target="_top" xlink:title="utils">
<polygon fill="none" stroke="red" stroke-dasharray="5,2" points="54,-36 0,-36 0,0 54,0 54,-36"/>
<text text-anchor="middle" x="27" y="-15.5" font-family="Helvetica,sans-Serif" font-size="10.00">utils</text>
</a>
</g>
</g>
<!-- dir_2eacd46bb6575c3620b10a673993bd91&#45;&gt;dir_36505a9bfb81f81ed7a4e794d4cf597e -->
<g id="edge1" class="edge">
<title>dir_2eacd46bb6575c3620b10a673993bd91&#45;&gt;dir_36505a9bfb81f81ed7a4e794d4cf597e</title>
<path fill="none" stroke="black" d="M86.47,-71.7C76.62,-62.97 64.51,-52.24 53.8,-42.75"/>
<polygon fill="black" stroke="black" points="56.11,-40.12 46.3,-36.1 51.47,-45.36 56.11,-40.12"/>
<g id="a_edge1&#45;headlabel"><a xlink:href="dir_000001_000027.html" target="_top" xlink:title="1">
<text text-anchor="middle" x="60.68" y="-37.88" font-family="Helvetica,sans-Serif" font-size="10.00">1</text>
</a>
</g>
</g>
<!-- dir_b4e169eb0efbd955079f9a2ee34b7226 -->
<g id="node3" class="node">
<title>dir_b4e169eb0efbd955079f9a2ee34b7226</title>
<g id="a_node3"><a xlink:href="dir_b4e169eb0efbd955079f9a2ee34b7226.html" target="_top" xlink:title="assembler">
<polygon fill="none" stroke="#7f7f7f" points="140,-36 72,-36 72,0 140,0 140,-36"/>
<text text-anchor="middle" x="106" y="-15.5" font-family="Helvetica,sans-Serif" font-size="10.00">assembler</text>
</a>
</g>
</g>
<!-- dir_2eacd46bb6575c3620b10a673993bd91&#45;&gt;dir_b4e169eb0efbd955079f9a2ee34b7226 -->
<g id="edge2" class="edge">
<title>dir_2eacd46bb6575c3620b10a673993bd91&#45;&gt;dir_b4e169eb0efbd955079f9a2ee34b7226</title>
<path fill="none" stroke="black" d="M106,-71.7C106,-63.98 106,-54.71 106,-46.11"/>
<polygon fill="black" stroke="black" points="109.5,-46.1 106,-36.1 102.5,-46.1 109.5,-46.1"/>
<g id="a_edge2&#45;headlabel"><a xlink:href="dir_000001_000000.html" target="_top" xlink:title="1">
<text text-anchor="middle" x="112.34" y="-47.2" font-family="Helvetica,sans-Serif" font-size="10.00">1</text>
</a>
</g>
</g>
<!-- dir_f5e28093cb075fb92f2345f7d8607df6 -->
<g id="node4" class="node">
<title>dir_f5e28093cb075fb92f2345f7d8607df6</title>
<g id="a_node4"><a xlink:href="dir_f5e28093cb075fb92f2345f7d8607df6.html" target="_top" xlink:title="finiteelements">
<polygon fill="none" stroke="red" stroke-dasharray="5,2" points="245.5,-36 158.5,-36 158.5,0 245.5,0 245.5,-36"/>
<text text-anchor="middle" x="202" y="-15.5" font-family="Helvetica,sans-Serif" font-size="10.00">finiteelements</text>
</a>
</g>
</g>
<!-- dir_2eacd46bb6575c3620b10a673993bd91&#45;&gt;dir_f5e28093cb075fb92f2345f7d8607df6 -->
<g id="edge3" class="edge">
<title>dir_2eacd46bb6575c3620b10a673993bd91&#45;&gt;dir_f5e28093cb075fb92f2345f7d8607df6</title>
<path fill="none" stroke="black" d="M129.73,-71.7C141.94,-62.8 156.99,-51.82 170.18,-42.2"/>
<polygon fill="black" stroke="black" points="172.52,-44.82 178.54,-36.1 168.4,-39.17 172.52,-44.82"/>
<g id="a_edge3&#45;headlabel"><a xlink:href="dir_000001_000011.html" target="_top" xlink:title="1">
<text text-anchor="middle" x="171.29" y="-46.74" font-family="Helvetica,sans-Serif" font-size="10.00">1</text>
</a>
</g>
</g>
</g>
</svg>
