<?xml version="1.0" encoding="UTF-8" standalone="no"?>
<!DOCTYPE svg PUBLIC "-//W3C//DTD SVG 1.1//EN"
 "http://www.w3.org/Graphics/SVG/1.1/DTD/svg11.dtd">
<!-- Generated by graphviz version 2.43.0 (0)
 -->
<!-- Title: ikarus Pages: 1 -->
<svg width="912pt" height="308pt"
 viewBox="0.00 0.00 912.00 308.00" xmlns="http://www.w3.org/2000/svg" xmlns:xlink="http://www.w3.org/1999/xlink">
<g id="graph0" class="graph" transform="scale(1 1) rotate(0) translate(4 304)">
<title>ikarus</title>
<polygon fill="white" stroke="transparent" points="-4,4 -4,-304 908,-304 908,4 -4,4"/>
<g id="clust1" class="cluster">
<title>clusterdir_5bec9ec6c6b8ab3f2f9d60d2ff21ed81</title>
<g id="a_clust1"><a xlink:href="dir_5bec9ec6c6b8ab3f2f9d60d2ff21ed81.html" target="_top">
<polygon fill="#edf0f7" stroke="#404040" stroke-width="2" points="8,-8 8,-292 896,-292 896,-8 8,-8"/>
</a>
</g>
</g>
<g id="clust2" class="cluster">
<title>clusterdir_f5e28093cb075fb92f2345f7d8607df6</title>
<g id="a_clust2"><a xlink:href="dir_f5e28093cb075fb92f2345f7d8607df6.html" target="_top">
<polygon fill="#dfe5f1" stroke="#404040" points="520,-80 520,-220 856,-220 856,-80 520,-80"/>
</a>
</g>
</g>
<g id="clust3" class="cluster">
<title>clusterdir_d9d7fab038fcca5270fe0241ec433d4d</title>
<g id="a_clust3"><a xlink:href="dir_d9d7fab038fcca5270fe0241ec433d4d.html" target="_top">
<polygon fill="#d0d9ea" stroke="#404040" points="528,-88 528,-212 752,-212 752,-88 528,-88"/>
</a>
</g>
</g>
<g id="clust4" class="cluster">
<title>clusterdir_6063e92d97cad5a47908d6a96069b24d</title>
<g id="a_clust4"><a xlink:href="dir_6063e92d97cad5a47908d6a96069b24d.html" target="_top">
<polygon fill="#dfe5f1" stroke="#404040" points="239,-232 239,-284 752,-284 752,-232 239,-232"/>
</a>
</g>
</g>
<g id="clust5" class="cluster">
<title>clusterdir_26588bed129c997bc132e8888f2113fa</title>
<g id="a_clust5"><a xlink:href="dir_26588bed129c997bc132e8888f2113fa.html" target="_top">
<polygon fill="#dfe5f1" stroke="#404040" points="116,-88 116,-212 296,-212 296,-88 116,-88"/>
</a>
</g>
</g>
<g id="clust6" class="cluster">
<title>clusterdir_36505a9bfb81f81ed7a4e794d4cf597e</title>
<g id="a_clust6"><a xlink:href="dir_36505a9bfb81f81ed7a4e794d4cf597e.html" target="_top">
<polygon fill="#dfe5f1" stroke="#404040" points="352,-16 352,-68 574,-68 574,-16 352,-16"/>
</a>
</g>
</g>
<!-- dir_5bec9ec6c6b8ab3f2f9d60d2ff21ed81 -->
<g id="node1" class="node">
<title>dir_5bec9ec6c6b8ab3f2f9d60d2ff21ed81</title>
<text text-anchor="middle" x="789" y="-255.5" font-family="Helvetica,sans-Serif" font-size="10.00">ikarus</text>
</g>
<!-- dir_b4e169eb0efbd955079f9a2ee34b7226 -->
<g id="node2" class="node">
<title>dir_b4e169eb0efbd955079f9a2ee34b7226</title>
<g id="a_node2"><a xlink:href="dir_b4e169eb0efbd955079f9a2ee34b7226.html" target="_top" xlink:title="assembler">
<polygon fill="#dfe5f1" stroke="#404040" points="472,-132 404,-132 404,-96 472,-96 472,-132"/>
<text text-anchor="middle" x="438" y="-111.5" font-family="Helvetica,sans-Serif" font-size="10.00">assembler</text>
</a>
</g>
</g>
<!-- dir_f5e28093cb075fb92f2345f7d8607df6 -->
<g id="node4" class="node">
<title>dir_f5e28093cb075fb92f2345f7d8607df6</title>
<text text-anchor="middle" x="804" y="-183.5" font-family="Helvetica,sans-Serif" font-size="10.00">finiteelements</text>
</g>
<!-- dir_b4e169eb0efbd955079f9a2ee34b7226&#45;&gt;dir_f5e28093cb075fb92f2345f7d8607df6 -->
<g id="edge2" class="edge">
<title>dir_b4e169eb0efbd955079f9a2ee34b7226&#45;&gt;dir_f5e28093cb075fb92f2345f7d8607df6</title>
<path fill="none" stroke="black" d="M472.26,-122.11C487.99,-125.29 506.91,-128.99 524,-132 623.45,-149.54 652.94,-142.94 750.45,-166.7"/>
<polygon fill="black" stroke="black" points="749.87,-170.16 760.42,-169.18 751.56,-163.37 749.87,-170.16"/>
<g id="a_edge2&#45;headlabel"><a xlink:href="dir_000000_000011.html" target="_top" xlink:title="2">
<text text-anchor="middle" x="745.7" y="-169.55" font-family="Helvetica,sans-Serif" font-size="10.00">2</text>
</a>
</g>
</g>
<!-- dir_36505a9bfb81f81ed7a4e794d4cf597e -->
<g id="node20" class="node">
<title>dir_36505a9bfb81f81ed7a4e794d4cf597e</title>
<text text-anchor="middle" x="539" y="-39.5" font-family="Helvetica,sans-Serif" font-size="10.00">utils</text>
</g>
<!-- dir_b4e169eb0efbd955079f9a2ee34b7226&#45;&gt;dir_36505a9bfb81f81ed7a4e794d4cf597e -->
<g id="edge1" class="edge">
<title>dir_b4e169eb0efbd955079f9a2ee34b7226&#45;&gt;dir_36505a9bfb81f81ed7a4e794d4cf597e</title>
<path fill="none" stroke="black" d="M470.82,-95.91C483.84,-87.51 498.69,-77.23 512,-68 512.91,-67.37 513.83,-66.73 514.75,-66.09"/>
<polygon fill="black" stroke="black" points="516.94,-68.83 523.11,-60.22 512.92,-63.1 516.94,-68.83"/>
<g id="a_edge1&#45;headlabel"><a xlink:href="dir_000000_000027.html" target="_top" xlink:title="2">
<text text-anchor="middle" x="515.63" y="-70.72" font-family="Helvetica,sans-Serif" font-size="10.00">2</text>
</a>
</g>
</g>
<!-- dir_a97b071c9c6f7bcc51f4d0bc7519f177 -->
<g id="node3" class="node">
<title>dir_a97b071c9c6f7bcc51f4d0bc7519f177</title>
<g id="a_node3"><a xlink:href="dir_a97b071c9c6f7bcc51f4d0bc7519f177.html" target="_top" xlink:title="controlroutines">
<polygon fill="#dfe5f1" stroke="#404040" points="106,-204 16,-204 16,-168 106,-168 106,-204"/>
<text text-anchor="middle" x="61" y="-183.5" font-family="Helvetica,sans-Serif" font-size="10.00">controlroutines</text>
</a>
</g>
</g>
<!-- dir_bcdbbdf4d2b6b627956abd47159b4d71 -->
<g id="node18" class="node">
<title>dir_bcdbbdf4d2b6b627956abd47159b4d71</title>
<g id="a_node18"><a xlink:href="dir_bcdbbdf4d2b6b627956abd47159b4d71.html" target="_top" xlink:title="linearsolver">
<polygon fill="#d0d9ea" stroke="#404040" points="207,-132 133,-132 133,-96 207,-96 207,-132"/>
<text text-anchor="middle" x="170" y="-111.5" font-family="Helvetica,sans-Serif" font-size="10.00">linearsolver</text>
</a>
</g>
</g>
<!-- dir_a97b071c9c6f7bcc51f4d0bc7519f177&#45;&gt;dir_bcdbbdf4d2b6b627956abd47159b4d71 -->
<g id="edge5" class="edge">
<title>dir_a97b071c9c6f7bcc51f4d0bc7519f177&#45;&gt;dir_bcdbbdf4d2b6b627956abd47159b4d71</title>
<path fill="none" stroke="black" d="M87.66,-167.88C101.78,-158.81 119.31,-147.55 134.56,-137.76"/>
<polygon fill="black" stroke="black" points="136.71,-140.54 143.23,-132.19 132.93,-134.65 136.71,-140.54"/>
<g id="a_edge5&#45;headlabel"><a xlink:href="dir_000004_000017.html" target="_top" xlink:title="1">
<text text-anchor="middle" x="135.22" y="-142.37" font-family="Helvetica,sans-Serif" font-size="10.00">1</text>
</a>
</g>
</g>
<!-- dir_bf30182dc97724dc8c2a6cdd4c321688 -->
<g id="node19" class="node">
<title>dir_bf30182dc97724dc8c2a6cdd4c321688</title>
<g id="a_node19"><a xlink:href="dir_bf30182dc97724dc8c2a6cdd4c321688.html" target="_top" xlink:title="nonlinearsolver">
<polygon fill="#d0d9ea" stroke="#404040" points="216,-204 124,-204 124,-168 216,-168 216,-204"/>
<text text-anchor="middle" x="170" y="-183.5" font-family="Helvetica,sans-Serif" font-size="10.00">nonlinearsolver</text>
</a>
</g>
</g>
<!-- dir_a97b071c9c6f7bcc51f4d0bc7519f177&#45;&gt;dir_bf30182dc97724dc8c2a6cdd4c321688 -->
<g id="edge6" class="edge">
<title>dir_a97b071c9c6f7bcc51f4d0bc7519f177&#45;&gt;dir_bf30182dc97724dc8c2a6cdd4c321688</title>
<path fill="none" stroke="black" d="M106.13,-186C108.59,-186 111.04,-186 113.5,-186"/>
<polygon fill="black" stroke="black" points="113.6,-189.5 123.6,-186 113.6,-182.5 113.6,-189.5"/>
<g id="a_edge6&#45;headlabel"><a xlink:href="dir_000004_000021.html" target="_top" xlink:title="5">
<text text-anchor="middle" x="110" y="-189.84" font-family="Helvetica,sans-Serif" font-size="10.00">5</text>
</a>
</g>
</g>
<!-- dir_a97b071c9c6f7bcc51f4d0bc7519f177&#45;&gt;dir_36505a9bfb81f81ed7a4e794d4cf597e -->
<g id="edge3" class="edge">
<title>dir_a97b071c9c6f7bcc51f4d0bc7519f177&#45;&gt;dir_36505a9bfb81f81ed7a4e794d4cf597e</title>
<path fill="none" stroke="black" d="M69.02,-167.92C82.87,-138.51 109.98,-81.31 112,-80 148.48,-56.37 461.73,-81.62 503,-68 505.4,-67.21 507.79,-66.2 510.12,-65.04"/>
<polygon fill="black" stroke="black" points="511.89,-68.06 518.78,-60.01 508.38,-62.01 511.89,-68.06"/>
<g id="a_edge3&#45;headlabel"><a xlink:href="dir_000004_000027.html" target="_top" xlink:title="11">
<text text-anchor="middle" x="510.21" y="-69.82" font-family="Helvetica,sans-Serif" font-size="10.00">11</text>
</a>
</g>
</g>
<!-- dir_8f2573d1a9c53251c08257bad1a27fd3 -->
<g id="node22" class="node">
<title>dir_8f2573d1a9c53251c08257bad1a27fd3</title>
<g id="a_node22"><a xlink:href="dir_8f2573d1a9c53251c08257bad1a27fd3.html" target="_top" xlink:title="observer">
<polygon fill="#d0d9ea" stroke="#404040" points="419.5,-60 360.5,-60 360.5,-24 419.5,-24 419.5,-60"/>
<text text-anchor="middle" x="390" y="-39.5" font-family="Helvetica,sans-Serif" font-size="10.00">observer</text>
</a>
</g>
</g>
<!-- dir_a97b071c9c6f7bcc51f4d0bc7519f177&#45;&gt;dir_8f2573d1a9c53251c08257bad1a27fd3 -->
<g id="edge4" class="edge">
<title>dir_a97b071c9c6f7bcc51f4d0bc7519f177&#45;&gt;dir_8f2573d1a9c53251c08257bad1a27fd3</title>
<path fill="none" stroke="black" d="M61.23,-167.75C62.55,-144.01 68.72,-101.74 95,-80 132.92,-48.62 278.06,-43.46 349.62,-42.87"/>
<polygon fill="black" stroke="black" points="350.06,-46.37 360.04,-42.81 350.02,-39.37 350.06,-46.37"/>
<g id="a_edge4&#45;headlabel"><a xlink:href="dir_000004_000022.html" target="_top" xlink:title="6">
<text text-anchor="middle" x="346.48" y="-46.73" font-family="Helvetica,sans-Serif" font-size="10.00">6</text>
</a>
</g>
</g>
<!-- dir_f5e28093cb075fb92f2345f7d8607df6&#45;&gt;dir_36505a9bfb81f81ed7a4e794d4cf597e -->
<g id="edge7" class="edge">
<title>dir_f5e28093cb075fb92f2345f7d8607df6&#45;&gt;dir_36505a9bfb81f81ed7a4e794d4cf597e</title>
<path fill="none" stroke="black" d="M806.97,-167.75C809.92,-144.41 811.12,-103.04 788,-80 758.95,-51.06 638.71,-44.67 576.56,-43.32"/>
<polygon fill="black" stroke="black" points="576.45,-39.81 566.39,-43.13 576.33,-46.81 576.45,-39.81"/>
<g id="a_edge7&#45;headlabel"><a xlink:href="dir_000011_000027.html" target="_top" xlink:title="22">
<text text-anchor="middle" x="580.1" y="-34.54" font-family="Helvetica,sans-Serif" font-size="10.00">22</text>
</a>
</g>
</g>
<!-- dir_d9d7fab038fcca5270fe0241ec433d4d -->
<g id="node5" class="node">
<title>dir_d9d7fab038fcca5270fe0241ec433d4d</title>
<text text-anchor="middle" x="645" y="-183.5" font-family="Helvetica,sans-Serif" font-size="10.00">mechanics</text>
</g>
<!-- dir_8255788c45776b878bdf90a74000e4e1 -->
<g id="node6" class="node">
<title>dir_8255788c45776b878bdf90a74000e4e1</title>
<g id="a_node6"><a xlink:href="dir_8255788c45776b878bdf90a74000e4e1.html" target="_top" xlink:title="eas">
<polygon fill="#c1cde4" stroke="#404040" points="744,-132 690,-132 690,-96 744,-96 744,-132"/>
<text text-anchor="middle" x="717" y="-111.5" font-family="Helvetica,sans-Serif" font-size="10.00">eas</text>
</a>
</g>
</g>
<!-- dir_d9d7fab038fcca5270fe0241ec433d4d&#45;&gt;dir_8255788c45776b878bdf90a74000e4e1 -->
<g id="edge10" class="edge">
<title>dir_d9d7fab038fcca5270fe0241ec433d4d&#45;&gt;dir_8255788c45776b878bdf90a74000e4e1</title>
<path fill="none" stroke="black" d="M662.8,-167.7C671.6,-159.14 682.38,-148.66 692,-139.3"/>
<polygon fill="black" stroke="black" points="694.68,-141.58 699.41,-132.1 689.8,-136.57 694.68,-141.58"/>
<g id="a_edge10&#45;headlabel"><a xlink:href="dir_000020_000009.html" target="_top" xlink:title="2">
<text text-anchor="middle" x="694.08" y="-143.63" font-family="Helvetica,sans-Serif" font-size="10.00">2</text>
</a>
</g>
</g>
<!-- dir_31d7c48772b4fae367539a6092b906a8 -->
<g id="node7" class="node">
<title>dir_31d7c48772b4fae367539a6092b906a8</title>
<g id="a_node7"><a xlink:href="dir_31d7c48772b4fae367539a6092b906a8.html" target="_top" xlink:title="loads">
<polygon fill="#c1cde4" stroke="#404040" points="672,-132 618,-132 618,-96 672,-96 672,-132"/>
<text text-anchor="middle" x="645" y="-111.5" font-family="Helvetica,sans-Serif" font-size="10.00">loads</text>
</a>
</g>
</g>
<!-- dir_d9d7fab038fcca5270fe0241ec433d4d&#45;&gt;dir_31d7c48772b4fae367539a6092b906a8 -->
<g id="edge8" class="edge">
<title>dir_d9d7fab038fcca5270fe0241ec433d4d&#45;&gt;dir_31d7c48772b4fae367539a6092b906a8</title>
<path fill="none" stroke="black" d="M645,-167.7C645,-159.98 645,-150.71 645,-142.11"/>
<polygon fill="black" stroke="black" points="648.5,-142.1 645,-132.1 641.5,-142.1 648.5,-142.1"/>
<g id="a_edge8&#45;headlabel"><a xlink:href="dir_000020_000018.html" target="_top" xlink:title="2">
<text text-anchor="middle" x="651.34" y="-143.2" font-family="Helvetica,sans-Serif" font-size="10.00">2</text>
</a>
</g>
</g>
<!-- dir_fc403fdb7d4f9d9b203e31bf1b8a15f4 -->
<g id="node8" class="node">
<title>dir_fc403fdb7d4f9d9b203e31bf1b8a15f4</title>
<g id="a_node8"><a xlink:href="dir_fc403fdb7d4f9d9b203e31bf1b8a15f4.html" target="_top" xlink:title="materials">
<polygon fill="#c1cde4" stroke="#404040" points="599.5,-132 536.5,-132 536.5,-96 599.5,-96 599.5,-132"/>
<text text-anchor="middle" x="568" y="-111.5" font-family="Helvetica,sans-Serif" font-size="10.00">materials</text>
</a>
</g>
</g>
<!-- dir_d9d7fab038fcca5270fe0241ec433d4d&#45;&gt;dir_fc403fdb7d4f9d9b203e31bf1b8a15f4 -->
<g id="edge11" class="edge">
<title>dir_d9d7fab038fcca5270fe0241ec433d4d&#45;&gt;dir_fc403fdb7d4f9d9b203e31bf1b8a15f4</title>
<path fill="none" stroke="black" d="M625.97,-167.7C616.46,-159.05 604.79,-148.45 594.43,-139.03"/>
<polygon fill="black" stroke="black" points="596.57,-136.24 586.81,-132.1 591.86,-141.42 596.57,-136.24"/>
<g id="a_edge11&#45;headlabel"><a xlink:href="dir_000020_000019.html" target="_top" xlink:title="6">
<text text-anchor="middle" x="601.14" y="-134.06" font-family="Helvetica,sans-Serif" font-size="10.00">6</text>
</a>
</g>
</g>
<!-- dir_d9d7fab038fcca5270fe0241ec433d4d&#45;&gt;dir_36505a9bfb81f81ed7a4e794d4cf597e -->
<g id="edge9" class="edge">
<title>dir_d9d7fab038fcca5270fe0241ec433d4d&#45;&gt;dir_36505a9bfb81f81ed7a4e794d4cf597e</title>
<path fill="none" stroke="black" d="M679.7,-169.05C710.45,-154.75 750.83,-135.49 753,-132 765.22,-112.39 767.88,-97.68 753,-80 730.81,-53.65 631.27,-46.06 576.11,-43.88"/>
<polygon fill="black" stroke="black" points="576.15,-40.38 566.03,-43.52 575.9,-47.38 576.15,-40.38"/>
<g id="a_edge9&#45;headlabel"><a xlink:href="dir_000020_000027.html" target="_top" xlink:title="17">
<text text-anchor="middle" x="579.84" y="-35.17" font-family="Helvetica,sans-Serif" font-size="10.00">17</text>
</a>
</g>
</g>
<!-- dir_8255788c45776b878bdf90a74000e4e1&#45;&gt;dir_36505a9bfb81f81ed7a4e794d4cf597e -->
<g id="edge12" class="edge">
<title>dir_8255788c45776b878bdf90a74000e4e1&#45;&gt;dir_36505a9bfb81f81ed7a4e794d4cf597e</title>
<path fill="none" stroke="black" d="M701.48,-95.69C695.57,-89.98 688.45,-84.05 681,-80 647.97,-62.02 605.83,-52.48 576.06,-47.62"/>
<polygon fill="black" stroke="black" points="576.49,-44.14 566.08,-46.08 575.43,-51.06 576.49,-44.14"/>
<g id="a_edge12&#45;headlabel"><a xlink:href="dir_000009_000027.html" target="_top" xlink:title="2">
<text text-anchor="middle" x="580.47" y="-39.38" font-family="Helvetica,sans-Serif" font-size="10.00">2</text>
</a>
</g>
</g>
<!-- dir_31d7c48772b4fae367539a6092b906a8&#45;&gt;dir_36505a9bfb81f81ed7a4e794d4cf597e -->
<g id="edge13" class="edge">
<title>dir_31d7c48772b4fae367539a6092b906a8&#45;&gt;dir_36505a9bfb81f81ed7a4e794d4cf597e</title>
<path fill="none" stroke="black" d="M627.64,-95.99C621.67,-90.56 614.77,-84.74 608,-80 597.73,-72.82 585.91,-66.01 574.99,-60.24"/>
<polygon fill="black" stroke="black" points="576.57,-57.12 566.08,-55.65 573.36,-63.34 576.57,-57.12"/>
<g id="a_edge13&#45;headlabel"><a xlink:href="dir_000018_000027.html" target="_top" xlink:title="2">
<text text-anchor="middle" x="581.06" y="-53.74" font-family="Helvetica,sans-Serif" font-size="10.00">2</text>
</a>
</g>
</g>
<!-- dir_fc403fdb7d4f9d9b203e31bf1b8a15f4&#45;&gt;dir_bf30182dc97724dc8c2a6cdd4c321688 -->
<g id="edge15" class="edge">
<title>dir_fc403fdb7d4f9d9b203e31bf1b8a15f4&#45;&gt;dir_bf30182dc97724dc8c2a6cdd4c321688</title>
<path fill="none" stroke="black" d="M536.42,-130.6C534.94,-131.11 533.46,-131.58 532,-132 403.03,-168.94 361.36,-140.98 225.97,-168.05"/>
<polygon fill="black" stroke="black" points="225.14,-164.65 216.05,-170.1 226.55,-171.5 225.14,-164.65"/>
<g id="a_edge15&#45;headlabel"><a xlink:href="dir_000019_000021.html" target="_top" xlink:title="2">
<text text-anchor="middle" x="228.08" y="-158.64" font-family="Helvetica,sans-Serif" font-size="10.00">2</text>
</a>
</g>
</g>
<!-- dir_fc403fdb7d4f9d9b203e31bf1b8a15f4&#45;&gt;dir_36505a9bfb81f81ed7a4e794d4cf597e -->
<g id="edge14" class="edge">
<title>dir_fc403fdb7d4f9d9b203e31bf1b8a15f4&#45;&gt;dir_36505a9bfb81f81ed7a4e794d4cf597e</title>
<path fill="none" stroke="black" d="M560.83,-95.7C557.57,-87.81 553.63,-78.3 550,-69.55"/>
<polygon fill="black" stroke="black" points="553.15,-68 546.09,-60.1 546.68,-70.68 553.15,-68"/>
<g id="a_edge14&#45;headlabel"><a xlink:href="dir_000019_000027.html" target="_top" xlink:title="8">
<text text-anchor="middle" x="557.15" y="-67.74" font-family="Helvetica,sans-Serif" font-size="10.00">8</text>
</a>
</g>
</g>
<!-- dir_cd0257e5a0a5e21e0bd17a30fdd07a18 -->
<g id="node9" class="node">
<title>dir_cd0257e5a0a5e21e0bd17a30fdd07a18</title>
<g id="a_node9"><a xlink:href="dir_cd0257e5a0a5e21e0bd17a30fdd07a18.html" target="_top" xlink:title="io">
<polygon fill="#dfe5f1" stroke="#404040" points="888,-276 834,-276 834,-240 888,-240 888,-276"/>
<text text-anchor="middle" x="861" y="-255.5" font-family="Helvetica,sans-Serif" font-size="10.00">io</text>
</a>
</g>
</g>
<!-- dir_cd0257e5a0a5e21e0bd17a30fdd07a18&#45;&gt;dir_f5e28093cb075fb92f2345f7d8607df6 -->
<g id="edge17" class="edge">
<title>dir_cd0257e5a0a5e21e0bd17a30fdd07a18&#45;&gt;dir_f5e28093cb075fb92f2345f7d8607df6</title>
<path fill="none" stroke="black" d="M846.91,-239.7C840.08,-231.3 831.74,-221.07 824.24,-211.86"/>
<polygon fill="black" stroke="black" points="826.96,-209.65 817.93,-204.1 821.53,-214.07 826.96,-209.65"/>
<g id="a_edge17&#45;headlabel"><a xlink:href="dir_000015_000011.html" target="_top" xlink:title="1">
<text text-anchor="middle" x="831.43" y="-208.14" font-family="Helvetica,sans-Serif" font-size="10.00">1</text>
</a>
</g>
</g>
<!-- dir_cd0257e5a0a5e21e0bd17a30fdd07a18&#45;&gt;dir_36505a9bfb81f81ed7a4e794d4cf597e -->
<g id="edge16" class="edge">
<title>dir_cd0257e5a0a5e21e0bd17a30fdd07a18&#45;&gt;dir_36505a9bfb81f81ed7a4e794d4cf597e</title>
<path fill="none" stroke="black" d="M868.59,-239.79C882.73,-204.82 908.17,-124.94 868,-80 848.83,-58.55 658.39,-48.02 576.32,-44.45"/>
<polygon fill="black" stroke="black" points="576.31,-40.95 566.17,-44.02 576.02,-47.94 576.31,-40.95"/>
<g id="a_edge16&#45;headlabel"><a xlink:href="dir_000015_000027.html" target="_top" xlink:title="1">
<text text-anchor="middle" x="580.02" y="-35.76" font-family="Helvetica,sans-Serif" font-size="10.00">1</text>
</a>
</g>
</g>
<!-- dir_097a0db622079e3c719566efcc9bbfe3 -->
<g id="node10" class="node">
<title>dir_097a0db622079e3c719566efcc9bbfe3</title>
<g id="a_node10"><a xlink:href="dir_097a0db622079e3c719566efcc9bbfe3.html" target="_top" xlink:title="linearalgebra">
<polygon fill="#dfe5f1" stroke="#404040" points="385.5,-132 304.5,-132 304.5,-96 385.5,-96 385.5,-132"/>
<text text-anchor="middle" x="345" y="-111.5" font-family="Helvetica,sans-Serif" font-size="10.00">linearalgebra</text>
</a>
</g>
</g>
<!-- dir_6063e92d97cad5a47908d6a96069b24d -->
<g id="node11" class="node">
<title>dir_6063e92d97cad5a47908d6a96069b24d</title>
<text text-anchor="middle" x="717" y="-255.5" font-family="Helvetica,sans-Serif" font-size="10.00">python</text>
</g>
<!-- dir_2eacd46bb6575c3620b10a673993bd91 -->
<g id="node12" class="node">
<title>dir_2eacd46bb6575c3620b10a673993bd91</title>
<g id="a_node12"><a xlink:href="dir_2eacd46bb6575c3620b10a673993bd91.html" target="_top" xlink:title="assembler">
<polygon fill="#d0d9ea" stroke="#404040" points="315,-276 247,-276 247,-240 315,-240 315,-276"/>
<text text-anchor="middle" x="281" y="-255.5" font-family="Helvetica,sans-Serif" font-size="10.00">assembler</text>
</a>
</g>
</g>
<!-- dir_2eacd46bb6575c3620b10a673993bd91&#45;&gt;dir_b4e169eb0efbd955079f9a2ee34b7226 -->
<g id="edge19" class="edge">
<title>dir_2eacd46bb6575c3620b10a673993bd91&#45;&gt;dir_b4e169eb0efbd955079f9a2ee34b7226</title>
<path fill="none" stroke="black" d="M299.94,-239.87C327.76,-214.71 379.78,-167.65 411.42,-139.04"/>
<polygon fill="black" stroke="black" points="413.93,-141.49 418.99,-132.19 409.23,-136.3 413.93,-141.49"/>
<g id="a_edge19&#45;headlabel"><a xlink:href="dir_000001_000000.html" target="_top" xlink:title="1">
<text text-anchor="middle" x="413.16" y="-143.51" font-family="Helvetica,sans-Serif" font-size="10.00">1</text>
</a>
</g>
</g>
<!-- dir_2eacd46bb6575c3620b10a673993bd91&#45;&gt;dir_f5e28093cb075fb92f2345f7d8607df6 -->
<g id="edge20" class="edge">
<title>dir_2eacd46bb6575c3620b10a673993bd91&#45;&gt;dir_f5e28093cb075fb92f2345f7d8607df6</title>
<path fill="none" stroke="black" d="M305.52,-239.97C311.33,-236.73 317.69,-233.8 324,-232 416.37,-205.72 664.69,-249.76 756,-220 762.85,-217.77 769.6,-214.22 775.78,-210.27"/>
<polygon fill="black" stroke="black" points="778.16,-212.88 784.37,-204.29 774.16,-207.13 778.16,-212.88"/>
<g id="a_edge20&#45;headlabel"><a xlink:href="dir_000001_000011.html" target="_top" xlink:title="1">
<text text-anchor="middle" x="776.84" y="-214.76" font-family="Helvetica,sans-Serif" font-size="10.00">1</text>
</a>
</g>
</g>
<!-- dir_2eacd46bb6575c3620b10a673993bd91&#45;&gt;dir_36505a9bfb81f81ed7a4e794d4cf597e -->
<g id="edge18" class="edge">
<title>dir_2eacd46bb6575c3620b10a673993bd91&#45;&gt;dir_36505a9bfb81f81ed7a4e794d4cf597e</title>
<path fill="none" stroke="black" d="M306.04,-239.93C311.73,-236.78 317.9,-233.89 324,-232 358.48,-221.32 459.04,-244 486,-220 503.58,-204.35 491.29,-191.06 496,-168 504,-128.8 499.64,-116.95 515,-80 516.54,-76.29 518.46,-72.54 520.54,-68.93"/>
<polygon fill="black" stroke="black" points="523.58,-70.68 525.9,-60.34 517.64,-66.97 523.58,-70.68"/>
<g id="a_edge18&#45;headlabel"><a xlink:href="dir_000001_000027.html" target="_top" xlink:title="1">
<text text-anchor="middle" x="524.08" y="-72.73" font-family="Helvetica,sans-Serif" font-size="10.00">1</text>
</a>
</g>
</g>
<!-- dir_58d0c8a3c72390da3e9fe9328fead302 -->
<g id="node13" class="node">
<title>dir_58d0c8a3c72390da3e9fe9328fead302</title>
<g id="a_node13"><a xlink:href="dir_58d0c8a3c72390da3e9fe9328fead302.html" target="_top" xlink:title="basis">
<polygon fill="#d0d9ea" stroke="#404040" points="387,-276 333,-276 333,-240 387,-240 387,-276"/>
<text text-anchor="middle" x="360" y="-255.5" font-family="Helvetica,sans-Serif" font-size="10.00">basis</text>
</a>
</g>
</g>
<!-- dir_58d0c8a3c72390da3e9fe9328fead302&#45;&gt;dir_f5e28093cb075fb92f2345f7d8607df6 -->
<g id="edge22" class="edge">
<title>dir_58d0c8a3c72390da3e9fe9328fead302&#45;&gt;dir_f5e28093cb075fb92f2345f7d8607df6</title>
<path fill="none" stroke="black" d="M380.61,-239.75C385.39,-236.61 390.66,-233.77 396,-232 471.98,-206.81 679.96,-245.01 756,-220 762.84,-217.75 769.59,-214.2 775.77,-210.24"/>
<polygon fill="black" stroke="black" points="778.15,-212.85 784.36,-204.26 774.15,-207.1 778.15,-212.85"/>
<g id="a_edge22&#45;headlabel"><a xlink:href="dir_000003_000011.html" target="_top" xlink:title="1">
<text text-anchor="middle" x="776.83" y="-214.73" font-family="Helvetica,sans-Serif" font-size="10.00">1</text>
</a>
</g>
</g>
<!-- dir_58d0c8a3c72390da3e9fe9328fead302&#45;&gt;dir_36505a9bfb81f81ed7a4e794d4cf597e -->
<g id="edge21" class="edge">
<title>dir_58d0c8a3c72390da3e9fe9328fead302&#45;&gt;dir_36505a9bfb81f81ed7a4e794d4cf597e</title>
<path fill="none" stroke="black" d="M381.12,-239.84C385.79,-236.78 390.88,-233.95 396,-232 416.92,-224.05 479.57,-235.2 496,-220 542.58,-176.91 505.78,-140.78 524,-80 525.03,-76.58 526.25,-73.03 527.54,-69.55"/>
<polygon fill="black" stroke="black" points="530.87,-70.66 531.3,-60.08 524.36,-68.09 530.87,-70.66"/>
<g id="a_edge21&#45;headlabel"><a xlink:href="dir_000003_000027.html" target="_top" xlink:title="1">
<text text-anchor="middle" x="532.18" y="-72.55" font-family="Helvetica,sans-Serif" font-size="10.00">1</text>
</a>
</g>
</g>
<!-- dir_10d62307decb192620fe32f94ec04635 -->
<g id="node14" class="node">
<title>dir_10d62307decb192620fe32f94ec04635</title>
<g id="a_node14"><a xlink:href="dir_10d62307decb192620fe32f94ec04635.html" target="_top" xlink:title="dirichletvalues">
<polygon fill="#d0d9ea" stroke="#404040" points="566.5,-276 477.5,-276 477.5,-240 566.5,-240 566.5,-276"/>
<text text-anchor="middle" x="522" y="-255.5" font-family="Helvetica,sans-Serif" font-size="10.00">dirichletvalues</text>
</a>
</g>
</g>
<!-- dir_10d62307decb192620fe32f94ec04635&#45;&gt;dir_f5e28093cb075fb92f2345f7d8607df6 -->
<g id="edge23" class="edge">
<title>dir_10d62307decb192620fe32f94ec04635&#45;&gt;dir_f5e28093cb075fb92f2345f7d8607df6</title>
<path fill="none" stroke="black" d="M553.22,-239.92C560.21,-236.77 567.71,-233.89 575,-232 653.04,-211.78 679.84,-246.45 756,-220 762.8,-217.64 769.54,-214.04 775.71,-210.07"/>
<polygon fill="black" stroke="black" points="778.09,-212.67 784.3,-204.09 774.1,-206.93 778.09,-212.67"/>
<g id="a_edge23&#45;headlabel"><a xlink:href="dir_000005_000011.html" target="_top" xlink:title="1">
<text text-anchor="middle" x="776.76" y="-214.56" font-family="Helvetica,sans-Serif" font-size="10.00">1</text>
</a>
</g>
</g>
<!-- dir_3f77d910b8992c2715464d60b82eb4e5 -->
<g id="node15" class="node">
<title>dir_3f77d910b8992c2715464d60b82eb4e5</title>
<g id="a_node15"><a xlink:href="dir_3f77d910b8992c2715464d60b82eb4e5.html" target="_top" xlink:title="finiteelements">
<polygon fill="#d0d9ea" stroke="#404040" points="671.5,-276 584.5,-276 584.5,-240 671.5,-240 671.5,-276"/>
<text text-anchor="middle" x="628" y="-255.5" font-family="Helvetica,sans-Serif" font-size="10.00">finiteelements</text>
</a>
</g>
</g>
<!-- dir_3f77d910b8992c2715464d60b82eb4e5&#45;&gt;dir_f5e28093cb075fb92f2345f7d8607df6 -->
<g id="edge26" class="edge">
<title>dir_3f77d910b8992c2715464d60b82eb4e5&#45;&gt;dir_f5e28093cb075fb92f2345f7d8607df6</title>
<path fill="none" stroke="black" d="M660.5,-239.92C667.15,-236.92 674.2,-234.1 681,-232 713.25,-222.03 724.66,-232.54 756,-220 762.43,-217.43 768.86,-213.87 774.83,-210.03"/>
<polygon fill="black" stroke="black" points="776.92,-212.84 783.19,-204.3 772.96,-207.07 776.92,-212.84"/>
<g id="a_edge26&#45;headlabel"><a xlink:href="dir_000012_000011.html" target="_top" xlink:title="2">
<text text-anchor="middle" x="775.56" y="-214.72" font-family="Helvetica,sans-Serif" font-size="10.00">2</text>
</a>
</g>
</g>
<!-- dir_3f77d910b8992c2715464d60b82eb4e5&#45;&gt;dir_d9d7fab038fcca5270fe0241ec433d4d -->
<g id="edge25" class="edge">
<title>dir_3f77d910b8992c2715464d60b82eb4e5&#45;&gt;dir_d9d7fab038fcca5270fe0241ec433d4d</title>
<path fill="none" stroke="black" d="M632.2,-239.7C634.1,-231.9 636.38,-222.51 638.48,-213.83"/>
<polygon fill="black" stroke="black" points="641.89,-214.65 640.85,-204.1 635.08,-213 641.89,-214.65"/>
<g id="a_edge25&#45;headlabel"><a xlink:href="dir_000012_000020.html" target="_top" xlink:title="1">
<text text-anchor="middle" x="643.8" y="-216.31" font-family="Helvetica,sans-Serif" font-size="10.00">1</text>
</a>
</g>
</g>
<!-- dir_3f77d910b8992c2715464d60b82eb4e5&#45;&gt;dir_36505a9bfb81f81ed7a4e794d4cf597e -->
<g id="edge24" class="edge">
<title>dir_3f77d910b8992c2715464d60b82eb4e5&#45;&gt;dir_36505a9bfb81f81ed7a4e794d4cf597e</title>
<path fill="none" stroke="black" d="M659.23,-239.93C666.21,-236.78 673.71,-233.89 681,-232 700.29,-226.99 846.38,-234.56 860,-220 870.63,-208.64 870.35,-91.61 860,-80 841.38,-59.11 656.76,-48.31 576.24,-44.56"/>
<polygon fill="black" stroke="black" points="576.19,-41.05 566.04,-44.09 575.87,-48.04 576.19,-41.05"/>
<g id="a_edge24&#45;headlabel"><a xlink:href="dir_000012_000027.html" target="_top" xlink:title="1">
<text text-anchor="middle" x="579.91" y="-35.88" font-family="Helvetica,sans-Serif" font-size="10.00">1</text>
</a>
</g>
</g>
<!-- dir_afe0d1ab0c4a41ee8553ea61e92b67bf -->
<g id="node16" class="node">
<title>dir_afe0d1ab0c4a41ee8553ea61e92b67bf</title>
<g id="a_node16"><a xlink:href="dir_afe0d1ab0c4a41ee8553ea61e92b67bf.html" target="_top" xlink:title="utils">
<polygon fill="#d0d9ea" stroke="#404040" points="459,-276 405,-276 405,-240 459,-240 459,-276"/>
<text text-anchor="middle" x="432" y="-255.5" font-family="Helvetica,sans-Serif" font-size="10.00">utils</text>
</a>
</g>
</g>
<!-- dir_afe0d1ab0c4a41ee8553ea61e92b67bf&#45;&gt;dir_f5e28093cb075fb92f2345f7d8607df6 -->
<g id="edge27" class="edge">
<title>dir_afe0d1ab0c4a41ee8553ea61e92b67bf&#45;&gt;dir_f5e28093cb075fb92f2345f7d8607df6</title>
<path fill="none" stroke="black" d="M452.62,-239.78C457.4,-236.64 462.66,-233.79 468,-232 528.72,-211.59 695.24,-240.27 756,-220 762.83,-217.72 769.58,-214.16 775.76,-210.2"/>
<polygon fill="black" stroke="black" points="778.14,-212.8 784.35,-204.22 774.14,-207.06 778.14,-212.8"/>
<g id="a_edge27&#45;headlabel"><a xlink:href="dir_000026_000011.html" target="_top" xlink:title="1">
<text text-anchor="middle" x="776.81" y="-214.69" font-family="Helvetica,sans-Serif" font-size="10.00">1</text>
</a>
</g>
</g>
<!-- dir_26588bed129c997bc132e8888f2113fa -->
<g id="node17" class="node">
<title>dir_26588bed129c997bc132e8888f2113fa</title>
<text text-anchor="middle" x="261" y="-183.5" font-family="Helvetica,sans-Serif" font-size="10.00">solver</text>
</g>
<!-- dir_bcdbbdf4d2b6b627956abd47159b4d71&#45;&gt;dir_36505a9bfb81f81ed7a4e794d4cf597e -->
<g id="edge28" class="edge">
<title>dir_bcdbbdf4d2b6b627956abd47159b4d71&#45;&gt;dir_36505a9bfb81f81ed7a4e794d4cf597e</title>
<path fill="none" stroke="black" d="M207.36,-98.03C225.89,-91.29 248.8,-83.97 270,-80 320.96,-70.46 453.94,-84.76 503,-68 505.16,-67.26 507.32,-66.35 509.43,-65.32"/>
<polygon fill="black" stroke="black" points="511.44,-68.2 518.36,-60.18 507.95,-62.13 511.44,-68.2"/>
<g id="a_edge28&#45;headlabel"><a xlink:href="dir_000017_000027.html" target="_top" xlink:title="1">
<text text-anchor="middle" x="509.74" y="-69.95" font-family="Helvetica,sans-Serif" font-size="10.00">1</text>
</a>
</g>
</g>
<!-- dir_bf30182dc97724dc8c2a6cdd4c321688&#45;&gt;dir_b4e169eb0efbd955079f9a2ee34b7226 -->
<g id="edge33" class="edge">
<title>dir_bf30182dc97724dc8c2a6cdd4c321688&#45;&gt;dir_b4e169eb0efbd955079f9a2ee34b7226</title>
<path fill="none" stroke="black" d="M216.13,-170.41C219.12,-169.57 222.1,-168.76 225,-168 299.32,-148.64 320.39,-153.91 394,-132 394.1,-131.97 394.2,-131.94 394.29,-131.91"/>
<polygon fill="black" stroke="black" points="395.16,-135.31 403.59,-128.89 393,-128.65 395.16,-135.31"/>
<g id="a_edge33&#45;headlabel"><a xlink:href="dir_000021_000000.html" target="_top" xlink:title="2">
<text text-anchor="middle" x="392.62" y="-136.62" font-family="Helvetica,sans-Serif" font-size="10.00">2</text>
</a>
</g>
</g>
<!-- dir_bf30182dc97724dc8c2a6cdd4c321688&#45;&gt;dir_a97b071c9c6f7bcc51f4d0bc7519f177 -->
<g id="edge32" class="edge">
<title>dir_bf30182dc97724dc8c2a6cdd4c321688&#45;&gt;dir_a97b071c9c6f7bcc51f4d0bc7519f177</title>
<path fill="none" stroke="black" d="M123.6,-186C121.14,-186 118.68,-186 116.23,-186"/>
<polygon fill="black" stroke="black" points="116.13,-182.5 106.13,-186 116.13,-189.5 116.13,-182.5"/>
<g id="a_edge32&#45;headlabel"><a xlink:href="dir_000021_000004.html" target="_top" xlink:title="1">
<text text-anchor="middle" x="119.73" y="-177.16" font-family="Helvetica,sans-Serif" font-size="10.00">1</text>
</a>
</g>
</g>
<!-- dir_bf30182dc97724dc8c2a6cdd4c321688&#45;&gt;dir_097a0db622079e3c719566efcc9bbfe3 -->
<g id="edge29" class="edge">
<title>dir_bf30182dc97724dc8c2a6cdd4c321688&#45;&gt;dir_097a0db622079e3c719566efcc9bbfe3</title>
<path fill="none" stroke="black" d="M212.81,-167.88C237.68,-157.93 269.14,-145.34 295.13,-134.95"/>
<polygon fill="black" stroke="black" points="296.45,-138.19 304.44,-131.23 293.85,-131.69 296.45,-138.19"/>
<g id="a_edge29&#45;headlabel"><a xlink:href="dir_000021_000016.html" target="_top" xlink:title="1">
<text text-anchor="middle" x="294.17" y="-139.66" font-family="Helvetica,sans-Serif" font-size="10.00">1</text>
</a>
</g>
</g>
<!-- dir_bf30182dc97724dc8c2a6cdd4c321688&#45;&gt;dir_bcdbbdf4d2b6b627956abd47159b4d71 -->
<g id="edge34" class="edge">
<title>dir_bf30182dc97724dc8c2a6cdd4c321688&#45;&gt;dir_bcdbbdf4d2b6b627956abd47159b4d71</title>
<path fill="none" stroke="black" d="M170,-167.7C170,-159.98 170,-150.71 170,-142.11"/>
<polygon fill="black" stroke="black" points="173.5,-142.1 170,-132.1 166.5,-142.1 173.5,-142.1"/>
<g id="a_edge34&#45;headlabel"><a xlink:href="dir_000021_000017.html" target="_top" xlink:title="1">
<text text-anchor="middle" x="176.34" y="-143.2" font-family="Helvetica,sans-Serif" font-size="10.00">1</text>
</a>
</g>
</g>
<!-- dir_bf30182dc97724dc8c2a6cdd4c321688&#45;&gt;dir_36505a9bfb81f81ed7a4e794d4cf597e -->
<g id="edge30" class="edge">
<title>dir_bf30182dc97724dc8c2a6cdd4c321688&#45;&gt;dir_36505a9bfb81f81ed7a4e794d4cf597e</title>
<path fill="none" stroke="black" d="M203.85,-167.82C219.53,-158.69 237.6,-146.39 251,-132 269.04,-112.64 257.55,-94.01 280,-80 322.1,-53.73 456.06,-84.1 503,-68 505.16,-67.26 507.32,-66.35 509.43,-65.31"/>
<polygon fill="black" stroke="black" points="511.44,-68.19 518.36,-60.17 507.95,-62.13 511.44,-68.19"/>
<g id="a_edge30&#45;headlabel"><a xlink:href="dir_000021_000027.html" target="_top" xlink:title="15">
<text text-anchor="middle" x="509.74" y="-69.95" font-family="Helvetica,sans-Serif" font-size="10.00">15</text>
</a>
</g>
</g>
<!-- dir_bf30182dc97724dc8c2a6cdd4c321688&#45;&gt;dir_8f2573d1a9c53251c08257bad1a27fd3 -->
<g id="edge31" class="edge">
<title>dir_bf30182dc97724dc8c2a6cdd4c321688&#45;&gt;dir_8f2573d1a9c53251c08257bad1a27fd3</title>
<path fill="none" stroke="black" d="M185.7,-167.58C211.25,-139.37 259.99,-86.2 270,-80 294.57,-64.79 325.87,-55.41 350.34,-49.9"/>
<polygon fill="black" stroke="black" points="351.32,-53.27 360.38,-47.77 349.87,-46.42 351.32,-53.27"/>
<g id="a_edge31&#45;headlabel"><a xlink:href="dir_000021_000022.html" target="_top" xlink:title="6">
<text text-anchor="middle" x="348.39" y="-54.29" font-family="Helvetica,sans-Serif" font-size="10.00">6</text>
</a>
</g>
</g>
<!-- dir_36505a9bfb81f81ed7a4e794d4cf597e&#45;&gt;dir_b4e169eb0efbd955079f9a2ee34b7226 -->
<g id="edge35" class="edge">
<title>dir_36505a9bfb81f81ed7a4e794d4cf597e&#45;&gt;dir_b4e169eb0efbd955079f9a2ee34b7226</title>
<path fill="none" stroke="black" d="M511.71,-55.98C505.75,-59.85 499.63,-64.1 494,-68 483.71,-75.14 472.49,-82.91 462.73,-89.95"/>
<polygon fill="black" stroke="black" points="460.58,-87.18 454.58,-95.91 464.72,-92.83 460.58,-87.18"/>
<g id="a_edge35&#45;headlabel"><a xlink:href="dir_000027_000000.html" target="_top" xlink:title="2">
<text text-anchor="middle" x="461.8" y="-80.27" font-family="Helvetica,sans-Serif" font-size="10.00">2</text>
</a>
</g>
</g>
<!-- dir_36505a9bfb81f81ed7a4e794d4cf597e&#45;&gt;dir_f5e28093cb075fb92f2345f7d8607df6 -->
<g id="edge36" class="edge">
<title>dir_36505a9bfb81f81ed7a4e794d4cf597e&#45;&gt;dir_f5e28093cb075fb92f2345f7d8607df6</title>
<path fill="none" stroke="black" d="M566.01,-44.18C618.8,-47 733.14,-55.8 763,-80 769.39,-85.18 785.08,-128.87 795.09,-158.23"/>
<polygon fill="black" stroke="black" points="791.85,-159.58 798.37,-167.94 798.48,-157.34 791.85,-159.58"/>
<g id="a_edge36&#45;headlabel"><a xlink:href="dir_000027_000011.html" target="_top" xlink:title="1">
<text text-anchor="middle" x="788.01" y="-154.59" font-family="Helvetica,sans-Serif" font-size="10.00">1</text>
</a>
</g>
</g>
<!-- dir_d45ffc48cf12df7e348ec0b798d36815 -->
<g id="node21" class="node">
<title>dir_d45ffc48cf12df7e348ec0b798d36815</title>
<g id="a_node21"><a xlink:href="dir_d45ffc48cf12df7e348ec0b798d36815.html" target="_top" xlink:title="drawing">
<polygon fill="#d0d9ea" stroke="#404040" points="494,-60 438,-60 438,-24 494,-24 494,-60"/>
<text text-anchor="middle" x="466" y="-39.5" font-family="Helvetica,sans-Serif" font-size="10.00">drawing</text>
</a>
</g>
</g>
</g>
</svg>
