<?xml version="1.0" encoding="UTF-8" standalone="no"?>
<!DOCTYPE svg PUBLIC "-//W3C//DTD SVG 1.1//EN"
 "http://www.w3.org/Graphics/SVG/1.1/DTD/svg11.dtd">
<!-- Generated by graphviz version 2.43.0 (0)
 -->
<!-- Title: Ikarus::NewtonRaphsonWithSubsidiaryFunction&lt; NonLinearOperatorImpl, LinearSolver, UpdateFunctionTypeImpl &gt; Pages: 1 -->
<svg width="285pt" height="196pt"
 viewBox="0.00 0.00 284.50 196.00" xmlns="http://www.w3.org/2000/svg" xmlns:xlink="http://www.w3.org/1999/xlink">
<g id="graph0" class="graph" transform="scale(1 1) rotate(0) translate(4 192)">
<title>Ikarus::NewtonRaphsonWithSubsidiaryFunction&lt; NonLinearOperatorImpl, LinearSolver, UpdateFunctionTypeImpl &gt;</title>
<polygon fill="white" stroke="transparent" points="-4,4 -4,-192 280.5,-192 280.5,4 -4,4"/>
<!-- Node1 -->
<g id="node1" class="node">
<title>Node1</title>
<g id="a_node1"><a xlink:title="Newton&#45;Raphson solver with subsidiary function.">
<polygon fill="#bfbfbf" stroke="black" points="0,-0.5 0,-41.5 243,-41.5 243,-0.5 0,-0.5"/>
<text text-anchor="start" x="8" y="-29.5" font-family="Helvetica,sans-Serif" font-size="10.00">Ikarus::NewtonRaphsonWith</text>
<text text-anchor="start" x="8" y="-18.5" font-family="Helvetica,sans-Serif" font-size="10.00">SubsidiaryFunction&lt; NonLinearOperator</text>
<text text-anchor="middle" x="121.5" y="-7.5" font-family="Helvetica,sans-Serif" font-size="10.00">Impl, LinearSolver, UpdateFunctionTypeImpl &gt;</text>
</a>
</g>
</g>
<!-- Node2 -->
<g id="node2" class="node">
<title>Node2</title>
<g id="a_node2"><a xlink:href="../../dd/dba/a01545.html" target="_top" xlink:title=" ">
<polygon fill="white" stroke="black" points="37.5,-79.5 37.5,-109.5 205.5,-109.5 205.5,-79.5 37.5,-79.5"/>
<text text-anchor="start" x="45.5" y="-97.5" font-family="Helvetica,sans-Serif" font-size="10.00">Ikarus::IObservable</text>
<text text-anchor="middle" x="121.5" y="-86.5" font-family="Helvetica,sans-Serif" font-size="10.00">&lt; NonLinearSolverMessages &gt;</text>
</a>
</g>
</g>
<!-- Node2&#45;&gt;Node1 -->
<g id="edge1" class="edge">
<title>Node2&#45;&gt;Node1</title>
<path fill="none" stroke="midnightblue" d="M121.5,-69.1C121.5,-60.1 121.5,-50.02 121.5,-41.51"/>
<polygon fill="midnightblue" stroke="midnightblue" points="118,-69.37 121.5,-79.37 125,-69.37 118,-69.37"/>
</g>
<!-- Node3 -->
<g id="node3" class="node">
<title>Node3</title>
<g id="a_node3"><a xlink:href="../../dd/dba/a01545.html" target="_top" xlink:title="Generic observable interface for the Observer design pattern. See &#160;for a description of the design pa...">
<polygon fill="white" stroke="black" points="66.5,-157.5 66.5,-187.5 176.5,-187.5 176.5,-157.5 66.5,-157.5"/>
<text text-anchor="start" x="74.5" y="-175.5" font-family="Helvetica,sans-Serif" font-size="10.00">Ikarus::IObservable</text>
<text text-anchor="middle" x="121.5" y="-164.5" font-family="Helvetica,sans-Serif" font-size="10.00">&lt; MessageType &gt;</text>
</a>
</g>
</g>
<!-- Node3&#45;&gt;Node2 -->
<g id="edge2" class="edge">
<title>Node3&#45;&gt;Node2</title>
<path fill="none" stroke="orange" stroke-dasharray="5,2" d="M121.5,-147.09C121.5,-134.76 121.5,-120.22 121.5,-109.73"/>
<polygon fill="orange" stroke="orange" points="118,-147.2 121.5,-157.2 125,-147.21 118,-147.2"/>
<text text-anchor="middle" x="199" y="-131" font-family="Helvetica,sans-Serif" font-size="10.00"> &lt; NonLinearSolverMessages &gt;</text>
</g>
</g>
</svg>
