<?xml version="1.0" encoding="UTF-8" standalone="no"?>
<!DOCTYPE svg PUBLIC "-//W3C//DTD SVG 1.1//EN"
 "http://www.w3.org/Graphics/SVG/1.1/DTD/svg11.dtd">
<!-- Generated by graphviz version 2.43.0 (0)
 -->
<!-- Title: Ikarus::TrustRegion&lt; NonLinearOperatorImpl, preConditioner, UpdateFunctionTypeImpl &gt; Pages: 1 -->
<svg width="250pt" height="207pt"
 viewBox="0.00 0.00 250.00 207.00" xmlns="http://www.w3.org/2000/svg" xmlns:xlink="http://www.w3.org/1999/xlink">
<g id="graph0" class="graph" transform="scale(1 1) rotate(0) translate(4 203)">
<title>Ikarus::TrustRegion&lt; NonLinearOperatorImpl, preConditioner, UpdateFunctionTypeImpl &gt;</title>
<polygon fill="white" stroke="transparent" points="-4,4 -4,-203 246,-203 246,4 -4,4"/>
<!-- Node1 -->
<g id="node1" class="node">
<title>Node1</title>
<g id="a_node1"><a xlink:title="Trust Region solver for non&#45;linear optimization problems.">
<polygon fill="#bfbfbf" stroke="black" points="0,-0.5 0,-52.5 174,-52.5 174,-0.5 0,-0.5"/>
<text text-anchor="start" x="8" y="-40.5" font-family="Helvetica,sans-Serif" font-size="10.00">Ikarus::TrustRegion</text>
<text text-anchor="start" x="8" y="-29.5" font-family="Helvetica,sans-Serif" font-size="10.00">&lt; NonLinearOperatorImpl,</text>
<text text-anchor="start" x="8" y="-18.5" font-family="Helvetica,sans-Serif" font-size="10.00"> preConditioner, UpdateFunction</text>
<text text-anchor="middle" x="87" y="-7.5" font-family="Helvetica,sans-Serif" font-size="10.00">TypeImpl &gt;</text>
</a>
</g>
</g>
<!-- Node2 -->
<g id="node2" class="node">
<title>Node2</title>
<g id="a_node2"><a xlink:href="a01565.html" target="_top" xlink:title=" ">
<polygon fill="white" stroke="black" points="3,-90.5 3,-120.5 171,-120.5 171,-90.5 3,-90.5"/>
<text text-anchor="start" x="11" y="-108.5" font-family="Helvetica,sans-Serif" font-size="10.00">Ikarus::IObservable</text>
<text text-anchor="middle" x="87" y="-97.5" font-family="Helvetica,sans-Serif" font-size="10.00">&lt; NonLinearSolverMessages &gt;</text>
</a>
</g>
</g>
<!-- Node2&#45;&gt;Node1 -->
<g id="edge1" class="edge">
<title>Node2&#45;&gt;Node1</title>
<path fill="none" stroke="midnightblue" d="M87,-80.09C87,-71.38 87,-61.54 87,-52.75"/>
<polygon fill="midnightblue" stroke="midnightblue" points="83.5,-80.38 87,-90.38 90.5,-80.38 83.5,-80.38"/>
</g>
<!-- Node3 -->
<g id="node3" class="node">
<title>Node3</title>
<g id="a_node3"><a xlink:href="a01565.html" target="_top" xlink:title="Generic observable interface for the Observer design pattern. See &#160;for a description of the design pa...">
<polygon fill="white" stroke="black" points="32,-168.5 32,-198.5 142,-198.5 142,-168.5 32,-168.5"/>
<text text-anchor="start" x="40" y="-186.5" font-family="Helvetica,sans-Serif" font-size="10.00">Ikarus::IObservable</text>
<text text-anchor="middle" x="87" y="-175.5" font-family="Helvetica,sans-Serif" font-size="10.00">&lt; MessageType &gt;</text>
</a>
</g>
</g>
<!-- Node3&#45;&gt;Node2 -->
<g id="edge2" class="edge">
<title>Node3&#45;&gt;Node2</title>
<path fill="none" stroke="orange" stroke-dasharray="5,2" d="M87,-158.09C87,-145.76 87,-131.22 87,-120.73"/>
<polygon fill="orange" stroke="orange" points="83.5,-158.2 87,-168.2 90.5,-158.21 83.5,-158.2"/>
<text text-anchor="middle" x="164.5" y="-142" font-family="Helvetica,sans-Serif" font-size="10.00"> &lt; NonLinearSolverMessages &gt;</text>
</g>
</g>
</svg>
