<?xml version="1.0" encoding="UTF-8" standalone="no"?>
<!DOCTYPE svg PUBLIC "-//W3C//DTD SVG 1.1//EN"
 "http://www.w3.org/Graphics/SVG/1.1/DTD/svg11.dtd">
<!-- Generated by graphviz version 2.43.0 (0)
 -->
<!-- Title: python Pages: 1 -->
<svg width="634pt" height="183pt"
 viewBox="0.00 0.00 634.00 183.00" xmlns="http://www.w3.org/2000/svg" xmlns:xlink="http://www.w3.org/1999/xlink">
<g id="graph0" class="graph" transform="scale(1 1) rotate(0) translate(4 179)">
<title>python</title>
<polygon fill="white" stroke="transparent" points="-4,4 -4,-179 630,-179 630,4 -4,4"/>
<g id="clust1" class="cluster">
<title>clusterdir_5bec9ec6c6b8ab3f2f9d60d2ff21ed81</title>
<g id="a_clust1"><a xlink:href="dir_5bec9ec6c6b8ab3f2f9d60d2ff21ed81.html" target="_top" xlink:title="ikarus">
<polygon fill="#edf0f7" stroke="#404040" stroke-dasharray="5,2" points="8,-8 8,-167 618,-167 618,-8 8,-8"/>
<text text-anchor="middle" x="313" y="-155" font-family="Helvetica,sans-Serif" font-size="10.00">ikarus</text>
</a>
</g>
</g>
<g id="clust2" class="cluster">
<title>clusterdir_6063e92d97cad5a47908d6a96069b24d</title>
<g id="a_clust2"><a xlink:href="dir_6063e92d97cad5a47908d6a96069b24d.html" target="_top">
<polygon fill="#edf0f7" stroke="#404040" stroke-width="2" points="16,-72 16,-140 610,-140 610,-72 16,-72"/>
</a>
</g>
</g>
<g id="clust3" class="cluster">
<title>clusterdir_3f77d910b8992c2715464d60b82eb4e5</title>
<g id="a_clust3"><a xlink:href="dir_3f77d910b8992c2715464d60b82eb4e5.html" target="_top">
<polygon fill="#dfe5f1" stroke="#404040" points="102,-80 102,-132 287,-132 287,-80 102,-80"/>
</a>
</g>
</g>
<!-- dir_36505a9bfb81f81ed7a4e794d4cf597e -->
<g id="node1" class="node">
<title>dir_36505a9bfb81f81ed7a4e794d4cf597e</title>
<g id="a_node1"><a xlink:href="dir_36505a9bfb81f81ed7a4e794d4cf597e.html" target="_top" xlink:title="utils">
<polygon fill="#dfe5f1" stroke="red" points="171,-52 117,-52 117,-16 171,-16 171,-52"/>
<text text-anchor="middle" x="144" y="-31.5" font-family="Helvetica,sans-Serif" font-size="10.00">utils</text>
</a>
</g>
</g>
<!-- dir_f5e28093cb075fb92f2345f7d8607df6 -->
<g id="node2" class="node">
<title>dir_f5e28093cb075fb92f2345f7d8607df6</title>
<g id="a_node2"><a xlink:href="dir_f5e28093cb075fb92f2345f7d8607df6.html" target="_top" xlink:title="finiteelements">
<polygon fill="#dfe5f1" stroke="red" points="322.5,-52 235.5,-52 235.5,-16 322.5,-16 322.5,-52"/>
<text text-anchor="middle" x="279" y="-31.5" font-family="Helvetica,sans-Serif" font-size="10.00">finiteelements</text>
</a>
</g>
</g>
<!-- dir_6063e92d97cad5a47908d6a96069b24d -->
<g id="node3" class="node">
<title>dir_6063e92d97cad5a47908d6a96069b24d</title>
<text text-anchor="middle" x="468" y="-103.5" font-family="Helvetica,sans-Serif" font-size="10.00">python</text>
</g>
<!-- dir_2eacd46bb6575c3620b10a673993bd91 -->
<g id="node4" class="node">
<title>dir_2eacd46bb6575c3620b10a673993bd91</title>
<g id="a_node4"><a xlink:href="dir_2eacd46bb6575c3620b10a673993bd91.html" target="_top" xlink:title="assembler">
<polygon fill="#dfe5f1" stroke="#404040" points="92,-124 24,-124 24,-88 92,-88 92,-124"/>
<text text-anchor="middle" x="58" y="-103.5" font-family="Helvetica,sans-Serif" font-size="10.00">assembler</text>
</a>
</g>
</g>
<!-- dir_2eacd46bb6575c3620b10a673993bd91&#45;&gt;dir_36505a9bfb81f81ed7a4e794d4cf597e -->
<g id="edge1" class="edge">
<title>dir_2eacd46bb6575c3620b10a673993bd91&#45;&gt;dir_36505a9bfb81f81ed7a4e794d4cf597e</title>
<path fill="none" stroke="black" d="M78.72,-87.82C84.91,-82.72 91.72,-77.12 98,-72 103.34,-67.65 109.04,-63.04 114.55,-58.59"/>
<polygon fill="black" stroke="black" points="116.83,-61.26 122.43,-52.26 112.44,-55.8 116.83,-61.26"/>
<g id="a_edge1&#45;headlabel"><a xlink:href="dir_000001_000028.html" target="_top" xlink:title="1">
<text text-anchor="middle" x="115.81" y="-63.22" font-family="Helvetica,sans-Serif" font-size="10.00">1</text>
</a>
</g>
</g>
<!-- dir_2eacd46bb6575c3620b10a673993bd91&#45;&gt;dir_f5e28093cb075fb92f2345f7d8607df6 -->
<g id="edge2" class="edge">
<title>dir_2eacd46bb6575c3620b10a673993bd91&#45;&gt;dir_f5e28093cb075fb92f2345f7d8607df6</title>
<path fill="none" stroke="black" d="M75.01,-87.84C81.68,-82 89.71,-75.96 98,-72 109.47,-66.52 176.18,-53.63 225.29,-44.62"/>
<polygon fill="black" stroke="black" points="225.96,-48.05 235.17,-42.81 224.7,-41.17 225.96,-48.05"/>
<g id="a_edge2&#45;headlabel"><a xlink:href="dir_000001_000011.html" target="_top" xlink:title="1">
<text text-anchor="middle" x="222.94" y="-48.99" font-family="Helvetica,sans-Serif" font-size="10.00">1</text>
</a>
</g>
</g>
<!-- dir_58d0c8a3c72390da3e9fe9328fead302 -->
<g id="node5" class="node">
<title>dir_58d0c8a3c72390da3e9fe9328fead302</title>
<g id="a_node5"><a xlink:href="dir_58d0c8a3c72390da3e9fe9328fead302.html" target="_top" xlink:title="basis">
<polygon fill="#dfe5f1" stroke="#404040" points="351,-124 297,-124 297,-88 351,-88 351,-124"/>
<text text-anchor="middle" x="324" y="-103.5" font-family="Helvetica,sans-Serif" font-size="10.00">basis</text>
</a>
</g>
</g>
<!-- dir_58d0c8a3c72390da3e9fe9328fead302&#45;&gt;dir_36505a9bfb81f81ed7a4e794d4cf597e -->
<g id="edge3" class="edge">
<title>dir_58d0c8a3c72390da3e9fe9328fead302&#45;&gt;dir_36505a9bfb81f81ed7a4e794d4cf597e</title>
<path fill="none" stroke="black" d="M310.35,-87.97C304.89,-82.14 298.19,-76.08 291,-72 281.4,-66.55 221.24,-52.35 180.92,-43.21"/>
<polygon fill="black" stroke="black" points="181.66,-39.79 171.14,-41.01 180.12,-46.62 181.66,-39.79"/>
<g id="a_edge3&#45;headlabel"><a xlink:href="dir_000003_000028.html" target="_top" xlink:title="1">
<text text-anchor="middle" x="185.79" y="-35.31" font-family="Helvetica,sans-Serif" font-size="10.00">1</text>
</a>
</g>
</g>
<!-- dir_58d0c8a3c72390da3e9fe9328fead302&#45;&gt;dir_f5e28093cb075fb92f2345f7d8607df6 -->
<g id="edge4" class="edge">
<title>dir_58d0c8a3c72390da3e9fe9328fead302&#45;&gt;dir_f5e28093cb075fb92f2345f7d8607df6</title>
<path fill="none" stroke="black" d="M312.88,-87.7C307.64,-79.56 301.3,-69.69 295.52,-60.7"/>
<polygon fill="black" stroke="black" points="298.35,-58.62 290,-52.1 292.46,-62.41 298.35,-58.62"/>
<g id="a_edge4&#45;headlabel"><a xlink:href="dir_000003_000011.html" target="_top" xlink:title="1">
<text text-anchor="middle" x="302.68" y="-57.61" font-family="Helvetica,sans-Serif" font-size="10.00">1</text>
</a>
</g>
</g>
<!-- dir_10d62307decb192620fe32f94ec04635 -->
<g id="node6" class="node">
<title>dir_10d62307decb192620fe32f94ec04635</title>
<g id="a_node6"><a xlink:href="dir_10d62307decb192620fe32f94ec04635.html" target="_top" xlink:title="dirichletvalues">
<polygon fill="#dfe5f1" stroke="#404040" points="602.5,-124 513.5,-124 513.5,-88 602.5,-88 602.5,-124"/>
<text text-anchor="middle" x="558" y="-103.5" font-family="Helvetica,sans-Serif" font-size="10.00">dirichletvalues</text>
</a>
</g>
</g>
<!-- dir_10d62307decb192620fe32f94ec04635&#45;&gt;dir_f5e28093cb075fb92f2345f7d8607df6 -->
<g id="edge5" class="edge">
<title>dir_10d62307decb192620fe32f94ec04635&#45;&gt;dir_f5e28093cb075fb92f2345f7d8607df6</title>
<path fill="none" stroke="black" d="M534.56,-87.95C525.42,-82.05 514.61,-75.94 504,-72 447.77,-51.1 379.27,-41.98 332.73,-38.02"/>
<polygon fill="black" stroke="black" points="332.81,-34.51 322.56,-37.2 332.25,-41.49 332.81,-34.51"/>
<g id="a_edge5&#45;headlabel"><a xlink:href="dir_000005_000011.html" target="_top" xlink:title="1">
<text text-anchor="middle" x="336.62" y="-29.47" font-family="Helvetica,sans-Serif" font-size="10.00">1</text>
</a>
</g>
</g>
<!-- dir_3f77d910b8992c2715464d60b82eb4e5 -->
<g id="node7" class="node">
<title>dir_3f77d910b8992c2715464d60b82eb4e5</title>
<text text-anchor="middle" x="235" y="-103.5" font-family="Helvetica,sans-Serif" font-size="10.00">finiteelements</text>
</g>
<!-- dir_3f77d910b8992c2715464d60b82eb4e5&#45;&gt;dir_36505a9bfb81f81ed7a4e794d4cf597e -->
<g id="edge6" class="edge">
<title>dir_3f77d910b8992c2715464d60b82eb4e5&#45;&gt;dir_36505a9bfb81f81ed7a4e794d4cf597e</title>
<path fill="none" stroke="black" d="M212.51,-87.7C201.04,-78.88 186.94,-68.03 174.52,-58.47"/>
<polygon fill="black" stroke="black" points="176.3,-55.43 166.24,-52.1 172.03,-60.98 176.3,-55.43"/>
<g id="a_edge6&#45;headlabel"><a xlink:href="dir_000012_000028.html" target="_top" xlink:title="5">
<text text-anchor="middle" x="180.88" y="-52.87" font-family="Helvetica,sans-Serif" font-size="10.00">5</text>
</a>
</g>
</g>
<!-- dir_3f77d910b8992c2715464d60b82eb4e5&#45;&gt;dir_f5e28093cb075fb92f2345f7d8607df6 -->
<g id="edge7" class="edge">
<title>dir_3f77d910b8992c2715464d60b82eb4e5&#45;&gt;dir_f5e28093cb075fb92f2345f7d8607df6</title>
<path fill="none" stroke="black" d="M245.88,-87.7C250.99,-79.56 257.2,-69.69 262.84,-60.7"/>
<polygon fill="black" stroke="black" points="265.89,-62.43 268.25,-52.1 259.96,-58.71 265.89,-62.43"/>
<g id="a_edge7&#45;headlabel"><a xlink:href="dir_000012_000011.html" target="_top" xlink:title="9">
<text text-anchor="middle" x="266.38" y="-64.49" font-family="Helvetica,sans-Serif" font-size="10.00">9</text>
</a>
</g>
</g>
<!-- dir_1033b2e4d5e569ff29fa5cd78683f3e8 -->
<g id="node8" class="node">
<title>dir_1033b2e4d5e569ff29fa5cd78683f3e8</title>
<g id="a_node8"><a xlink:href="dir_1033b2e4d5e569ff29fa5cd78683f3e8.html" target="_top" xlink:title="materials">
<polygon fill="#d0d9ea" stroke="#404040" points="173.5,-124 110.5,-124 110.5,-88 173.5,-88 173.5,-124"/>
<text text-anchor="middle" x="142" y="-103.5" font-family="Helvetica,sans-Serif" font-size="10.00">materials</text>
</a>
</g>
</g>
<!-- dir_1033b2e4d5e569ff29fa5cd78683f3e8&#45;&gt;dir_36505a9bfb81f81ed7a4e794d4cf597e -->
<g id="edge8" class="edge">
<title>dir_1033b2e4d5e569ff29fa5cd78683f3e8&#45;&gt;dir_36505a9bfb81f81ed7a4e794d4cf597e</title>
<path fill="none" stroke="black" d="M142.49,-87.7C142.71,-79.98 142.98,-70.71 143.23,-62.11"/>
<polygon fill="black" stroke="black" points="146.72,-62.2 143.51,-52.1 139.73,-62 146.72,-62.2"/>
<g id="a_edge8&#45;headlabel"><a xlink:href="dir_000020_000028.html" target="_top" xlink:title="1">
<text text-anchor="middle" x="149.46" y="-63.37" font-family="Helvetica,sans-Serif" font-size="10.00">1</text>
</a>
</g>
</g>
<!-- dir_1033b2e4d5e569ff29fa5cd78683f3e8&#45;&gt;dir_f5e28093cb075fb92f2345f7d8607df6 -->
<g id="edge9" class="edge">
<title>dir_1033b2e4d5e569ff29fa5cd78683f3e8&#45;&gt;dir_f5e28093cb075fb92f2345f7d8607df6</title>
<path fill="none" stroke="black" d="M160.71,-87.91C167.41,-82.35 175.24,-76.47 183,-72 196.2,-64.39 211.27,-57.75 225.49,-52.26"/>
<polygon fill="black" stroke="black" points="227.01,-55.43 235.16,-48.66 224.57,-48.87 227.01,-55.43"/>
<g id="a_edge9&#45;headlabel"><a xlink:href="dir_000020_000011.html" target="_top" xlink:title="1">
<text text-anchor="middle" x="224.64" y="-56.85" font-family="Helvetica,sans-Serif" font-size="10.00">1</text>
</a>
</g>
</g>
<!-- dir_afe0d1ab0c4a41ee8553ea61e92b67bf -->
<g id="node9" class="node">
<title>dir_afe0d1ab0c4a41ee8553ea61e92b67bf</title>
<g id="a_node9"><a xlink:href="dir_afe0d1ab0c4a41ee8553ea61e92b67bf.html" target="_top" xlink:title="utils">
<polygon fill="#dfe5f1" stroke="#404040" points="423,-124 369,-124 369,-88 423,-88 423,-124"/>
<text text-anchor="middle" x="396" y="-103.5" font-family="Helvetica,sans-Serif" font-size="10.00">utils</text>
</a>
</g>
</g>
<!-- dir_afe0d1ab0c4a41ee8553ea61e92b67bf&#45;&gt;dir_f5e28093cb075fb92f2345f7d8607df6 -->
<g id="edge10" class="edge">
<title>dir_afe0d1ab0c4a41ee8553ea61e92b67bf&#45;&gt;dir_f5e28093cb075fb92f2345f7d8607df6</title>
<path fill="none" stroke="black" d="M379.34,-87.71C373.54,-82.26 366.78,-76.5 360,-72 351.31,-66.24 341.57,-60.95 331.95,-56.27"/>
<polygon fill="black" stroke="black" points="333.33,-53.06 322.79,-51.99 330.37,-59.4 333.33,-53.06"/>
<g id="a_edge10&#45;headlabel"><a xlink:href="dir_000027_000011.html" target="_top" xlink:title="1">
<text text-anchor="middle" x="337.79" y="-49.51" font-family="Helvetica,sans-Serif" font-size="10.00">1</text>
</a>
</g>
</g>
</g>
</svg>
