<?xml version="1.0" encoding="UTF-8" standalone="no"?>
<!DOCTYPE svg PUBLIC "-//W3C//DTD SVG 1.1//EN"
 "http://www.w3.org/Graphics/SVG/1.1/DTD/svg11.dtd">
<!-- Generated by graphviz version 2.43.0 (0)
 -->
<!-- Title: mechanics Pages: 1 -->
<svg width="257pt" height="231pt"
 viewBox="0.00 0.00 257.00 231.00" xmlns="http://www.w3.org/2000/svg" xmlns:xlink="http://www.w3.org/1999/xlink">
<g id="graph0" class="graph" transform="scale(1 1) rotate(0) translate(4 227)">
<title>mechanics</title>
<polygon fill="white" stroke="transparent" points="-4,4 -4,-227 253,-227 253,4 -4,4"/>
<g id="clust1" class="cluster">
<title>clusterdir_f5e28093cb075fb92f2345f7d8607df6</title>
<g id="a_clust1"><a xlink:href="dir_f5e28093cb075fb92f2345f7d8607df6.html" target="_top" xlink:title="finiteelements">
<polygon fill="#edf0f7" stroke="#7f7f7f" stroke-dasharray="5,2" points="8,-56 8,-215 241,-215 241,-56 8,-56"/>
<text text-anchor="middle" x="124.5" y="-203" font-family="Helvetica,sans-Serif" font-size="10.00">finiteelements</text>
</a>
</g>
</g>
<g id="clust2" class="cluster">
<title>clusterdir_d9d7fab038fcca5270fe0241ec433d4d</title>
<g id="a_clust2"><a xlink:href="dir_d9d7fab038fcca5270fe0241ec433d4d.html" target="_top">
<polygon fill="#edf0f7" stroke="#404040" stroke-width="2" points="16,-64 16,-188 168,-188 168,-64 16,-64"/>
</a>
</g>
</g>
<!-- dir_61e4bb2d8fdf22e48d3b2b105ffe3f94 -->
<g id="node1" class="node">
<title>dir_61e4bb2d8fdf22e48d3b2b105ffe3f94</title>
<g id="a_node1"><a xlink:href="dir_61e4bb2d8fdf22e48d3b2b105ffe3f94.html" target="_top" xlink:title="febases">
<polygon fill="#dfe5f1" stroke="#404040" points="232.5,-108 177.5,-108 177.5,-72 232.5,-72 232.5,-108"/>
<text text-anchor="middle" x="205" y="-87.5" font-family="Helvetica,sans-Serif" font-size="10.00">febases</text>
</a>
</g>
</g>
<!-- dir_d9d7fab038fcca5270fe0241ec433d4d -->
<g id="node2" class="node">
<title>dir_d9d7fab038fcca5270fe0241ec433d4d</title>
<text text-anchor="middle" x="92" y="-159.5" font-family="Helvetica,sans-Serif" font-size="10.00">mechanics</text>
</g>
<!-- dir_d9d7fab038fcca5270fe0241ec433d4d&#45;&gt;dir_61e4bb2d8fdf22e48d3b2b105ffe3f94 -->
<g id="edge3" class="edge">
<title>dir_d9d7fab038fcca5270fe0241ec433d4d&#45;&gt;dir_61e4bb2d8fdf22e48d3b2b105ffe3f94</title>
<path fill="none" stroke="black" d="M119.64,-143.88C134.42,-134.72 152.79,-123.34 168.7,-113.48"/>
<polygon fill="black" stroke="black" points="170.59,-116.43 177.25,-108.19 166.91,-110.48 170.59,-116.43"/>
<g id="a_edge3&#45;headlabel"><a xlink:href="dir_000021_000009.html" target="_top" xlink:title="3">
<text text-anchor="middle" x="169.03" y="-118.24" font-family="Helvetica,sans-Serif" font-size="10.00">3</text>
</a>
</g>
</g>
<!-- dir_31d7c48772b4fae367539a6092b906a8 -->
<g id="node3" class="node">
<title>dir_31d7c48772b4fae367539a6092b906a8</title>
<g id="a_node3"><a xlink:href="dir_31d7c48772b4fae367539a6092b906a8.html" target="_top" xlink:title="loads">
<polygon fill="#dfe5f1" stroke="#404040" points="78,-108 24,-108 24,-72 78,-72 78,-108"/>
<text text-anchor="middle" x="51" y="-87.5" font-family="Helvetica,sans-Serif" font-size="10.00">loads</text>
</a>
</g>
</g>
<!-- dir_d9d7fab038fcca5270fe0241ec433d4d&#45;&gt;dir_31d7c48772b4fae367539a6092b906a8 -->
<g id="edge1" class="edge">
<title>dir_d9d7fab038fcca5270fe0241ec433d4d&#45;&gt;dir_31d7c48772b4fae367539a6092b906a8</title>
<path fill="none" stroke="black" d="M81.87,-143.7C77.15,-135.64 71.44,-125.89 66.22,-116.98"/>
<polygon fill="black" stroke="black" points="69.09,-114.96 61.02,-108.1 63.05,-118.5 69.09,-114.96"/>
<g id="a_edge1&#45;headlabel"><a xlink:href="dir_000021_000018.html" target="_top" xlink:title="2">
<text text-anchor="middle" x="73.36" y="-114.13" font-family="Helvetica,sans-Serif" font-size="10.00">2</text>
</a>
</g>
</g>
<!-- dir_fc403fdb7d4f9d9b203e31bf1b8a15f4 -->
<g id="node4" class="node">
<title>dir_fc403fdb7d4f9d9b203e31bf1b8a15f4</title>
<g id="a_node4"><a xlink:href="dir_fc403fdb7d4f9d9b203e31bf1b8a15f4.html" target="_top" xlink:title="materials">
<polygon fill="#dfe5f1" stroke="#404040" points="159.5,-108 96.5,-108 96.5,-72 159.5,-72 159.5,-108"/>
<text text-anchor="middle" x="128" y="-87.5" font-family="Helvetica,sans-Serif" font-size="10.00">materials</text>
</a>
</g>
</g>
<!-- dir_d9d7fab038fcca5270fe0241ec433d4d&#45;&gt;dir_fc403fdb7d4f9d9b203e31bf1b8a15f4 -->
<g id="edge4" class="edge">
<title>dir_d9d7fab038fcca5270fe0241ec433d4d&#45;&gt;dir_fc403fdb7d4f9d9b203e31bf1b8a15f4</title>
<path fill="none" stroke="black" d="M100.9,-143.7C105,-135.73 109.95,-126.1 114.49,-117.26"/>
<polygon fill="black" stroke="black" points="117.74,-118.6 119.2,-108.1 111.52,-115.4 117.74,-118.6"/>
<g id="a_edge4&#45;headlabel"><a xlink:href="dir_000021_000019.html" target="_top" xlink:title="6">
<text text-anchor="middle" x="118.62" y="-120.59" font-family="Helvetica,sans-Serif" font-size="10.00">6</text>
</a>
</g>
</g>
<!-- dir_36505a9bfb81f81ed7a4e794d4cf597e -->
<g id="node6" class="node">
<title>dir_36505a9bfb81f81ed7a4e794d4cf597e</title>
<g id="a_node6"><a xlink:href="dir_36505a9bfb81f81ed7a4e794d4cf597e.html" target="_top" xlink:title="utils">
<polygon fill="none" stroke="red" stroke-dasharray="5,2" points="78,-36 24,-36 24,0 78,0 78,-36"/>
<text text-anchor="middle" x="51" y="-15.5" font-family="Helvetica,sans-Serif" font-size="10.00">utils</text>
</a>
</g>
</g>
<!-- dir_d9d7fab038fcca5270fe0241ec433d4d&#45;&gt;dir_36505a9bfb81f81ed7a4e794d4cf597e -->
<g id="edge2" class="edge">
<title>dir_d9d7fab038fcca5270fe0241ec433d4d&#45;&gt;dir_36505a9bfb81f81ed7a4e794d4cf597e</title>
<path fill="none" stroke="black" d="M57.17,-146.4C41.26,-137.75 23.99,-125.09 15,-108 4.25,-87.54 6.3,-77.41 15,-56 16.76,-51.68 19.28,-47.59 22.2,-43.81"/>
<polygon fill="black" stroke="black" points="25.04,-45.88 29.05,-36.07 19.8,-41.24 25.04,-45.88"/>
<g id="a_edge2&#45;headlabel"><a xlink:href="dir_000021_000028.html" target="_top" xlink:title="17">
<text text-anchor="middle" x="24.79" y="-47.95" font-family="Helvetica,sans-Serif" font-size="10.00">17</text>
</a>
</g>
</g>
<!-- dir_31d7c48772b4fae367539a6092b906a8&#45;&gt;dir_36505a9bfb81f81ed7a4e794d4cf597e -->
<g id="edge5" class="edge">
<title>dir_31d7c48772b4fae367539a6092b906a8&#45;&gt;dir_36505a9bfb81f81ed7a4e794d4cf597e</title>
<path fill="none" stroke="black" d="M51,-71.7C51,-63.98 51,-54.71 51,-46.11"/>
<polygon fill="black" stroke="black" points="54.5,-46.1 51,-36.1 47.5,-46.1 54.5,-46.1"/>
<g id="a_edge5&#45;headlabel"><a xlink:href="dir_000018_000028.html" target="_top" xlink:title="2">
<text text-anchor="middle" x="57.34" y="-47.2" font-family="Helvetica,sans-Serif" font-size="10.00">2</text>
</a>
</g>
</g>
<!-- dir_26588bed129c997bc132e8888f2113fa -->
<g id="node5" class="node">
<title>dir_26588bed129c997bc132e8888f2113fa</title>
<g id="a_node5"><a xlink:href="dir_26588bed129c997bc132e8888f2113fa.html" target="_top" xlink:title="solver">
<polygon fill="none" stroke="red" stroke-dasharray="5,2" points="155,-36 101,-36 101,0 155,0 155,-36"/>
<text text-anchor="middle" x="128" y="-15.5" font-family="Helvetica,sans-Serif" font-size="10.00">solver</text>
</a>
</g>
</g>
<!-- dir_fc403fdb7d4f9d9b203e31bf1b8a15f4&#45;&gt;dir_26588bed129c997bc132e8888f2113fa -->
<g id="edge6" class="edge">
<title>dir_fc403fdb7d4f9d9b203e31bf1b8a15f4&#45;&gt;dir_26588bed129c997bc132e8888f2113fa</title>
<path fill="none" stroke="black" d="M128,-71.7C128,-63.98 128,-54.71 128,-46.11"/>
<polygon fill="black" stroke="black" points="131.5,-46.1 128,-36.1 124.5,-46.1 131.5,-46.1"/>
<g id="a_edge6&#45;headlabel"><a xlink:href="dir_000019_000026.html" target="_top" xlink:title="1">
<text text-anchor="middle" x="134.34" y="-47.2" font-family="Helvetica,sans-Serif" font-size="10.00">1</text>
</a>
</g>
</g>
<!-- dir_fc403fdb7d4f9d9b203e31bf1b8a15f4&#45;&gt;dir_36505a9bfb81f81ed7a4e794d4cf597e -->
<g id="edge7" class="edge">
<title>dir_fc403fdb7d4f9d9b203e31bf1b8a15f4&#45;&gt;dir_36505a9bfb81f81ed7a4e794d4cf597e</title>
<path fill="none" stroke="black" d="M108.97,-71.7C99.46,-63.05 87.79,-52.45 77.43,-43.03"/>
<polygon fill="black" stroke="black" points="79.57,-40.24 69.81,-36.1 74.86,-45.42 79.57,-40.24"/>
<g id="a_edge7&#45;headlabel"><a xlink:href="dir_000019_000028.html" target="_top" xlink:title="9">
<text text-anchor="middle" x="84.14" y="-38.06" font-family="Helvetica,sans-Serif" font-size="10.00">9</text>
</a>
</g>
</g>
</g>
</svg>
