<?xml version="1.0" encoding="UTF-8" standalone="no"?>
<!DOCTYPE svg PUBLIC "-//W3C//DTD SVG 1.1//EN"
 "http://www.w3.org/Graphics/SVG/1.1/DTD/svg11.dtd">
<!-- Generated by graphviz version 2.43.0 (0)
 -->
<!-- Title: febases Pages: 1 -->
<svg width="111pt" height="151pt"
 viewBox="0.00 0.00 111.00 151.00" xmlns="http://www.w3.org/2000/svg" xmlns:xlink="http://www.w3.org/1999/xlink">
<g id="graph0" class="graph" transform="scale(1 1) rotate(0) translate(4 147)">
<title>febases</title>
<polygon fill="white" stroke="transparent" points="-4,4 -4,-147 107,-147 107,4 -4,4"/>
<g id="clust1" class="cluster">
<title>clusterdir_f5e28093cb075fb92f2345f7d8607df6</title>
<g id="a_clust1"><a xlink:href="dir_f5e28093cb075fb92f2345f7d8607df6.html" target="_top" xlink:title="finiteelements">
<polygon fill="#edf0f7" stroke="#7f7f7f" stroke-dasharray="5,2" points="8,-64 8,-135 95,-135 95,-64 8,-64"/>
<text text-anchor="middle" x="51.5" y="-123" font-family="Helvetica,sans-Serif" font-size="10.00">finiteelements</text>
</a>
</g>
</g>
<!-- dir_61e4bb2d8fdf22e48d3b2b105ffe3f94 -->
<g id="node1" class="node">
<title>dir_61e4bb2d8fdf22e48d3b2b105ffe3f94</title>
<g id="a_node1"><a xlink:href="dir_61e4bb2d8fdf22e48d3b2b105ffe3f94.html" target="_top" xlink:title="febases">
<polygon fill="#edf0f7" stroke="#404040" stroke-width="2" points="78.5,-108 23.5,-108 23.5,-72 78.5,-72 78.5,-108"/>
<text text-anchor="middle" x="51" y="-87.5" font-family="Helvetica,sans-Serif" font-size="10.00">febases</text>
</a>
</g>
</g>
<!-- dir_36505a9bfb81f81ed7a4e794d4cf597e -->
<g id="node2" class="node">
<title>dir_36505a9bfb81f81ed7a4e794d4cf597e</title>
<g id="a_node2"><a xlink:href="dir_36505a9bfb81f81ed7a4e794d4cf597e.html" target="_top" xlink:title="utils">
<polygon fill="none" stroke="red" stroke-dasharray="5,2" points="78,-36 24,-36 24,0 78,0 78,-36"/>
<text text-anchor="middle" x="51" y="-15.5" font-family="Helvetica,sans-Serif" font-size="10.00">utils</text>
</a>
</g>
</g>
<!-- dir_61e4bb2d8fdf22e48d3b2b105ffe3f94&#45;&gt;dir_36505a9bfb81f81ed7a4e794d4cf597e -->
<g id="edge1" class="edge">
<title>dir_61e4bb2d8fdf22e48d3b2b105ffe3f94&#45;&gt;dir_36505a9bfb81f81ed7a4e794d4cf597e</title>
<path fill="none" stroke="black" d="M51,-71.7C51,-63.98 51,-54.71 51,-46.11"/>
<polygon fill="black" stroke="black" points="54.5,-46.1 51,-36.1 47.5,-46.1 54.5,-46.1"/>
<g id="a_edge1&#45;headlabel"><a xlink:href="dir_000009_000028.html" target="_top" xlink:title="1">
<text text-anchor="middle" x="57.34" y="-47.2" font-family="Helvetica,sans-Serif" font-size="10.00">1</text>
</a>
</g>
</g>
</g>
</svg>
