<?xml version="1.0" encoding="UTF-8" standalone="no"?>
<!DOCTYPE svg PUBLIC "-//W3C//DTD SVG 1.1//EN"
 "http://www.w3.org/Graphics/SVG/1.1/DTD/svg11.dtd">
<!-- Generated by graphviz version 2.43.0 (0)
 -->
<!-- Title: utils Pages: 1 -->
<svg width="262pt" height="111pt"
 viewBox="0.00 0.00 262.00 111.00" xmlns="http://www.w3.org/2000/svg" xmlns:xlink="http://www.w3.org/1999/xlink">
<g id="graph0" class="graph" transform="scale(1 1) rotate(0) translate(4 107)">
<title>utils</title>
<polygon fill="white" stroke="transparent" points="-4,4 -4,-107 258,-107 258,4 -4,4"/>
<g id="clust1" class="cluster">
<title>clusterdir_5bec9ec6c6b8ab3f2f9d60d2ff21ed81</title>
<g id="a_clust1"><a xlink:href="dir_5bec9ec6c6b8ab3f2f9d60d2ff21ed81.html" target="_top" xlink:title="ikarus">
<polygon fill="#edf0f7" stroke="#404040" stroke-dasharray="5,2" points="8,-8 8,-95 246,-95 246,-8 8,-8"/>
<text text-anchor="middle" x="127" y="-83" font-family="Helvetica,sans-Serif" font-size="10.00">ikarus</text>
</a>
</g>
</g>
<g id="clust2" class="cluster">
<title>clusterdir_36505a9bfb81f81ed7a4e794d4cf597e</title>
<g id="a_clust2"><a xlink:href="dir_36505a9bfb81f81ed7a4e794d4cf597e.html" target="_top">
<polygon fill="#edf0f7" stroke="#404040" stroke-width="2" points="16,-16 16,-68 238,-68 238,-16 16,-16"/>
</a>
</g>
</g>
<!-- dir_36505a9bfb81f81ed7a4e794d4cf597e -->
<g id="node1" class="node">
<title>dir_36505a9bfb81f81ed7a4e794d4cf597e</title>
<text text-anchor="middle" x="203" y="-39.5" font-family="Helvetica,sans-Serif" font-size="10.00">utils</text>
</g>
<!-- dir_d45ffc48cf12df7e348ec0b798d36815 -->
<g id="node2" class="node">
<title>dir_d45ffc48cf12df7e348ec0b798d36815</title>
<g id="a_node2"><a xlink:href="dir_d45ffc48cf12df7e348ec0b798d36815.html" target="_top" xlink:title="drawing">
<polygon fill="#dfe5f1" stroke="#404040" points="158,-60 102,-60 102,-24 158,-24 158,-60"/>
<text text-anchor="middle" x="130" y="-39.5" font-family="Helvetica,sans-Serif" font-size="10.00">drawing</text>
</a>
</g>
</g>
<!-- dir_8f2573d1a9c53251c08257bad1a27fd3 -->
<g id="node3" class="node">
<title>dir_8f2573d1a9c53251c08257bad1a27fd3</title>
<g id="a_node3"><a xlink:href="dir_8f2573d1a9c53251c08257bad1a27fd3.html" target="_top" xlink:title="observer">
<polygon fill="#dfe5f1" stroke="#404040" points="83.5,-60 24.5,-60 24.5,-24 83.5,-24 83.5,-60"/>
<text text-anchor="middle" x="54" y="-39.5" font-family="Helvetica,sans-Serif" font-size="10.00">observer</text>
</a>
</g>
</g>
</g>
</svg>
