<?xml version="1.0" encoding="UTF-8" standalone="no"?>
<!DOCTYPE svg PUBLIC "-//W3C//DTD SVG 1.1//EN"
 "http://www.w3.org/Graphics/SVG/1.1/DTD/svg11.dtd">
<!-- Generated by graphviz version 2.43.0 (0)
 -->
<!-- Title: Ikarus::toString Pages: 1 -->
<svg width="443pt" height="176pt"
 viewBox="0.00 0.00 443.00 175.50" xmlns="http://www.w3.org/2000/svg" xmlns:xlink="http://www.w3.org/1999/xlink">
<g id="graph0" class="graph" transform="scale(1 1) rotate(0) translate(4 171.5)">
<title>Ikarus::toString</title>
<polygon fill="white" stroke="transparent" points="-4,4 -4,-171.5 439,-171.5 439,4 -4,4"/>
<!-- Node1 -->
<g id="node1" class="node">
<title>Node1</title>
<g id="a_node1"><a xlink:title=" ">
<polygon fill="#bfbfbf" stroke="black" points="345,-68.5 345,-87.5 435,-87.5 435,-68.5 345,-68.5"/>
<text text-anchor="middle" x="390" y="-75.5" font-family="Helvetica,sans-Serif" font-size="10.00">Ikarus::toString</text>
</a>
</g>
</g>
<!-- Node2 -->
<g id="node2" class="node">
<title>Node2</title>
<g id="a_node2"><a xlink:href="a01273.html#a6a1c765d729145258fab79b29f20450c" target="_top" xlink:title="Get the raw global solution vector for a specific type.">
<polygon fill="white" stroke="black" points="177,-137 177,-167 309,-167 309,-137 177,-137"/>
<text text-anchor="start" x="185" y="-155" font-family="Helvetica,sans-Serif" font-size="10.00">Ikarus::FERequirements</text>
<text text-anchor="middle" x="243" y="-144" font-family="Helvetica,sans-Serif" font-size="10.00">::getGlobalSolution</text>
</a>
</g>
</g>
<!-- Node1&#45;&gt;Node2 -->
<g id="edge1" class="edge">
<title>Node1&#45;&gt;Node2</title>
<path fill="none" stroke="midnightblue" d="M367.15,-93.36C351.46,-103.97 329.53,-117.93 309,-128 302.52,-131.18 295.51,-134.19 288.57,-136.93"/>
<polygon fill="midnightblue" stroke="midnightblue" points="369.35,-96.1 375.62,-87.56 365.39,-90.33 369.35,-96.1"/>
</g>
<!-- Node3 -->
<g id="node3" class="node">
<title>Node3</title>
<g id="a_node3"><a xlink:href="a01273.html#a451f4d103d32aa85b43b059642832cb2" target="_top" xlink:title="Get the raw parameter value for a specific key.">
<polygon fill="white" stroke="black" points="177,-88 177,-118 309,-118 309,-88 177,-88"/>
<text text-anchor="start" x="185" y="-106" font-family="Helvetica,sans-Serif" font-size="10.00">Ikarus::FERequirements</text>
<text text-anchor="middle" x="243" y="-95" font-family="Helvetica,sans-Serif" font-size="10.00">::getParameter</text>
</a>
</g>
</g>
<!-- Node1&#45;&gt;Node3 -->
<g id="edge2" class="edge">
<title>Node1&#45;&gt;Node3</title>
<path fill="none" stroke="midnightblue" d="M334.72,-87.36C326.37,-88.8 317.67,-90.3 309.11,-91.77"/>
<polygon fill="midnightblue" stroke="midnightblue" points="335.45,-90.78 344.71,-85.64 334.26,-83.89 335.45,-90.78"/>
</g>
<!-- Node4 -->
<g id="node4" class="node">
<title>Node4</title>
<g id="a_node4"><a xlink:href="a00349.html#a1d7678520951cad4a5227d685fa8c326" target="_top" xlink:title="Registers the calculateAt method for a finite element class in Python.">
<polygon fill="white" stroke="black" points="178.5,-39 178.5,-69 307.5,-69 307.5,-39 178.5,-39"/>
<text text-anchor="start" x="186.5" y="-57" font-family="Helvetica,sans-Serif" font-size="10.00">Ikarus::Python::register</text>
<text text-anchor="middle" x="243" y="-46" font-family="Helvetica,sans-Serif" font-size="10.00">CalculateAt</text>
</a>
</g>
</g>
<!-- Node1&#45;&gt;Node4 -->
<g id="edge3" class="edge">
<title>Node1&#45;&gt;Node4</title>
<path fill="none" stroke="midnightblue" d="M334.56,-68.99C325.73,-67.53 316.52,-66 307.5,-64.51"/>
<polygon fill="midnightblue" stroke="midnightblue" points="334.27,-72.49 344.71,-70.67 335.41,-65.58 334.27,-72.49"/>
</g>
<!-- Node6 -->
<g id="node6" class="node">
<title>Node6</title>
<g id="a_node6"><a xlink:href="a00337.html#ae9c1868f27f4754a448edbbc97b9a2f2" target="_top" xlink:title="Retrieves a string representation of the ResultType template.">
<polygon fill="white" stroke="black" points="198,-0.5 198,-19.5 288,-19.5 288,-0.5 198,-0.5"/>
<text text-anchor="middle" x="243" y="-7.5" font-family="Helvetica,sans-Serif" font-size="10.00">Ikarus::toString</text>
</a>
</g>
</g>
<!-- Node1&#45;&gt;Node6 -->
<g id="edge5" class="edge">
<title>Node1&#45;&gt;Node6</title>
<path fill="none" stroke="midnightblue" d="M366.95,-62.78C351.31,-52.49 329.53,-39.15 309,-30 300.05,-26.01 290.07,-22.5 280.67,-19.59"/>
<polygon fill="midnightblue" stroke="midnightblue" points="365.14,-65.78 375.39,-68.43 369.03,-59.96 365.14,-65.78"/>
</g>
<!-- Node5 -->
<g id="node5" class="node">
<title>Node5</title>
<g id="a_node5"><a xlink:href="a00329.html#gac8bb4a818dee7342efbc5e174e35b840" target="_top" xlink:title="Register Python bindings for the FE class.">
<polygon fill="white" stroke="black" points="0,-44.5 0,-63.5 141,-63.5 141,-44.5 0,-44.5"/>
<text text-anchor="middle" x="70.5" y="-51.5" font-family="Helvetica,sans-Serif" font-size="10.00">Ikarus::Python::registerFE</text>
</a>
</g>
</g>
<!-- Node4&#45;&gt;Node5 -->
<g id="edge4" class="edge">
<title>Node4&#45;&gt;Node5</title>
<path fill="none" stroke="midnightblue" d="M167.78,-54C158.97,-54 150,-54 141.26,-54"/>
<polygon fill="midnightblue" stroke="midnightblue" points="168.03,-57.5 178.03,-54 168.03,-50.5 168.03,-57.5"/>
</g>
</g>
</svg>
