<?xml version="1.0" encoding="UTF-8" standalone="no"?>
<!DOCTYPE svg PUBLIC "-//W3C//DTD SVG 1.1//EN"
 "http://www.w3.org/Graphics/SVG/1.1/DTD/svg11.dtd">
<!-- Generated by graphviz version 2.43.0 (0)
 -->
<!-- Title: Ikarus::KirchhoffLoveShell&lt; B, FER, useEigenRef &gt; Pages: 1 -->
<svg width="724pt" height="171pt"
 viewBox="0.00 0.00 724.00 170.50" xmlns="http://www.w3.org/2000/svg" xmlns:xlink="http://www.w3.org/1999/xlink">
<g id="graph0" class="graph" transform="scale(1 1) rotate(0) translate(4 166.5)">
<title>Ikarus::KirchhoffLoveShell&lt; B, FER, useEigenRef &gt;</title>
<polygon fill="white" stroke="transparent" points="-4,4 -4,-166.5 720,-166.5 720,4 -4,4"/>
<!-- Node1 -->
<g id="node1" class="node">
<title>Node1</title>
<g id="a_node1"><a xlink:title="Kirchhoff&#45;Love shell finite element class.">
<polygon fill="#bfbfbf" stroke="black" points="573,-82.5 573,-112.5 716,-112.5 716,-82.5 573,-82.5"/>
<text text-anchor="start" x="581" y="-100.5" font-family="Helvetica,sans-Serif" font-size="10.00">Ikarus::KirchhoffLoveShell</text>
<text text-anchor="middle" x="644.5" y="-89.5" font-family="Helvetica,sans-Serif" font-size="10.00">&lt; B, FER, useEigenRef &gt;</text>
</a>
</g>
</g>
<!-- Node2 -->
<g id="node2" class="node">
<title>Node2</title>
<g id="a_node2"><a xlink:href="a01226.html" target="_top" xlink:title="PowerBasisFE class for working with a power basis in FlatInterLeaved elements.">
<polygon fill="white" stroke="black" points="350,-143 350,-162 499,-162 499,-143 350,-143"/>
<text text-anchor="middle" x="424.5" y="-150" font-family="Helvetica,sans-Serif" font-size="10.00">Ikarus::PowerBasisFE&lt; B &gt;</text>
</a>
</g>
</g>
<!-- Node2&#45;&gt;Node1 -->
<g id="edge1" class="edge">
<title>Node2&#45;&gt;Node1</title>
<path fill="none" stroke="midnightblue" d="M500.63,-141.18C512.52,-138.92 524.64,-136.36 536,-133.5 558.62,-127.8 583.33,-119.67 603.35,-112.57"/>
<polygon fill="midnightblue" stroke="midnightblue" points="499.91,-137.75 490.7,-142.99 501.17,-144.63 499.91,-137.75"/>
</g>
<!-- Node3 -->
<g id="node3" class="node">
<title>Node3</title>
<g id="a_node3"><a xlink:href="a01306.html" target="_top" xlink:title=" ">
<polygon fill="white" stroke="black" points="313,-71.5 313,-123.5 536,-123.5 536,-71.5 313,-71.5"/>
<text text-anchor="start" x="321" y="-111.5" font-family="Helvetica,sans-Serif" font-size="10.00">Ikarus::Volume&lt; Kirchhoff</text>
<text text-anchor="start" x="321" y="-100.5" font-family="Helvetica,sans-Serif" font-size="10.00">LoveShell&lt; B, FERequirements</text>
<text text-anchor="start" x="321" y="-89.5" font-family="Helvetica,sans-Serif" font-size="10.00">&lt;&gt;, false &gt;, FETraits&lt; B, FERequirements</text>
<text text-anchor="middle" x="424.5" y="-78.5" font-family="Helvetica,sans-Serif" font-size="10.00">&lt;&gt;, false &gt; &gt;</text>
</a>
</g>
</g>
<!-- Node3&#45;&gt;Node1 -->
<g id="edge2" class="edge">
<title>Node3&#45;&gt;Node1</title>
<path fill="none" stroke="midnightblue" d="M546.37,-97.5C555.43,-97.5 564.39,-97.5 572.97,-97.5"/>
<polygon fill="midnightblue" stroke="midnightblue" points="546.1,-94 536.1,-97.5 546.1,-101 546.1,-94"/>
</g>
<!-- Node4 -->
<g id="node4" class="node">
<title>Node4</title>
<g id="a_node4"><a xlink:href="a01306.html" target="_top" xlink:title="Volume class represents distributed volume load that can be applied.">
<polygon fill="white" stroke="black" points="1,-82.5 1,-112.5 123,-112.5 123,-82.5 1,-82.5"/>
<text text-anchor="start" x="9" y="-100.5" font-family="Helvetica,sans-Serif" font-size="10.00">Ikarus::Volume&lt; DFE,</text>
<text text-anchor="middle" x="62" y="-89.5" font-family="Helvetica,sans-Serif" font-size="10.00"> Traits &gt;</text>
</a>
</g>
</g>
<!-- Node4&#45;&gt;Node3 -->
<g id="edge3" class="edge">
<title>Node4&#45;&gt;Node3</title>
<path fill="none" stroke="orange" stroke-dasharray="5,2" d="M133.61,-97.5C184.65,-97.5 254.6,-97.5 313,-97.5"/>
<polygon fill="orange" stroke="orange" points="133.34,-94 123.34,-97.5 133.34,-101 133.34,-94"/>
<text text-anchor="start" x="142" y="-133.5" font-family="Helvetica,sans-Serif" font-size="10.00"> &lt; KirchhoffLoveShell</text>
<text text-anchor="start" x="142" y="-122.5" font-family="Helvetica,sans-Serif" font-size="10.00">&lt; B, FERequirements&lt;&gt;</text>
<text text-anchor="start" x="142" y="-111.5" font-family="Helvetica,sans-Serif" font-size="10.00">, false &gt;, FETraits&lt; B,</text>
<text text-anchor="middle" x="218.5" y="-100.5" font-family="Helvetica,sans-Serif" font-size="10.00"> FERequirements&lt;&gt;, false &gt; &gt;</text>
</g>
<!-- Node5 -->
<g id="node5" class="node">
<title>Node5</title>
<g id="a_node5"><a xlink:href="a01302.html" target="_top" xlink:title=" ">
<polygon fill="white" stroke="black" points="313,-0.5 313,-52.5 536,-52.5 536,-0.5 313,-0.5"/>
<text text-anchor="start" x="321" y="-40.5" font-family="Helvetica,sans-Serif" font-size="10.00">Ikarus::Traction&lt; Kirchhoff</text>
<text text-anchor="start" x="321" y="-29.5" font-family="Helvetica,sans-Serif" font-size="10.00">LoveShell&lt; B, FERequirements</text>
<text text-anchor="start" x="321" y="-18.5" font-family="Helvetica,sans-Serif" font-size="10.00">&lt;&gt;, false &gt;, FETraits&lt; B, FERequirements</text>
<text text-anchor="middle" x="424.5" y="-7.5" font-family="Helvetica,sans-Serif" font-size="10.00">&lt;&gt;, false &gt; &gt;</text>
</a>
</g>
</g>
<!-- Node5&#45;&gt;Node1 -->
<g id="edge4" class="edge">
<title>Node5&#45;&gt;Node1</title>
<path fill="none" stroke="midnightblue" d="M515.3,-55.75C543.44,-64.91 573.33,-74.65 597.17,-82.41"/>
<polygon fill="midnightblue" stroke="midnightblue" points="516.03,-52.3 505.44,-52.53 513.86,-58.96 516.03,-52.3"/>
</g>
<!-- Node6 -->
<g id="node6" class="node">
<title>Node6</title>
<g id="a_node6"><a xlink:href="a01302.html" target="_top" xlink:title="Traction class represents distributed traction load that can be applied.">
<polygon fill="white" stroke="black" points="0,-11.5 0,-41.5 124,-41.5 124,-11.5 0,-11.5"/>
<text text-anchor="start" x="8" y="-29.5" font-family="Helvetica,sans-Serif" font-size="10.00">Ikarus::Traction&lt; DFE,</text>
<text text-anchor="middle" x="62" y="-18.5" font-family="Helvetica,sans-Serif" font-size="10.00"> Traits &gt;</text>
</a>
</g>
</g>
<!-- Node6&#45;&gt;Node5 -->
<g id="edge5" class="edge">
<title>Node6&#45;&gt;Node5</title>
<path fill="none" stroke="orange" stroke-dasharray="5,2" d="M134.4,-26.5C185.3,-26.5 254.71,-26.5 312.76,-26.5"/>
<polygon fill="orange" stroke="orange" points="134.15,-23 124.15,-26.5 134.15,-30 134.15,-23"/>
<text text-anchor="start" x="142" y="-62.5" font-family="Helvetica,sans-Serif" font-size="10.00"> &lt; KirchhoffLoveShell</text>
<text text-anchor="start" x="142" y="-51.5" font-family="Helvetica,sans-Serif" font-size="10.00">&lt; B, FERequirements&lt;&gt;</text>
<text text-anchor="start" x="142" y="-40.5" font-family="Helvetica,sans-Serif" font-size="10.00">, false &gt;, FETraits&lt; B,</text>
<text text-anchor="middle" x="218.5" y="-29.5" font-family="Helvetica,sans-Serif" font-size="10.00"> FERequirements&lt;&gt;, false &gt; &gt;</text>
</g>
</g>
</svg>
