<?xml version="1.0" encoding="UTF-8" standalone="no"?>
<!DOCTYPE svg PUBLIC "-//W3C//DTD SVG 1.1//EN"
 "http://www.w3.org/Graphics/SVG/1.1/DTD/svg11.dtd">
<!-- Generated by graphviz version 2.43.0 (0)
 -->
<!-- Title: Ikarus::PowerBasisFE::localView Pages: 1 -->
<svg width="656pt" height="426pt"
 viewBox="0.00 0.00 656.00 426.00" xmlns="http://www.w3.org/2000/svg" xmlns:xlink="http://www.w3.org/1999/xlink">
<g id="graph0" class="graph" transform="scale(1 1) rotate(0) translate(4 422)">
<title>Ikarus::PowerBasisFE::localView</title>
<polygon fill="white" stroke="transparent" points="-4,4 -4,-422 652,-422 652,4 -4,4"/>
<!-- Node1 -->
<g id="node1" class="node">
<title>Node1</title>
<g id="a_node1"><a xlink:title="Get the const reference to the local view.">
<polygon fill="#bfbfbf" stroke="black" points="528,-191.5 528,-221.5 648,-221.5 648,-191.5 528,-191.5"/>
<text text-anchor="start" x="536" y="-209.5" font-family="Helvetica,sans-Serif" font-size="10.00">Ikarus::PowerBasisFE</text>
<text text-anchor="middle" x="588" y="-198.5" font-family="Helvetica,sans-Serif" font-size="10.00">::localView</text>
</a>
</g>
</g>
<!-- Node2 -->
<g id="node2" class="node">
<title>Node2</title>
<g id="a_node2"><a xlink:href="a01298.html#aadc2cb33ce478106a0d8c4c7c89a76a6" target="_top" xlink:title="Gets the displacement function for the given FERequirementType and optional displacement vector.">
<polygon fill="white" stroke="black" points="355.5,-302.5 355.5,-332.5 485.5,-332.5 485.5,-302.5 355.5,-302.5"/>
<text text-anchor="start" x="363.5" y="-320.5" font-family="Helvetica,sans-Serif" font-size="10.00">Ikarus::LinearElastic</text>
<text text-anchor="middle" x="420.5" y="-309.5" font-family="Helvetica,sans-Serif" font-size="10.00">::displacementFunction</text>
</a>
</g>
</g>
<!-- Node1&#45;&gt;Node2 -->
<g id="edge1" class="edge">
<title>Node1&#45;&gt;Node2</title>
<path fill="none" stroke="midnightblue" d="M555.63,-227.54C523,-249.42 472.73,-283.14 443.89,-302.48"/>
<polygon fill="midnightblue" stroke="midnightblue" points="557.98,-230.18 564.33,-221.7 554.08,-224.36 557.98,-230.18"/>
</g>
<!-- Node8 -->
<g id="node8" class="node">
<title>Node8</title>
<g id="a_node8"><a xlink:href="a01338.html#a550c57ffc66443501bd41f9e4906043e" target="_top" xlink:title="Get the displacement function for the given FERequirementType.">
<polygon fill="white" stroke="black" points="353.5,-191.5 353.5,-221.5 487.5,-221.5 487.5,-191.5 353.5,-191.5"/>
<text text-anchor="start" x="361.5" y="-209.5" font-family="Helvetica,sans-Serif" font-size="10.00">Ikarus::NonLinearElastic</text>
<text text-anchor="middle" x="420.5" y="-198.5" font-family="Helvetica,sans-Serif" font-size="10.00">::displacementFunction</text>
</a>
</g>
</g>
<!-- Node1&#45;&gt;Node8 -->
<g id="edge8" class="edge">
<title>Node1&#45;&gt;Node8</title>
<path fill="none" stroke="midnightblue" d="M517.53,-206.5C507.64,-206.5 497.5,-206.5 487.67,-206.5"/>
<polygon fill="midnightblue" stroke="midnightblue" points="517.72,-210 527.72,-206.5 517.72,-203 517.72,-210"/>
</g>
<!-- Node14 -->
<g id="node14" class="node">
<title>Node14</title>
<g id="a_node14"><a xlink:href="a01290.html#a48b4389c47d552e860a9d47a2a744bde" target="_top" xlink:title="Get the displacement function and nodal displacements.">
<polygon fill="white" stroke="black" points="349,-74.5 349,-104.5 492,-104.5 492,-74.5 349,-74.5"/>
<text text-anchor="start" x="357" y="-92.5" font-family="Helvetica,sans-Serif" font-size="10.00">Ikarus::KirchhoffLoveShell</text>
<text text-anchor="middle" x="420.5" y="-81.5" font-family="Helvetica,sans-Serif" font-size="10.00">::displacementFunction</text>
</a>
</g>
</g>
<!-- Node1&#45;&gt;Node14 -->
<g id="edge15" class="edge">
<title>Node1&#45;&gt;Node14</title>
<path fill="none" stroke="midnightblue" d="M557.38,-185.56C524.48,-162.3 472.16,-125.32 442.98,-104.68"/>
<polygon fill="midnightblue" stroke="midnightblue" points="555.52,-188.53 565.7,-191.44 559.56,-182.81 555.52,-188.53"/>
</g>
<!-- Node3 -->
<g id="node3" class="node">
<title>Node3</title>
<g id="a_node3"><a xlink:href="a01298.html#aaccf80635025096e4ff250f47febd549" target="_top" xlink:title=" ">
<polygon fill="white" stroke="black" points="7.5,-387.5 7.5,-417.5 126.5,-417.5 126.5,-387.5 7.5,-387.5"/>
<text text-anchor="start" x="15.5" y="-405.5" font-family="Helvetica,sans-Serif" font-size="10.00">Ikarus::LinearElastic</text>
<text text-anchor="middle" x="67" y="-394.5" font-family="Helvetica,sans-Serif" font-size="10.00">::calculateScalarImpl</text>
</a>
</g>
</g>
<!-- Node2&#45;&gt;Node3 -->
<g id="edge2" class="edge">
<title>Node2&#45;&gt;Node3</title>
<path fill="none" stroke="midnightblue" d="M347.67,-334.87C282.49,-350.63 187.55,-373.59 126.78,-388.29"/>
<polygon fill="midnightblue" stroke="midnightblue" points="348.57,-338.25 357.47,-332.5 346.93,-331.45 348.57,-338.25"/>
</g>
<!-- Node4 -->
<g id="node4" class="node">
<title>Node4</title>
<g id="a_node4"><a xlink:href="a01298.html#afcb7791c5c26c3b28eec8807265ca493" target="_top" xlink:title="Gets the strain function for the given FERequirementType and optional displacement vector.">
<polygon fill="white" stroke="black" points="184.5,-302.5 184.5,-332.5 298.5,-332.5 298.5,-302.5 184.5,-302.5"/>
<text text-anchor="start" x="192.5" y="-320.5" font-family="Helvetica,sans-Serif" font-size="10.00">Ikarus::LinearElastic</text>
<text text-anchor="middle" x="241.5" y="-309.5" font-family="Helvetica,sans-Serif" font-size="10.00">::strainFunction</text>
</a>
</g>
</g>
<!-- Node2&#45;&gt;Node4 -->
<g id="edge3" class="edge">
<title>Node2&#45;&gt;Node4</title>
<path fill="none" stroke="midnightblue" d="M345.19,-317.5C329.57,-317.5 313.35,-317.5 298.53,-317.5"/>
<polygon fill="midnightblue" stroke="midnightblue" points="345.35,-321 355.35,-317.5 345.35,-314 345.35,-321"/>
</g>
<!-- Node4&#45;&gt;Node3 -->
<g id="edge6" class="edge">
<title>Node4&#45;&gt;Node3</title>
<path fill="none" stroke="midnightblue" d="M208.3,-337.87C187.56,-350.51 159.76,-366.55 134,-378.5 127.25,-381.63 119.97,-384.63 112.8,-387.39"/>
<polygon fill="midnightblue" stroke="midnightblue" points="210.33,-340.73 217.01,-332.51 206.66,-334.77 210.33,-340.73"/>
</g>
<!-- Node5 -->
<g id="node5" class="node">
<title>Node5</title>
<g id="a_node5"><a xlink:href="a01298.html#a6dcb4695a8a2d1d3cb9d555dd087f28c" target="_top" xlink:title="Calculates a requested result at a specific local position.">
<polygon fill="white" stroke="black" points="10,-338.5 10,-368.5 124,-368.5 124,-338.5 10,-338.5"/>
<text text-anchor="start" x="18" y="-356.5" font-family="Helvetica,sans-Serif" font-size="10.00">Ikarus::LinearElastic</text>
<text text-anchor="middle" x="67" y="-345.5" font-family="Helvetica,sans-Serif" font-size="10.00">::calculateAt</text>
</a>
</g>
</g>
<!-- Node4&#45;&gt;Node5 -->
<g id="edge4" class="edge">
<title>Node4&#45;&gt;Node5</title>
<path fill="none" stroke="midnightblue" d="M174.32,-331.31C157.72,-334.78 140.07,-338.46 124.02,-341.81"/>
<polygon fill="midnightblue" stroke="midnightblue" points="175.42,-334.66 184.49,-329.19 173.99,-327.81 175.42,-334.66"/>
</g>
<!-- Node6 -->
<g id="node6" class="node">
<title>Node6</title>
<g id="a_node6"><a xlink:href="a01298.html#a078e95d6b83829fa717778f47ca33872" target="_top" xlink:title="Calculates the matrix stiffness for the given FERequirementType.">
<polygon fill="white" stroke="black" points="10,-289.5 10,-319.5 124,-319.5 124,-289.5 10,-289.5"/>
<text text-anchor="start" x="18" y="-307.5" font-family="Helvetica,sans-Serif" font-size="10.00">Ikarus::LinearElastic</text>
<text text-anchor="middle" x="67" y="-296.5" font-family="Helvetica,sans-Serif" font-size="10.00">::calculateMatrix</text>
</a>
</g>
</g>
<!-- Node4&#45;&gt;Node6 -->
<g id="edge5" class="edge">
<title>Node4&#45;&gt;Node6</title>
<path fill="none" stroke="midnightblue" d="M174.32,-312.51C157.72,-311.26 140.07,-309.93 124.02,-308.72"/>
<polygon fill="midnightblue" stroke="midnightblue" points="174.26,-316.02 184.49,-313.28 174.79,-309.04 174.26,-316.02"/>
</g>
<!-- Node7 -->
<g id="node7" class="node">
<title>Node7</title>
<g id="a_node7"><a xlink:href="a01298.html#a8e52623d4850ccde18d34ee34b028ef7" target="_top" xlink:title=" ">
<polygon fill="white" stroke="black" points="7.5,-240.5 7.5,-270.5 126.5,-270.5 126.5,-240.5 7.5,-240.5"/>
<text text-anchor="start" x="15.5" y="-258.5" font-family="Helvetica,sans-Serif" font-size="10.00">Ikarus::LinearElastic</text>
<text text-anchor="middle" x="67" y="-247.5" font-family="Helvetica,sans-Serif" font-size="10.00">::calculateVectorImpl</text>
</a>
</g>
</g>
<!-- Node4&#45;&gt;Node7 -->
<g id="edge7" class="edge">
<title>Node4&#45;&gt;Node7</title>
<path fill="none" stroke="midnightblue" d="M189.31,-299.1C164.02,-290.01 133.88,-279.18 109.97,-270.59"/>
<polygon fill="midnightblue" stroke="midnightblue" points="188.15,-302.4 198.74,-302.49 190.52,-295.82 188.15,-302.4"/>
</g>
<!-- Node9 -->
<g id="node9" class="node">
<title>Node9</title>
<g id="a_node9"><a xlink:href="a01338.html#a765f9740fe927b34ab4d0add274be811" target="_top" xlink:title="Calculates a requested result at a specific local position.">
<polygon fill="white" stroke="black" points="174.5,-235.5 174.5,-265.5 308.5,-265.5 308.5,-235.5 174.5,-235.5"/>
<text text-anchor="start" x="182.5" y="-253.5" font-family="Helvetica,sans-Serif" font-size="10.00">Ikarus::NonLinearElastic</text>
<text text-anchor="middle" x="241.5" y="-242.5" font-family="Helvetica,sans-Serif" font-size="10.00">::calculateAt</text>
</a>
</g>
</g>
<!-- Node8&#45;&gt;Node9 -->
<g id="edge9" class="edge">
<title>Node8&#45;&gt;Node9</title>
<path fill="none" stroke="midnightblue" d="M349.16,-223.99C333.87,-227.79 317.82,-231.78 302.95,-235.47"/>
<polygon fill="midnightblue" stroke="midnightblue" points="350.22,-227.33 359.08,-221.52 348.53,-220.54 350.22,-227.33"/>
</g>
<!-- Node10 -->
<g id="node10" class="node">
<title>Node10</title>
<g id="a_node10"><a xlink:href="a01338.html#a29221e7dd472e3f821d850817814ca86" target="_top" xlink:title=" ">
<polygon fill="white" stroke="black" points="0,-191.5 0,-221.5 134,-221.5 134,-191.5 0,-191.5"/>
<text text-anchor="start" x="8" y="-209.5" font-family="Helvetica,sans-Serif" font-size="10.00">Ikarus::NonLinearElastic</text>
<text text-anchor="middle" x="67" y="-198.5" font-family="Helvetica,sans-Serif" font-size="10.00">::calculateScalarImpl</text>
</a>
</g>
</g>
<!-- Node8&#45;&gt;Node10 -->
<g id="edge10" class="edge">
<title>Node8&#45;&gt;Node10</title>
<path fill="none" stroke="midnightblue" d="M343.21,-206.5C280.84,-206.5 193.55,-206.5 134.12,-206.5"/>
<polygon fill="midnightblue" stroke="midnightblue" points="343.39,-210 353.39,-206.5 343.39,-203 343.39,-210"/>
</g>
<!-- Node11 -->
<g id="node11" class="node">
<title>Node11</title>
<g id="a_node11"><a xlink:href="a01338.html#a457ebdb2c3001fc71c97cab13944dabe" target="_top" xlink:title="The strain function for the given FERequirementType.">
<polygon fill="white" stroke="black" points="174.5,-147.5 174.5,-177.5 308.5,-177.5 308.5,-147.5 174.5,-147.5"/>
<text text-anchor="start" x="182.5" y="-165.5" font-family="Helvetica,sans-Serif" font-size="10.00">Ikarus::NonLinearElastic</text>
<text text-anchor="middle" x="241.5" y="-154.5" font-family="Helvetica,sans-Serif" font-size="10.00">::strainFunction</text>
</a>
</g>
</g>
<!-- Node8&#45;&gt;Node11 -->
<g id="edge11" class="edge">
<title>Node8&#45;&gt;Node11</title>
<path fill="none" stroke="midnightblue" d="M349.16,-189.01C333.87,-185.21 317.82,-181.22 302.95,-177.53"/>
<polygon fill="midnightblue" stroke="midnightblue" points="348.53,-192.46 359.08,-191.48 350.22,-185.67 348.53,-192.46"/>
</g>
<!-- Node11&#45;&gt;Node10 -->
<g id="edge13" class="edge">
<title>Node11&#45;&gt;Node10</title>
<path fill="none" stroke="midnightblue" d="M171.52,-180.09C156.75,-183.86 141.26,-187.81 126.91,-191.47"/>
<polygon fill="midnightblue" stroke="midnightblue" points="172.79,-183.38 181.62,-177.52 171.06,-176.6 172.79,-183.38"/>
</g>
<!-- Node12 -->
<g id="node12" class="node">
<title>Node12</title>
<g id="a_node12"><a xlink:href="a01338.html#a04e2110e0ff9db322567ace0ad778a2d" target="_top" xlink:title="Calculate the matrix associated with the given FERequirementType.">
<polygon fill="white" stroke="black" points="0,-142.5 0,-172.5 134,-172.5 134,-142.5 0,-142.5"/>
<text text-anchor="start" x="8" y="-160.5" font-family="Helvetica,sans-Serif" font-size="10.00">Ikarus::NonLinearElastic</text>
<text text-anchor="middle" x="67" y="-149.5" font-family="Helvetica,sans-Serif" font-size="10.00">::calculateMatrix</text>
</a>
</g>
</g>
<!-- Node11&#45;&gt;Node12 -->
<g id="edge12" class="edge">
<title>Node11&#45;&gt;Node12</title>
<path fill="none" stroke="midnightblue" d="M164.29,-160.29C154.2,-160 143.92,-159.7 134.02,-159.41"/>
<polygon fill="midnightblue" stroke="midnightblue" points="164.2,-163.79 174.3,-160.58 164.41,-156.79 164.2,-163.79"/>
</g>
<!-- Node13 -->
<g id="node13" class="node">
<title>Node13</title>
<g id="a_node13"><a xlink:href="a01338.html#a0f93cbb54ccb1a8a2ee75fe62c2d57fc" target="_top" xlink:title=" ">
<polygon fill="white" stroke="black" points="0,-93.5 0,-123.5 134,-123.5 134,-93.5 0,-93.5"/>
<text text-anchor="start" x="8" y="-111.5" font-family="Helvetica,sans-Serif" font-size="10.00">Ikarus::NonLinearElastic</text>
<text text-anchor="middle" x="67" y="-100.5" font-family="Helvetica,sans-Serif" font-size="10.00">::calculateVectorImpl</text>
</a>
</g>
</g>
<!-- Node11&#45;&gt;Node13 -->
<g id="edge14" class="edge">
<title>Node11&#45;&gt;Node13</title>
<path fill="none" stroke="midnightblue" d="M182.72,-144.41C161.09,-137.64 136.76,-130.02 116.09,-123.55"/>
<polygon fill="midnightblue" stroke="midnightblue" points="181.86,-147.81 192.45,-147.46 183.95,-141.13 181.86,-147.81"/>
</g>
<!-- Node15 -->
<g id="node15" class="node">
<title>Node15</title>
<g id="a_node15"><a xlink:href="a01290.html#a5b084c57d60f743b9bf8f8cd7bfbc059" target="_top" xlink:title=" ">
<polygon fill="white" stroke="black" points="170,-98.5 170,-128.5 313,-128.5 313,-98.5 170,-98.5"/>
<text text-anchor="start" x="178" y="-116.5" font-family="Helvetica,sans-Serif" font-size="10.00">Ikarus::KirchhoffLoveShell</text>
<text text-anchor="middle" x="241.5" y="-105.5" font-family="Helvetica,sans-Serif" font-size="10.00">::calculateMatrixImpl</text>
</a>
</g>
</g>
<!-- Node14&#45;&gt;Node15 -->
<g id="edge16" class="edge">
<title>Node14&#45;&gt;Node15</title>
<path fill="none" stroke="midnightblue" d="M338.79,-100.44C330.22,-101.61 321.55,-102.78 313.11,-103.93"/>
<polygon fill="midnightblue" stroke="midnightblue" points="339.34,-103.9 348.78,-99.09 338.4,-96.96 339.34,-103.9"/>
</g>
<!-- Node16 -->
<g id="node16" class="node">
<title>Node16</title>
<g id="a_node16"><a xlink:href="a01290.html#aefe1853e0e5f64b7315da30936263f9d" target="_top" xlink:title=" ">
<polygon fill="white" stroke="black" points="170,-49.5 170,-79.5 313,-79.5 313,-49.5 170,-49.5"/>
<text text-anchor="start" x="178" y="-67.5" font-family="Helvetica,sans-Serif" font-size="10.00">Ikarus::KirchhoffLoveShell</text>
<text text-anchor="middle" x="241.5" y="-56.5" font-family="Helvetica,sans-Serif" font-size="10.00">::calculateScalarImpl</text>
</a>
</g>
</g>
<!-- Node14&#45;&gt;Node16 -->
<g id="edge17" class="edge">
<title>Node14&#45;&gt;Node16</title>
<path fill="none" stroke="midnightblue" d="M338.79,-78.1C330.22,-76.89 321.55,-75.66 313.11,-74.47"/>
<polygon fill="midnightblue" stroke="midnightblue" points="338.39,-81.58 348.78,-79.51 339.37,-74.65 338.39,-81.58"/>
</g>
<!-- Node17 -->
<g id="node17" class="node">
<title>Node17</title>
<g id="a_node17"><a xlink:href="a01290.html#af53cd4c2f326eea7d30b0bfb3fcb4177" target="_top" xlink:title=" ">
<polygon fill="white" stroke="black" points="170,-0.5 170,-30.5 313,-30.5 313,-0.5 170,-0.5"/>
<text text-anchor="start" x="178" y="-18.5" font-family="Helvetica,sans-Serif" font-size="10.00">Ikarus::KirchhoffLoveShell</text>
<text text-anchor="middle" x="241.5" y="-7.5" font-family="Helvetica,sans-Serif" font-size="10.00">::calculateVectorImpl</text>
</a>
</g>
</g>
<!-- Node14&#45;&gt;Node17 -->
<g id="edge18" class="edge">
<title>Node14&#45;&gt;Node17</title>
<path fill="none" stroke="midnightblue" d="M379.55,-70.08C359.73,-60.71 335.3,-49.56 313,-40.5 304.7,-37.13 295.75,-33.76 287.11,-30.63"/>
<polygon fill="midnightblue" stroke="midnightblue" points="378.07,-73.25 388.6,-74.38 381.07,-66.93 378.07,-73.25"/>
</g>
</g>
</svg>
