<?xml version="1.0" encoding="UTF-8" standalone="no"?>
<!DOCTYPE svg PUBLIC "-//W3C//DTD SVG 1.1//EN"
 "http://www.w3.org/Graphics/SVG/1.1/DTD/svg11.dtd">
<!-- Generated by graphviz version 2.43.0 (0)
 -->
<!-- Title: Ikarus::Material&lt; MI &gt; Pages: 1 -->
<svg width="1028pt" height="239pt"
 viewBox="0.00 0.00 1028.00 239.00" xmlns="http://www.w3.org/2000/svg" xmlns:xlink="http://www.w3.org/1999/xlink">
<g id="graph0" class="graph" transform="scale(1 1) rotate(0) translate(4 235)">
<title>Ikarus::Material&lt; MI &gt;</title>
<polygon fill="white" stroke="transparent" points="-4,4 -4,-235 1024,-235 1024,4 -4,4"/>
<!-- Node1 -->
<g id="node1" class="node">
<title>Node1</title>
<g id="a_node1"><a xlink:title="Interface classf or materials.">
<polygon fill="#bfbfbf" stroke="black" points="0,-108 0,-127 127,-127 127,-108 0,-108"/>
<text text-anchor="middle" x="63.5" y="-115" font-family="Helvetica,sans-Serif" font-size="10.00">Ikarus::Material&lt; MI &gt;</text>
</a>
</g>
</g>
<!-- Node2 -->
<g id="node2" class="node">
<title>Node2</title>
<g id="a_node2"><a xlink:href="a01385.html" target="_top" xlink:title=" ">
<polygon fill="white" stroke="black" points="291,-200.5 291,-230.5 425,-230.5 425,-200.5 291,-200.5"/>
<text text-anchor="start" x="299" y="-218.5" font-family="Helvetica,sans-Serif" font-size="10.00">Ikarus::Material&lt; Linear</text>
<text text-anchor="middle" x="358" y="-207.5" font-family="Helvetica,sans-Serif" font-size="10.00">ElasticityT&lt; ST &gt; &gt;</text>
</a>
</g>
</g>
<!-- Node1&#45;&gt;Node2 -->
<g id="edge1" class="edge">
<title>Node1&#45;&gt;Node2</title>
<path fill="none" stroke="orange" stroke-dasharray="5,2" d="M82.85,-133.6C98.37,-146.36 121.73,-163.62 145,-173.5 191.62,-193.3 248.03,-203.9 290.93,-209.49"/>
<polygon fill="orange" stroke="orange" points="84.99,-130.83 75.09,-127.06 80.48,-136.18 84.99,-130.83"/>
<text text-anchor="start" x="156" y="-218.5" font-family="Helvetica,sans-Serif" font-size="10.00"> &lt; LinearElasticityT</text>
<text text-anchor="middle" x="204" y="-207.5" font-family="Helvetica,sans-Serif" font-size="10.00">&lt; ST &gt; &gt;</text>
</g>
<!-- Node4 -->
<g id="node4" class="node">
<title>Node4</title>
<g id="a_node4"><a xlink:href="a01385.html" target="_top" xlink:title=" ">
<polygon fill="white" stroke="black" points="281,-151.5 281,-181.5 435,-181.5 435,-151.5 281,-151.5"/>
<text text-anchor="start" x="289" y="-169.5" font-family="Helvetica,sans-Serif" font-size="10.00">Ikarus::Material&lt; NeoHooke</text>
<text text-anchor="middle" x="358" y="-158.5" font-family="Helvetica,sans-Serif" font-size="10.00">T&lt; ST &gt; &gt;</text>
</a>
</g>
</g>
<!-- Node1&#45;&gt;Node4 -->
<g id="edge3" class="edge">
<title>Node1&#45;&gt;Node4</title>
<path fill="none" stroke="orange" stroke-dasharray="5,2" d="M100.58,-130.3C114.34,-134.75 130.25,-139.4 145,-142.5 189.59,-151.86 240.27,-157.77 280.9,-161.38"/>
<polygon fill="orange" stroke="orange" points="101.59,-126.94 91,-127.11 99.39,-133.59 101.59,-126.94"/>
<text text-anchor="middle" x="204" y="-161.5" font-family="Helvetica,sans-Serif" font-size="10.00"> &lt; NeoHookeT&lt; ST &gt; &gt;</text>
</g>
<!-- Node6 -->
<g id="node6" class="node">
<title>Node6</title>
<g id="a_node6"><a xlink:href="a01385.html" target="_top" xlink:title=" ">
<polygon fill="white" stroke="black" points="284.5,-102.5 284.5,-132.5 431.5,-132.5 431.5,-102.5 284.5,-102.5"/>
<text text-anchor="start" x="292.5" y="-120.5" font-family="Helvetica,sans-Serif" font-size="10.00">Ikarus::Material&lt; StVenant</text>
<text text-anchor="middle" x="358" y="-109.5" font-family="Helvetica,sans-Serif" font-size="10.00">KirchhoffT&lt; ST &gt; &gt;</text>
</a>
</g>
</g>
<!-- Node1&#45;&gt;Node6 -->
<g id="edge5" class="edge">
<title>Node1&#45;&gt;Node6</title>
<path fill="none" stroke="orange" stroke-dasharray="5,2" d="M137.49,-117.5C182.32,-117.5 239.52,-117.5 284.3,-117.5"/>
<polygon fill="orange" stroke="orange" points="137.25,-114 127.25,-117.5 137.25,-121 137.25,-114"/>
<text text-anchor="start" x="150" y="-131.5" font-family="Helvetica,sans-Serif" font-size="10.00"> &lt; StVenantKirchhoffT</text>
<text text-anchor="middle" x="204" y="-120.5" font-family="Helvetica,sans-Serif" font-size="10.00">&lt; ST &gt; &gt;</text>
</g>
<!-- Node9 -->
<g id="node9" class="node">
<title>Node9</title>
<g id="a_node9"><a xlink:href="a01385.html" target="_top" xlink:title=" ">
<polygon fill="white" stroke="black" points="282.5,-42 282.5,-83 433.5,-83 433.5,-42 282.5,-42"/>
<text text-anchor="start" x="290.5" y="-71" font-family="Helvetica,sans-Serif" font-size="10.00">Ikarus::Material&lt; Vanishing</text>
<text text-anchor="start" x="290.5" y="-60" font-family="Helvetica,sans-Serif" font-size="10.00">Stress&lt; stressIndexPair,</text>
<text text-anchor="middle" x="358" y="-49" font-family="Helvetica,sans-Serif" font-size="10.00"> MI &gt; &gt;</text>
</a>
</g>
</g>
<!-- Node1&#45;&gt;Node9 -->
<g id="edge8" class="edge">
<title>Node1&#45;&gt;Node9</title>
<path fill="none" stroke="orange" stroke-dasharray="5,2" d="M99.94,-104.56C113.84,-99.88 130.02,-94.92 145,-91.5 190.09,-81.22 241.47,-74.08 282.35,-69.46"/>
<polygon fill="orange" stroke="orange" points="98.59,-101.32 90.28,-107.89 100.87,-107.94 98.59,-101.32"/>
<text text-anchor="start" x="145" y="-105.5" font-family="Helvetica,sans-Serif" font-size="10.00"> &lt; VanishingStress&lt;</text>
<text text-anchor="middle" x="204" y="-94.5" font-family="Helvetica,sans-Serif" font-size="10.00"> stressIndexPair, MI &gt; &gt;</text>
</g>
<!-- Node11 -->
<g id="node11" class="node">
<title>Node11</title>
<g id="a_node11"><a xlink:href="a01385.html" target="_top" xlink:title=" ">
<polygon fill="white" stroke="black" points="453,-0.5 453,-30.5 605,-30.5 605,-0.5 453,-0.5"/>
<text text-anchor="start" x="461" y="-18.5" font-family="Helvetica,sans-Serif" font-size="10.00">Ikarus::Material&lt; StVenant</text>
<text text-anchor="middle" x="529" y="-7.5" font-family="Helvetica,sans-Serif" font-size="10.00">KirchhoffT&lt; ScalarType &gt; &gt;</text>
</a>
</g>
</g>
<!-- Node1&#45;&gt;Node11 -->
<g id="edge10" class="edge">
<title>Node1&#45;&gt;Node11</title>
<path fill="none" stroke="orange" stroke-dasharray="5,2" d="M78.35,-99.82C92.91,-82.67 117.5,-57.53 145,-45.5 244.75,-1.85 373.03,-1.67 452.89,-7.27"/>
<polygon fill="orange" stroke="orange" points="75.32,-98 71.69,-107.95 80.73,-102.44 75.32,-98"/>
<text text-anchor="start" x="150" y="-59.5" font-family="Helvetica,sans-Serif" font-size="10.00"> &lt; StVenantKirchhoffT</text>
<text text-anchor="middle" x="204" y="-48.5" font-family="Helvetica,sans-Serif" font-size="10.00">&lt; ScalarType &gt; &gt;</text>
</g>
<!-- Node3 -->
<g id="node3" class="node">
<title>Node3</title>
<g id="a_node3"><a xlink:href="a01389.html" target="_top" xlink:title="Implementation of the Linear Elasticity material model.The energy is computed as.">
<polygon fill="white" stroke="black" points="631,-200.5 631,-230.5 758,-230.5 758,-200.5 631,-200.5"/>
<text text-anchor="start" x="639" y="-218.5" font-family="Helvetica,sans-Serif" font-size="10.00">Ikarus::LinearElasticity</text>
<text text-anchor="middle" x="694.5" y="-207.5" font-family="Helvetica,sans-Serif" font-size="10.00">T&lt; ST &gt;</text>
</a>
</g>
</g>
<!-- Node2&#45;&gt;Node3 -->
<g id="edge2" class="edge">
<title>Node2&#45;&gt;Node3</title>
<path fill="none" stroke="midnightblue" d="M435.13,-215.5C494.35,-215.5 575.49,-215.5 630.94,-215.5"/>
<polygon fill="midnightblue" stroke="midnightblue" points="435.09,-212 425.09,-215.5 435.09,-219 435.09,-212"/>
</g>
<!-- Node5 -->
<g id="node5" class="node">
<title>Node5</title>
<g id="a_node5"><a xlink:href="a01393.html" target="_top" xlink:title="Implementation of the Neo&#45;Hookean material model.The energy is computed as.">
<polygon fill="white" stroke="black" points="623,-157 623,-176 766,-176 766,-157 623,-157"/>
<text text-anchor="middle" x="694.5" y="-164" font-family="Helvetica,sans-Serif" font-size="10.00">Ikarus::NeoHookeT&lt; ST &gt;</text>
</a>
</g>
</g>
<!-- Node4&#45;&gt;Node5 -->
<g id="edge4" class="edge">
<title>Node4&#45;&gt;Node5</title>
<path fill="none" stroke="midnightblue" d="M445.43,-166.5C500.58,-166.5 571.16,-166.5 622.93,-166.5"/>
<polygon fill="midnightblue" stroke="midnightblue" points="445.32,-163 435.32,-166.5 445.32,-170 445.32,-163"/>
</g>
<!-- Node7 -->
<g id="node7" class="node">
<title>Node7</title>
<g id="a_node7"><a xlink:href="a01397.html" target="_top" xlink:title="Implementation of the Saint Venant&#45;Kirchhoff material model.The energy is computed as.">
<polygon fill="white" stroke="black" points="625,-98.5 625,-128.5 764,-128.5 764,-98.5 625,-98.5"/>
<text text-anchor="start" x="633" y="-116.5" font-family="Helvetica,sans-Serif" font-size="10.00">Ikarus::StVenantKirchhoff</text>
<text text-anchor="middle" x="694.5" y="-105.5" font-family="Helvetica,sans-Serif" font-size="10.00">T&lt; ST &gt;</text>
</a>
</g>
</g>
<!-- Node6&#45;&gt;Node7 -->
<g id="edge6" class="edge">
<title>Node6&#45;&gt;Node7</title>
<path fill="none" stroke="midnightblue" d="M441.88,-116.51C498.17,-115.84 571.74,-114.96 624.77,-114.32"/>
<polygon fill="midnightblue" stroke="midnightblue" points="441.54,-113.01 431.58,-116.63 441.62,-120.01 441.54,-113.01"/>
</g>
<!-- Node8 -->
<g id="node8" class="node">
<title>Node8</title>
<g id="a_node8"><a xlink:href="a01397.html" target="_top" xlink:title=" ">
<polygon fill="white" stroke="black" points="881,-18.5 881,-48.5 1020,-48.5 1020,-18.5 881,-18.5"/>
<text text-anchor="start" x="889" y="-36.5" font-family="Helvetica,sans-Serif" font-size="10.00">Ikarus::StVenantKirchhoff</text>
<text text-anchor="middle" x="950.5" y="-25.5" font-family="Helvetica,sans-Serif" font-size="10.00">T&lt; ScalarType &gt;</text>
</a>
</g>
</g>
<!-- Node7&#45;&gt;Node8 -->
<g id="edge7" class="edge">
<title>Node7&#45;&gt;Node8</title>
<path fill="none" stroke="orange" stroke-dasharray="5,2" d="M752.86,-95.43C797.68,-81.32 859.27,-61.92 901.51,-48.62"/>
<polygon fill="orange" stroke="orange" points="751.76,-92.11 743.28,-98.45 753.87,-98.79 751.76,-92.11"/>
<text text-anchor="middle" x="823.5" y="-87.5" font-family="Helvetica,sans-Serif" font-size="10.00"> &lt; ScalarType &gt;</text>
</g>
<!-- Node10 -->
<g id="node10" class="node">
<title>Node10</title>
<g id="a_node10"><a xlink:href="a01405.html" target="_top" xlink:title="VanishingStress material model that enforces stress components to be zero.">
<polygon fill="white" stroke="black" points="629,-47.5 629,-77.5 760,-77.5 760,-47.5 629,-47.5"/>
<text text-anchor="start" x="637" y="-65.5" font-family="Helvetica,sans-Serif" font-size="10.00">Ikarus::VanishingStress</text>
<text text-anchor="middle" x="694.5" y="-54.5" font-family="Helvetica,sans-Serif" font-size="10.00">&lt; stressIndexPair, MI &gt;</text>
</a>
</g>
</g>
<!-- Node9&#45;&gt;Node10 -->
<g id="edge9" class="edge">
<title>Node9&#45;&gt;Node10</title>
<path fill="none" stroke="midnightblue" d="M443.82,-62.5C501.36,-62.5 576.25,-62.5 628.95,-62.5"/>
<polygon fill="midnightblue" stroke="midnightblue" points="443.65,-59 433.65,-62.5 443.65,-66 443.65,-59"/>
</g>
<!-- Node11&#45;&gt;Node8 -->
<g id="edge11" class="edge">
<title>Node11&#45;&gt;Node8</title>
<path fill="none" stroke="midnightblue" d="M615.81,-19.18C694.15,-22.54 808.45,-27.45 880.88,-30.56"/>
<polygon fill="midnightblue" stroke="midnightblue" points="615.62,-15.67 605.48,-18.74 615.32,-22.66 615.62,-15.67"/>
</g>
</g>
</svg>
