<?xml version="1.0" encoding="UTF-8" standalone="no"?>
<!DOCTYPE svg PUBLIC "-//W3C//DTD SVG 1.1//EN"
 "http://www.w3.org/Graphics/SVG/1.1/DTD/svg11.dtd">
<!-- Generated by graphviz version 2.43.0 (0)
 -->
<!-- Title: Ikarus::Volume&lt; DFE, Traits &gt; Pages: 1 -->
<svg width="756pt" height="223pt"
 viewBox="0.00 0.00 756.00 222.50" xmlns="http://www.w3.org/2000/svg" xmlns:xlink="http://www.w3.org/1999/xlink">
<g id="graph0" class="graph" transform="scale(1 1) rotate(0) translate(4 218.5)">
<title>Ikarus::Volume&lt; DFE, Traits &gt;</title>
<polygon fill="white" stroke="transparent" points="-4,4 -4,-218.5 752,-218.5 752,4 -4,4"/>
<!-- Node1 -->
<g id="node1" class="node">
<title>Node1</title>
<g id="a_node1"><a xlink:title="Volume class represents distributed volume load that can be applied.">
<polygon fill="#bfbfbf" stroke="black" points="0,-82.5 0,-112.5 122,-112.5 122,-82.5 0,-82.5"/>
<text text-anchor="start" x="8" y="-100.5" font-family="Helvetica,sans-Serif" font-size="10.00">Ikarus::Volume&lt; DFE,</text>
<text text-anchor="middle" x="61" y="-89.5" font-family="Helvetica,sans-Serif" font-size="10.00"> Traits &gt;</text>
</a>
</g>
</g>
<!-- Node2 -->
<g id="node2" class="node">
<title>Node2</title>
<g id="a_node2"><a xlink:href="a01306.html" target="_top" xlink:title=" ">
<polygon fill="white" stroke="black" points="324,-142.5 324,-194.5 547,-194.5 547,-142.5 324,-142.5"/>
<text text-anchor="start" x="332" y="-182.5" font-family="Helvetica,sans-Serif" font-size="10.00">Ikarus::Volume&lt; Kirchhoff</text>
<text text-anchor="start" x="332" y="-171.5" font-family="Helvetica,sans-Serif" font-size="10.00">LoveShell&lt; B, FERequirements</text>
<text text-anchor="start" x="332" y="-160.5" font-family="Helvetica,sans-Serif" font-size="10.00">&lt;&gt;, false &gt;, FETraits&lt; B, FERequirements</text>
<text text-anchor="middle" x="435.5" y="-149.5" font-family="Helvetica,sans-Serif" font-size="10.00">&lt;&gt;, false &gt; &gt;</text>
</a>
</g>
</g>
<!-- Node1&#45;&gt;Node2 -->
<g id="edge1" class="edge">
<title>Node1&#45;&gt;Node2</title>
<path fill="none" stroke="orange" stroke-dasharray="5,2" d="M89.63,-118.45C103.9,-128.12 122.06,-138.72 140,-144.5 198.83,-163.46 267.53,-169.89 323.77,-171.38"/>
<polygon fill="orange" stroke="orange" points="91.48,-115.48 81.28,-112.61 87.47,-121.21 91.48,-115.48"/>
<text text-anchor="start" x="146.5" y="-206.5" font-family="Helvetica,sans-Serif" font-size="10.00"> &lt; KirchhoffLoveShell</text>
<text text-anchor="start" x="146.5" y="-195.5" font-family="Helvetica,sans-Serif" font-size="10.00">&lt; B, FERequirements&lt;&gt;</text>
<text text-anchor="start" x="146.5" y="-184.5" font-family="Helvetica,sans-Serif" font-size="10.00">, false &gt;, FETraits&lt; B,</text>
<text text-anchor="middle" x="223" y="-173.5" font-family="Helvetica,sans-Serif" font-size="10.00"> FERequirements&lt;&gt;, false &gt; &gt;</text>
</g>
<!-- Node4 -->
<g id="node4" class="node">
<title>Node4</title>
<g id="a_node4"><a xlink:href="a01306.html" target="_top" xlink:title=" ">
<polygon fill="white" stroke="black" points="347.5,-71.5 347.5,-123.5 523.5,-123.5 523.5,-71.5 347.5,-71.5"/>
<text text-anchor="start" x="355.5" y="-111.5" font-family="Helvetica,sans-Serif" font-size="10.00">Ikarus::Volume&lt; LinearElastic</text>
<text text-anchor="start" x="355.5" y="-100.5" font-family="Helvetica,sans-Serif" font-size="10.00">&lt; B, FERequirements&lt;&gt;, false</text>
<text text-anchor="start" x="355.5" y="-89.5" font-family="Helvetica,sans-Serif" font-size="10.00"> &gt;, FETraits&lt; B, FERequirements</text>
<text text-anchor="middle" x="435.5" y="-78.5" font-family="Helvetica,sans-Serif" font-size="10.00">&lt;&gt;, false &gt; &gt;</text>
</a>
</g>
</g>
<!-- Node1&#45;&gt;Node4 -->
<g id="edge3" class="edge">
<title>Node1&#45;&gt;Node4</title>
<path fill="none" stroke="orange" stroke-dasharray="5,2" d="M132.56,-97.5C193.51,-97.5 281.83,-97.5 347.22,-97.5"/>
<polygon fill="orange" stroke="orange" points="132.26,-94 122.26,-97.5 132.26,-101 132.26,-94"/>
<text text-anchor="start" x="143" y="-133.5" font-family="Helvetica,sans-Serif" font-size="10.00"> &lt; LinearElastic&lt; B,</text>
<text text-anchor="start" x="143" y="-122.5" font-family="Helvetica,sans-Serif" font-size="10.00"> FERequirements&lt;&gt;, false</text>
<text text-anchor="start" x="143" y="-111.5" font-family="Helvetica,sans-Serif" font-size="10.00"> &gt;, FETraits&lt; B, FERequirements</text>
<text text-anchor="middle" x="223" y="-100.5" font-family="Helvetica,sans-Serif" font-size="10.00">&lt;&gt;, false &gt; &gt;</text>
</g>
<!-- Node6 -->
<g id="node6" class="node">
<title>Node6</title>
<g id="a_node6"><a xlink:href="a01306.html" target="_top" xlink:title=" ">
<polygon fill="white" stroke="black" points="324,-0.5 324,-52.5 547,-52.5 547,-0.5 324,-0.5"/>
<text text-anchor="start" x="332" y="-40.5" font-family="Helvetica,sans-Serif" font-size="10.00">Ikarus::Volume&lt; NonLinear</text>
<text text-anchor="start" x="332" y="-29.5" font-family="Helvetica,sans-Serif" font-size="10.00">Elastic&lt; B, MAT, FERequirements</text>
<text text-anchor="start" x="332" y="-18.5" font-family="Helvetica,sans-Serif" font-size="10.00">&lt;&gt;, false &gt;, FETraits&lt; B, FERequirements</text>
<text text-anchor="middle" x="435.5" y="-7.5" font-family="Helvetica,sans-Serif" font-size="10.00">&lt;&gt;, false &gt; &gt;</text>
</a>
</g>
</g>
<!-- Node1&#45;&gt;Node6 -->
<g id="edge5" class="edge">
<title>Node1&#45;&gt;Node6</title>
<path fill="none" stroke="orange" stroke-dasharray="5,2" d="M89.26,-76.27C103.56,-66.34 121.85,-55.41 140,-49.5 198.76,-30.37 267.45,-24.15 323.71,-22.93"/>
<polygon fill="orange" stroke="orange" points="86.99,-73.6 80.91,-82.28 91.07,-79.28 86.99,-73.6"/>
<text text-anchor="start" x="140" y="-85.5" font-family="Helvetica,sans-Serif" font-size="10.00"> &lt; NonLinearElastic</text>
<text text-anchor="start" x="140" y="-74.5" font-family="Helvetica,sans-Serif" font-size="10.00">&lt; B, MAT, FERequirements</text>
<text text-anchor="start" x="140" y="-63.5" font-family="Helvetica,sans-Serif" font-size="10.00">&lt;&gt;, false &gt;, FETraits&lt;</text>
<text text-anchor="middle" x="223" y="-52.5" font-family="Helvetica,sans-Serif" font-size="10.00"> B, FERequirements&lt;&gt;, false &gt; &gt;</text>
</g>
<!-- Node3 -->
<g id="node3" class="node">
<title>Node3</title>
<g id="a_node3"><a xlink:href="a01290.html" target="_top" xlink:title="Kirchhoff&#45;Love shell finite element class.">
<polygon fill="white" stroke="black" points="594.5,-153.5 594.5,-183.5 737.5,-183.5 737.5,-153.5 594.5,-153.5"/>
<text text-anchor="start" x="602.5" y="-171.5" font-family="Helvetica,sans-Serif" font-size="10.00">Ikarus::KirchhoffLoveShell</text>
<text text-anchor="middle" x="666" y="-160.5" font-family="Helvetica,sans-Serif" font-size="10.00">&lt; B, FER, useEigenRef &gt;</text>
</a>
</g>
</g>
<!-- Node2&#45;&gt;Node3 -->
<g id="edge2" class="edge">
<title>Node2&#45;&gt;Node3</title>
<path fill="none" stroke="midnightblue" d="M557.23,-168.5C569.9,-168.5 582.45,-168.5 594.28,-168.5"/>
<polygon fill="midnightblue" stroke="midnightblue" points="557.07,-165 547.07,-168.5 557.07,-172 557.07,-165"/>
</g>
<!-- Node5 -->
<g id="node5" class="node">
<title>Node5</title>
<g id="a_node5"><a xlink:href="a01298.html" target="_top" xlink:title="LinearElastic class represents a linear elastic finite element.">
<polygon fill="white" stroke="black" points="597.5,-82.5 597.5,-112.5 734.5,-112.5 734.5,-82.5 597.5,-82.5"/>
<text text-anchor="start" x="605.5" y="-100.5" font-family="Helvetica,sans-Serif" font-size="10.00">Ikarus::LinearElastic</text>
<text text-anchor="middle" x="666" y="-89.5" font-family="Helvetica,sans-Serif" font-size="10.00">&lt; B, FER, useEigenRef &gt;</text>
</a>
</g>
</g>
<!-- Node4&#45;&gt;Node5 -->
<g id="edge4" class="edge">
<title>Node4&#45;&gt;Node5</title>
<path fill="none" stroke="midnightblue" d="M533.66,-97.5C555.12,-97.5 577.41,-97.5 597.39,-97.5"/>
<polygon fill="midnightblue" stroke="midnightblue" points="533.54,-94 523.54,-97.5 533.54,-101 533.54,-94"/>
</g>
<!-- Node7 -->
<g id="node7" class="node">
<title>Node7</title>
<g id="a_node7"><a xlink:href="a01338.html" target="_top" xlink:title="NonLinearElastic class represents a non&#45;linear elastic finite element.">
<polygon fill="white" stroke="black" points="584,-11.5 584,-41.5 748,-41.5 748,-11.5 584,-11.5"/>
<text text-anchor="start" x="592" y="-29.5" font-family="Helvetica,sans-Serif" font-size="10.00">Ikarus::NonLinearElastic</text>
<text text-anchor="middle" x="666" y="-18.5" font-family="Helvetica,sans-Serif" font-size="10.00">&lt; B, MAT, FER, useEigenRef &gt;</text>
</a>
</g>
</g>
<!-- Node6&#45;&gt;Node7 -->
<g id="edge6" class="edge">
<title>Node6&#45;&gt;Node7</title>
<path fill="none" stroke="midnightblue" d="M557.26,-26.5C566.27,-26.5 575.23,-26.5 583.91,-26.5"/>
<polygon fill="midnightblue" stroke="midnightblue" points="557.07,-23 547.07,-26.5 557.07,-30 557.07,-23"/>
</g>
</g>
</svg>
