<?xml version="1.0" encoding="UTF-8" standalone="no"?>
<!DOCTYPE svg PUBLIC "-//W3C//DTD SVG 1.1//EN"
 "http://www.w3.org/Graphics/SVG/1.1/DTD/svg11.dtd">
<!-- Generated by graphviz version 2.43.0 (0)
 -->
<!-- Title: Ikarus::Traction&lt; DFE, Traits &gt; Pages: 1 -->
<svg width="758pt" height="223pt"
 viewBox="0.00 0.00 758.00 222.50" xmlns="http://www.w3.org/2000/svg" xmlns:xlink="http://www.w3.org/1999/xlink">
<g id="graph0" class="graph" transform="scale(1 1) rotate(0) translate(4 218.5)">
<title>Ikarus::Traction&lt; DFE, Traits &gt;</title>
<polygon fill="white" stroke="transparent" points="-4,4 -4,-218.5 754,-218.5 754,4 -4,4"/>
<!-- Node1 -->
<g id="node1" class="node">
<title>Node1</title>
<g id="a_node1"><a xlink:title="Traction class represents distributed traction load that can be applied.">
<polygon fill="#bfbfbf" stroke="black" points="0,-82.5 0,-112.5 124,-112.5 124,-82.5 0,-82.5"/>
<text text-anchor="start" x="8" y="-100.5" font-family="Helvetica,sans-Serif" font-size="10.00">Ikarus::Traction&lt; DFE,</text>
<text text-anchor="middle" x="62" y="-89.5" font-family="Helvetica,sans-Serif" font-size="10.00"> Traits &gt;</text>
</a>
</g>
</g>
<!-- Node2 -->
<g id="node2" class="node">
<title>Node2</title>
<g id="a_node2"><a xlink:href="a01302.html" target="_top" xlink:title=" ">
<polygon fill="white" stroke="black" points="326,-142.5 326,-194.5 549,-194.5 549,-142.5 326,-142.5"/>
<text text-anchor="start" x="334" y="-182.5" font-family="Helvetica,sans-Serif" font-size="10.00">Ikarus::Traction&lt; Kirchhoff</text>
<text text-anchor="start" x="334" y="-171.5" font-family="Helvetica,sans-Serif" font-size="10.00">LoveShell&lt; B, FERequirements</text>
<text text-anchor="start" x="334" y="-160.5" font-family="Helvetica,sans-Serif" font-size="10.00">&lt;&gt;, false &gt;, FETraits&lt; B, FERequirements</text>
<text text-anchor="middle" x="437.5" y="-149.5" font-family="Helvetica,sans-Serif" font-size="10.00">&lt;&gt;, false &gt; &gt;</text>
</a>
</g>
</g>
<!-- Node1&#45;&gt;Node2 -->
<g id="edge1" class="edge">
<title>Node1&#45;&gt;Node2</title>
<path fill="none" stroke="orange" stroke-dasharray="5,2" d="M91.02,-118.45C105.49,-128.12 123.87,-138.71 142,-144.5 200.89,-163.3 269.59,-169.72 325.81,-171.25"/>
<polygon fill="orange" stroke="orange" points="92.78,-115.41 82.56,-112.6 88.8,-121.17 92.78,-115.41"/>
<text text-anchor="start" x="148.5" y="-206.5" font-family="Helvetica,sans-Serif" font-size="10.00"> &lt; KirchhoffLoveShell</text>
<text text-anchor="start" x="148.5" y="-195.5" font-family="Helvetica,sans-Serif" font-size="10.00">&lt; B, FERequirements&lt;&gt;</text>
<text text-anchor="start" x="148.5" y="-184.5" font-family="Helvetica,sans-Serif" font-size="10.00">, false &gt;, FETraits&lt; B,</text>
<text text-anchor="middle" x="225" y="-173.5" font-family="Helvetica,sans-Serif" font-size="10.00"> FERequirements&lt;&gt;, false &gt; &gt;</text>
</g>
<!-- Node4 -->
<g id="node4" class="node">
<title>Node4</title>
<g id="a_node4"><a xlink:href="a01302.html" target="_top" xlink:title=" ">
<polygon fill="white" stroke="black" points="353,-71.5 353,-123.5 522,-123.5 522,-71.5 353,-71.5"/>
<text text-anchor="start" x="361" y="-111.5" font-family="Helvetica,sans-Serif" font-size="10.00">Ikarus::Traction&lt; Linear</text>
<text text-anchor="start" x="361" y="-100.5" font-family="Helvetica,sans-Serif" font-size="10.00">Elastic&lt; B, FERequirements</text>
<text text-anchor="start" x="361" y="-89.5" font-family="Helvetica,sans-Serif" font-size="10.00">&lt;&gt;, false &gt;, FETraits&lt; B,</text>
<text text-anchor="middle" x="437.5" y="-78.5" font-family="Helvetica,sans-Serif" font-size="10.00"> FERequirements&lt;&gt;, false &gt; &gt;</text>
</a>
</g>
</g>
<!-- Node1&#45;&gt;Node4 -->
<g id="edge3" class="edge">
<title>Node1&#45;&gt;Node4</title>
<path fill="none" stroke="orange" stroke-dasharray="5,2" d="M134.39,-97.5C196.7,-97.5 287.17,-97.5 352.86,-97.5"/>
<polygon fill="orange" stroke="orange" points="134.26,-94 124.26,-97.5 134.26,-101 134.26,-94"/>
<text text-anchor="start" x="145" y="-133.5" font-family="Helvetica,sans-Serif" font-size="10.00"> &lt; LinearElastic&lt; B,</text>
<text text-anchor="start" x="145" y="-122.5" font-family="Helvetica,sans-Serif" font-size="10.00"> FERequirements&lt;&gt;, false</text>
<text text-anchor="start" x="145" y="-111.5" font-family="Helvetica,sans-Serif" font-size="10.00"> &gt;, FETraits&lt; B, FERequirements</text>
<text text-anchor="middle" x="225" y="-100.5" font-family="Helvetica,sans-Serif" font-size="10.00">&lt;&gt;, false &gt; &gt;</text>
</g>
<!-- Node6 -->
<g id="node6" class="node">
<title>Node6</title>
<g id="a_node6"><a xlink:href="a01302.html" target="_top" xlink:title=" ">
<polygon fill="white" stroke="black" points="326,-0.5 326,-52.5 549,-52.5 549,-0.5 326,-0.5"/>
<text text-anchor="start" x="334" y="-40.5" font-family="Helvetica,sans-Serif" font-size="10.00">Ikarus::Traction&lt; NonLinear</text>
<text text-anchor="start" x="334" y="-29.5" font-family="Helvetica,sans-Serif" font-size="10.00">Elastic&lt; B, MAT, FERequirements</text>
<text text-anchor="start" x="334" y="-18.5" font-family="Helvetica,sans-Serif" font-size="10.00">&lt;&gt;, false &gt;, FETraits&lt; B, FERequirements</text>
<text text-anchor="middle" x="437.5" y="-7.5" font-family="Helvetica,sans-Serif" font-size="10.00">&lt;&gt;, false &gt; &gt;</text>
</a>
</g>
</g>
<!-- Node1&#45;&gt;Node6 -->
<g id="edge5" class="edge">
<title>Node1&#45;&gt;Node6</title>
<path fill="none" stroke="orange" stroke-dasharray="5,2" d="M90.65,-76.28C105.14,-66.34 123.66,-55.41 142,-49.5 200.81,-30.53 269.51,-24.33 325.75,-23.07"/>
<polygon fill="orange" stroke="orange" points="88.32,-73.64 82.19,-82.28 92.37,-79.35 88.32,-73.64"/>
<text text-anchor="start" x="142" y="-85.5" font-family="Helvetica,sans-Serif" font-size="10.00"> &lt; NonLinearElastic</text>
<text text-anchor="start" x="142" y="-74.5" font-family="Helvetica,sans-Serif" font-size="10.00">&lt; B, MAT, FERequirements</text>
<text text-anchor="start" x="142" y="-63.5" font-family="Helvetica,sans-Serif" font-size="10.00">&lt;&gt;, false &gt;, FETraits&lt;</text>
<text text-anchor="middle" x="225" y="-52.5" font-family="Helvetica,sans-Serif" font-size="10.00"> B, FERequirements&lt;&gt;, false &gt; &gt;</text>
</g>
<!-- Node3 -->
<g id="node3" class="node">
<title>Node3</title>
<g id="a_node3"><a xlink:href="a01290.html" target="_top" xlink:title="Kirchhoff&#45;Love shell finite element class.">
<polygon fill="white" stroke="black" points="596.5,-153.5 596.5,-183.5 739.5,-183.5 739.5,-153.5 596.5,-153.5"/>
<text text-anchor="start" x="604.5" y="-171.5" font-family="Helvetica,sans-Serif" font-size="10.00">Ikarus::KirchhoffLoveShell</text>
<text text-anchor="middle" x="668" y="-160.5" font-family="Helvetica,sans-Serif" font-size="10.00">&lt; B, FER, useEigenRef &gt;</text>
</a>
</g>
</g>
<!-- Node2&#45;&gt;Node3 -->
<g id="edge2" class="edge">
<title>Node2&#45;&gt;Node3</title>
<path fill="none" stroke="midnightblue" d="M559.23,-168.5C571.9,-168.5 584.45,-168.5 596.28,-168.5"/>
<polygon fill="midnightblue" stroke="midnightblue" points="559.07,-165 549.07,-168.5 559.07,-172 559.07,-165"/>
</g>
<!-- Node5 -->
<g id="node5" class="node">
<title>Node5</title>
<g id="a_node5"><a xlink:href="a01298.html" target="_top" xlink:title="LinearElastic class represents a linear elastic finite element.">
<polygon fill="white" stroke="black" points="599.5,-82.5 599.5,-112.5 736.5,-112.5 736.5,-82.5 599.5,-82.5"/>
<text text-anchor="start" x="607.5" y="-100.5" font-family="Helvetica,sans-Serif" font-size="10.00">Ikarus::LinearElastic</text>
<text text-anchor="middle" x="668" y="-89.5" font-family="Helvetica,sans-Serif" font-size="10.00">&lt; B, FER, useEigenRef &gt;</text>
</a>
</g>
</g>
<!-- Node4&#45;&gt;Node5 -->
<g id="edge4" class="edge">
<title>Node4&#45;&gt;Node5</title>
<path fill="none" stroke="midnightblue" d="M532.49,-97.5C554.88,-97.5 578.35,-97.5 599.3,-97.5"/>
<polygon fill="midnightblue" stroke="midnightblue" points="532.29,-94 522.29,-97.5 532.29,-101 532.29,-94"/>
</g>
<!-- Node7 -->
<g id="node7" class="node">
<title>Node7</title>
<g id="a_node7"><a xlink:href="a01338.html" target="_top" xlink:title="NonLinearElastic class represents a non&#45;linear elastic finite element.">
<polygon fill="white" stroke="black" points="586,-11.5 586,-41.5 750,-41.5 750,-11.5 586,-11.5"/>
<text text-anchor="start" x="594" y="-29.5" font-family="Helvetica,sans-Serif" font-size="10.00">Ikarus::NonLinearElastic</text>
<text text-anchor="middle" x="668" y="-18.5" font-family="Helvetica,sans-Serif" font-size="10.00">&lt; B, MAT, FER, useEigenRef &gt;</text>
</a>
</g>
</g>
<!-- Node6&#45;&gt;Node7 -->
<g id="edge6" class="edge">
<title>Node6&#45;&gt;Node7</title>
<path fill="none" stroke="midnightblue" d="M559.26,-26.5C568.27,-26.5 577.23,-26.5 585.91,-26.5"/>
<polygon fill="midnightblue" stroke="midnightblue" points="559.07,-23 549.07,-26.5 559.07,-30 559.07,-23"/>
</g>
</g>
</svg>
