<?xml version="1.0" encoding="UTF-8" standalone="no"?>
<!DOCTYPE svg PUBLIC "-//W3C//DTD SVG 1.1//EN"
 "http://www.w3.org/Graphics/SVG/1.1/DTD/svg11.dtd">
<!-- Generated by graphviz version 2.43.0 (0)
 -->
<!-- Title: ikarus Pages: 1 -->
<svg width="775pt" height="380pt"
 viewBox="0.00 0.00 775.00 380.00" xmlns="http://www.w3.org/2000/svg" xmlns:xlink="http://www.w3.org/1999/xlink">
<g id="graph0" class="graph" transform="scale(1 1) rotate(0) translate(4 376)">
<title>ikarus</title>
<polygon fill="white" stroke="transparent" points="-4,4 -4,-376 771,-376 771,4 -4,4"/>
<g id="clust1" class="cluster">
<title>clusterdir_5bec9ec6c6b8ab3f2f9d60d2ff21ed81</title>
<g id="a_clust1"><a xlink:href="dir_5bec9ec6c6b8ab3f2f9d60d2ff21ed81.html" target="_top">
<polygon fill="#edf0f7" stroke="#404040" stroke-width="2" points="8,-8 8,-364 759,-364 759,-8 8,-8"/>
</a>
</g>
</g>
<g id="clust2" class="cluster">
<title>clusterdir_f5e28093cb075fb92f2345f7d8607df6</title>
<g id="a_clust2"><a xlink:href="dir_f5e28093cb075fb92f2345f7d8607df6.html" target="_top">
<polygon fill="#dfe5f1" stroke="#404040" points="40,-152 40,-292 376,-292 376,-152 40,-152"/>
</a>
</g>
</g>
<g id="clust3" class="cluster">
<title>clusterdir_d9d7fab038fcca5270fe0241ec433d4d</title>
<g id="a_clust3"><a xlink:href="dir_d9d7fab038fcca5270fe0241ec433d4d.html" target="_top">
<polygon fill="#d0d9ea" stroke="#404040" points="48,-160 48,-284 272,-284 272,-160 48,-160"/>
</a>
</g>
</g>
<g id="clust4" class="cluster">
<title>clusterdir_6063e92d97cad5a47908d6a96069b24d</title>
<g id="a_clust4"><a xlink:href="dir_6063e92d97cad5a47908d6a96069b24d.html" target="_top">
<polygon fill="#dfe5f1" stroke="#404040" points="238,-304 238,-356 751,-356 751,-304 238,-304"/>
</a>
</g>
</g>
<g id="clust5" class="cluster">
<title>clusterdir_26588bed129c997bc132e8888f2113fa</title>
<g id="a_clust5"><a xlink:href="dir_26588bed129c997bc132e8888f2113fa.html" target="_top">
<polygon fill="#dfe5f1" stroke="#404040" points="481,-16 481,-140 661,-140 661,-16 481,-16"/>
</a>
</g>
</g>
<g id="clust6" class="cluster">
<title>clusterdir_36505a9bfb81f81ed7a4e794d4cf597e</title>
<g id="a_clust6"><a xlink:href="dir_36505a9bfb81f81ed7a4e794d4cf597e.html" target="_top">
<polygon fill="#dfe5f1" stroke="#404040" points="249,-16 249,-68 471,-68 471,-16 249,-16"/>
</a>
</g>
</g>
<!-- dir_5bec9ec6c6b8ab3f2f9d60d2ff21ed81 -->
<g id="node1" class="node">
<title>dir_5bec9ec6c6b8ab3f2f9d60d2ff21ed81</title>
<text text-anchor="middle" x="201" y="-327.5" font-family="Helvetica,sans-Serif" font-size="10.00">ikarus</text>
</g>
<!-- dir_b4e169eb0efbd955079f9a2ee34b7226 -->
<g id="node2" class="node">
<title>dir_b4e169eb0efbd955079f9a2ee34b7226</title>
<g id="a_node2"><a xlink:href="dir_b4e169eb0efbd955079f9a2ee34b7226.html" target="_top" xlink:title="assembler">
<polygon fill="#dfe5f1" stroke="#404040" points="156,-348 88,-348 88,-312 156,-312 156,-348"/>
<text text-anchor="middle" x="122" y="-327.5" font-family="Helvetica,sans-Serif" font-size="10.00">assembler</text>
</a>
</g>
</g>
<!-- dir_f5e28093cb075fb92f2345f7d8607df6 -->
<g id="node4" class="node">
<title>dir_f5e28093cb075fb92f2345f7d8607df6</title>
<text text-anchor="middle" x="324" y="-255.5" font-family="Helvetica,sans-Serif" font-size="10.00">finiteelements</text>
</g>
<!-- dir_b4e169eb0efbd955079f9a2ee34b7226&#45;&gt;dir_f5e28093cb075fb92f2345f7d8607df6 -->
<g id="edge2" class="edge">
<title>dir_b4e169eb0efbd955079f9a2ee34b7226&#45;&gt;dir_f5e28093cb075fb92f2345f7d8607df6</title>
<path fill="none" stroke="black" d="M147.55,-311.83C153.11,-308.76 159.09,-305.94 165,-304 212.15,-288.52 229.47,-309.25 276,-292 282.63,-289.54 289.21,-285.97 295.28,-282.07"/>
<polygon fill="black" stroke="black" points="297.52,-284.78 303.76,-276.22 293.54,-279.02 297.52,-284.78"/>
<g id="a_edge2&#45;headlabel"><a xlink:href="dir_000000_000011.html" target="_top" xlink:title="1">
<text text-anchor="middle" x="296.17" y="-286.66" font-family="Helvetica,sans-Serif" font-size="10.00">1</text>
</a>
</g>
</g>
<!-- dir_36505a9bfb81f81ed7a4e794d4cf597e -->
<g id="node20" class="node">
<title>dir_36505a9bfb81f81ed7a4e794d4cf597e</title>
<text text-anchor="middle" x="284" y="-39.5" font-family="Helvetica,sans-Serif" font-size="10.00">utils</text>
</g>
<!-- dir_b4e169eb0efbd955079f9a2ee34b7226&#45;&gt;dir_36505a9bfb81f81ed7a4e794d4cf597e -->
<g id="edge1" class="edge">
<title>dir_b4e169eb0efbd955079f9a2ee34b7226&#45;&gt;dir_36505a9bfb81f81ed7a4e794d4cf597e</title>
<path fill="none" stroke="black" d="M147.02,-311.84C152.7,-308.7 158.88,-305.83 165,-304 187.92,-297.13 363.56,-309.38 380,-292 401.38,-269.4 399.83,-175.97 380,-152 361.83,-130.04 338.51,-158.7 317,-140 296.92,-122.55 289.04,-92.39 285.96,-70.32"/>
<polygon fill="black" stroke="black" points="289.42,-69.77 284.8,-60.23 282.46,-70.57 289.42,-69.77"/>
<g id="a_edge1&#45;headlabel"><a xlink:href="dir_000000_000027.html" target="_top" xlink:title="1">
<text text-anchor="middle" x="292.65" y="-70.51" font-family="Helvetica,sans-Serif" font-size="10.00">1</text>
</a>
</g>
</g>
<!-- dir_a97b071c9c6f7bcc51f4d0bc7519f177 -->
<g id="node3" class="node">
<title>dir_a97b071c9c6f7bcc51f4d0bc7519f177</title>
<g id="a_node3"><a xlink:href="dir_a97b071c9c6f7bcc51f4d0bc7519f177.html" target="_top" xlink:title="controlroutines">
<polygon fill="#dfe5f1" stroke="#404040" points="471,-132 381,-132 381,-96 471,-96 471,-132"/>
<text text-anchor="middle" x="426" y="-111.5" font-family="Helvetica,sans-Serif" font-size="10.00">controlroutines</text>
</a>
</g>
</g>
<!-- dir_bcdbbdf4d2b6b627956abd47159b4d71 -->
<g id="node18" class="node">
<title>dir_bcdbbdf4d2b6b627956abd47159b4d71</title>
<g id="a_node18"><a xlink:href="dir_bcdbbdf4d2b6b627956abd47159b4d71.html" target="_top" xlink:title="linearsolver">
<polygon fill="#d0d9ea" stroke="#404040" points="567,-60 493,-60 493,-24 567,-24 567,-60"/>
<text text-anchor="middle" x="530" y="-39.5" font-family="Helvetica,sans-Serif" font-size="10.00">linearsolver</text>
</a>
</g>
</g>
<!-- dir_a97b071c9c6f7bcc51f4d0bc7519f177&#45;&gt;dir_bcdbbdf4d2b6b627956abd47159b4d71 -->
<g id="edge5" class="edge">
<title>dir_a97b071c9c6f7bcc51f4d0bc7519f177&#45;&gt;dir_bcdbbdf4d2b6b627956abd47159b4d71</title>
<path fill="none" stroke="black" d="M451.44,-95.88C464.79,-86.89 481.32,-75.76 495.78,-66.03"/>
<polygon fill="black" stroke="black" points="498.12,-68.68 504.46,-60.19 494.21,-62.87 498.12,-68.68"/>
<g id="a_edge5&#45;headlabel"><a xlink:href="dir_000004_000017.html" target="_top" xlink:title="1">
<text text-anchor="middle" x="496.72" y="-70.54" font-family="Helvetica,sans-Serif" font-size="10.00">1</text>
</a>
</g>
</g>
<!-- dir_bf30182dc97724dc8c2a6cdd4c321688 -->
<g id="node19" class="node">
<title>dir_bf30182dc97724dc8c2a6cdd4c321688</title>
<g id="a_node19"><a xlink:href="dir_bf30182dc97724dc8c2a6cdd4c321688.html" target="_top" xlink:title="nonlinearsolver">
<polygon fill="#d0d9ea" stroke="#404040" points="581,-132 489,-132 489,-96 581,-96 581,-132"/>
<text text-anchor="middle" x="535" y="-111.5" font-family="Helvetica,sans-Serif" font-size="10.00">nonlinearsolver</text>
</a>
</g>
</g>
<!-- dir_a97b071c9c6f7bcc51f4d0bc7519f177&#45;&gt;dir_bf30182dc97724dc8c2a6cdd4c321688 -->
<g id="edge6" class="edge">
<title>dir_a97b071c9c6f7bcc51f4d0bc7519f177&#45;&gt;dir_bf30182dc97724dc8c2a6cdd4c321688</title>
<path fill="none" stroke="black" d="M471.13,-114C473.59,-114 476.04,-114 478.5,-114"/>
<polygon fill="black" stroke="black" points="478.6,-117.5 488.6,-114 478.6,-110.5 478.6,-117.5"/>
<g id="a_edge6&#45;headlabel"><a xlink:href="dir_000004_000021.html" target="_top" xlink:title="4">
<text text-anchor="middle" x="475" y="-117.84" font-family="Helvetica,sans-Serif" font-size="10.00">4</text>
</a>
</g>
</g>
<!-- dir_a97b071c9c6f7bcc51f4d0bc7519f177&#45;&gt;dir_36505a9bfb81f81ed7a4e794d4cf597e -->
<g id="edge3" class="edge">
<title>dir_a97b071c9c6f7bcc51f4d0bc7519f177&#45;&gt;dir_36505a9bfb81f81ed7a4e794d4cf597e</title>
<path fill="none" stroke="black" d="M380.94,-96.26C361.74,-88.52 339.34,-78.67 320,-68 318.67,-67.26 317.32,-66.49 315.98,-65.69"/>
<polygon fill="black" stroke="black" points="317.5,-62.51 307.18,-60.12 313.76,-68.43 317.5,-62.51"/>
<g id="a_edge3&#45;headlabel"><a xlink:href="dir_000004_000027.html" target="_top" xlink:title="10">
<text text-anchor="middle" x="322.06" y="-59.54" font-family="Helvetica,sans-Serif" font-size="10.00">10</text>
</a>
</g>
</g>
<!-- dir_8f2573d1a9c53251c08257bad1a27fd3 -->
<g id="node22" class="node">
<title>dir_8f2573d1a9c53251c08257bad1a27fd3</title>
<g id="a_node22"><a xlink:href="dir_8f2573d1a9c53251c08257bad1a27fd3.html" target="_top" xlink:title="observer">
<polygon fill="#d0d9ea" stroke="#404040" points="462.5,-60 403.5,-60 403.5,-24 462.5,-24 462.5,-60"/>
<text text-anchor="middle" x="433" y="-39.5" font-family="Helvetica,sans-Serif" font-size="10.00">observer</text>
</a>
</g>
</g>
<!-- dir_a97b071c9c6f7bcc51f4d0bc7519f177&#45;&gt;dir_8f2573d1a9c53251c08257bad1a27fd3 -->
<g id="edge4" class="edge">
<title>dir_a97b071c9c6f7bcc51f4d0bc7519f177&#45;&gt;dir_8f2573d1a9c53251c08257bad1a27fd3</title>
<path fill="none" stroke="black" d="M427.73,-95.7C428.5,-87.98 429.43,-78.71 430.29,-70.11"/>
<polygon fill="black" stroke="black" points="433.78,-70.4 431.29,-60.1 426.81,-69.71 433.78,-70.4"/>
<g id="a_edge4&#45;headlabel"><a xlink:href="dir_000004_000022.html" target="_top" xlink:title="6">
<text text-anchor="middle" x="436.24" y="-71.76" font-family="Helvetica,sans-Serif" font-size="10.00">6</text>
</a>
</g>
</g>
<!-- dir_f5e28093cb075fb92f2345f7d8607df6&#45;&gt;dir_36505a9bfb81f81ed7a4e794d4cf597e -->
<g id="edge7" class="edge">
<title>dir_f5e28093cb075fb92f2345f7d8607df6&#45;&gt;dir_36505a9bfb81f81ed7a4e794d4cf597e</title>
<path fill="none" stroke="black" d="M308.52,-239.73C300.8,-229.98 292.22,-217.13 288,-204 273.56,-159.04 276.43,-103.32 280.06,-70.61"/>
<polygon fill="black" stroke="black" points="283.56,-70.8 281.29,-60.45 276.61,-69.96 283.56,-70.8"/>
<g id="a_edge7&#45;headlabel"><a xlink:href="dir_000011_000027.html" target="_top" xlink:title="22">
<text text-anchor="middle" x="285.95" y="-72.21" font-family="Helvetica,sans-Serif" font-size="10.00">22</text>
</a>
</g>
</g>
<!-- dir_d9d7fab038fcca5270fe0241ec433d4d -->
<g id="node5" class="node">
<title>dir_d9d7fab038fcca5270fe0241ec433d4d</title>
<text text-anchor="middle" x="155" y="-255.5" font-family="Helvetica,sans-Serif" font-size="10.00">mechanics</text>
</g>
<!-- dir_8255788c45776b878bdf90a74000e4e1 -->
<g id="node6" class="node">
<title>dir_8255788c45776b878bdf90a74000e4e1</title>
<g id="a_node6"><a xlink:href="dir_8255788c45776b878bdf90a74000e4e1.html" target="_top" xlink:title="eas">
<polygon fill="#c1cde4" stroke="#404040" points="182,-204 128,-204 128,-168 182,-168 182,-204"/>
<text text-anchor="middle" x="155" y="-183.5" font-family="Helvetica,sans-Serif" font-size="10.00">eas</text>
</a>
</g>
</g>
<!-- dir_d9d7fab038fcca5270fe0241ec433d4d&#45;&gt;dir_8255788c45776b878bdf90a74000e4e1 -->
<g id="edge10" class="edge">
<title>dir_d9d7fab038fcca5270fe0241ec433d4d&#45;&gt;dir_8255788c45776b878bdf90a74000e4e1</title>
<path fill="none" stroke="black" d="M155,-239.7C155,-231.98 155,-222.71 155,-214.11"/>
<polygon fill="black" stroke="black" points="158.5,-214.1 155,-204.1 151.5,-214.1 158.5,-214.1"/>
<g id="a_edge10&#45;headlabel"><a xlink:href="dir_000020_000009.html" target="_top" xlink:title="2">
<text text-anchor="middle" x="161.34" y="-215.2" font-family="Helvetica,sans-Serif" font-size="10.00">2</text>
</a>
</g>
</g>
<!-- dir_31d7c48772b4fae367539a6092b906a8 -->
<g id="node7" class="node">
<title>dir_31d7c48772b4fae367539a6092b906a8</title>
<g id="a_node7"><a xlink:href="dir_31d7c48772b4fae367539a6092b906a8.html" target="_top" xlink:title="loads">
<polygon fill="#c1cde4" stroke="#404040" points="110,-204 56,-204 56,-168 110,-168 110,-204"/>
<text text-anchor="middle" x="83" y="-183.5" font-family="Helvetica,sans-Serif" font-size="10.00">loads</text>
</a>
</g>
</g>
<!-- dir_d9d7fab038fcca5270fe0241ec433d4d&#45;&gt;dir_31d7c48772b4fae367539a6092b906a8 -->
<g id="edge8" class="edge">
<title>dir_d9d7fab038fcca5270fe0241ec433d4d&#45;&gt;dir_31d7c48772b4fae367539a6092b906a8</title>
<path fill="none" stroke="black" d="M137.2,-239.7C128.4,-231.14 117.62,-220.66 108,-211.3"/>
<polygon fill="black" stroke="black" points="110.2,-208.57 100.59,-204.1 105.32,-213.58 110.2,-208.57"/>
<g id="a_edge8&#45;headlabel"><a xlink:href="dir_000020_000018.html" target="_top" xlink:title="2">
<text text-anchor="middle" x="114.76" y="-206.54" font-family="Helvetica,sans-Serif" font-size="10.00">2</text>
</a>
</g>
</g>
<!-- dir_fc403fdb7d4f9d9b203e31bf1b8a15f4 -->
<g id="node8" class="node">
<title>dir_fc403fdb7d4f9d9b203e31bf1b8a15f4</title>
<g id="a_node8"><a xlink:href="dir_fc403fdb7d4f9d9b203e31bf1b8a15f4.html" target="_top" xlink:title="materials">
<polygon fill="#c1cde4" stroke="#404040" points="263.5,-204 200.5,-204 200.5,-168 263.5,-168 263.5,-204"/>
<text text-anchor="middle" x="232" y="-183.5" font-family="Helvetica,sans-Serif" font-size="10.00">materials</text>
</a>
</g>
</g>
<!-- dir_d9d7fab038fcca5270fe0241ec433d4d&#45;&gt;dir_fc403fdb7d4f9d9b203e31bf1b8a15f4 -->
<g id="edge11" class="edge">
<title>dir_d9d7fab038fcca5270fe0241ec433d4d&#45;&gt;dir_fc403fdb7d4f9d9b203e31bf1b8a15f4</title>
<path fill="none" stroke="black" d="M174.03,-239.7C183.54,-231.05 195.21,-220.45 205.57,-211.03"/>
<polygon fill="black" stroke="black" points="208.14,-213.42 213.19,-204.1 203.43,-208.24 208.14,-213.42"/>
<g id="a_edge11&#45;headlabel"><a xlink:href="dir_000020_000019.html" target="_top" xlink:title="6">
<text text-anchor="middle" x="207.39" y="-215.44" font-family="Helvetica,sans-Serif" font-size="10.00">6</text>
</a>
</g>
</g>
<!-- dir_d9d7fab038fcca5270fe0241ec433d4d&#45;&gt;dir_36505a9bfb81f81ed7a4e794d4cf597e -->
<g id="edge9" class="edge">
<title>dir_d9d7fab038fcca5270fe0241ec433d4d&#45;&gt;dir_36505a9bfb81f81ed7a4e794d4cf597e</title>
<path fill="none" stroke="black" d="M120.3,-241.05C89.55,-226.75 49.17,-207.49 47,-204 34.78,-184.39 36.21,-172.44 47,-152 85.72,-78.67 190.3,-54.48 246.71,-46.64"/>
<polygon fill="black" stroke="black" points="247.19,-50.11 256.66,-45.36 246.29,-43.17 247.19,-50.11"/>
<g id="a_edge9&#45;headlabel"><a xlink:href="dir_000020_000027.html" target="_top" xlink:title="17">
<text text-anchor="middle" x="243.99" y="-50.89" font-family="Helvetica,sans-Serif" font-size="10.00">17</text>
</a>
</g>
</g>
<!-- dir_8255788c45776b878bdf90a74000e4e1&#45;&gt;dir_36505a9bfb81f81ed7a4e794d4cf597e -->
<g id="edge12" class="edge">
<title>dir_8255788c45776b878bdf90a74000e4e1&#45;&gt;dir_36505a9bfb81f81ed7a4e794d4cf597e</title>
<path fill="none" stroke="black" d="M170.56,-167.87C193.22,-142.92 235.44,-96.45 261.5,-67.77"/>
<polygon fill="black" stroke="black" points="264.25,-69.94 268.38,-60.19 259.07,-65.24 264.25,-69.94"/>
<g id="a_edge12&#45;headlabel"><a xlink:href="dir_000009_000027.html" target="_top" xlink:title="2">
<text text-anchor="middle" x="263.94" y="-72.01" font-family="Helvetica,sans-Serif" font-size="10.00">2</text>
</a>
</g>
</g>
<!-- dir_31d7c48772b4fae367539a6092b906a8&#45;&gt;dir_36505a9bfb81f81ed7a4e794d4cf597e -->
<g id="edge13" class="edge">
<title>dir_31d7c48772b4fae367539a6092b906a8&#45;&gt;dir_36505a9bfb81f81ed7a4e794d4cf597e</title>
<path fill="none" stroke="black" d="M101.04,-167.9C106.69,-162.69 113.02,-157.01 119,-152 150.32,-125.71 157.99,-118.7 192,-96 209.85,-84.09 230.5,-72.04 247.7,-62.46"/>
<polygon fill="black" stroke="black" points="249.8,-65.3 256.87,-57.4 246.42,-59.17 249.8,-65.3"/>
<g id="a_edge13&#45;headlabel"><a xlink:href="dir_000018_000027.html" target="_top" xlink:title="2">
<text text-anchor="middle" x="248.03" y="-67.02" font-family="Helvetica,sans-Serif" font-size="10.00">2</text>
</a>
</g>
</g>
<!-- dir_fc403fdb7d4f9d9b203e31bf1b8a15f4&#45;&gt;dir_bf30182dc97724dc8c2a6cdd4c321688 -->
<g id="edge15" class="edge">
<title>dir_fc403fdb7d4f9d9b203e31bf1b8a15f4&#45;&gt;dir_bf30182dc97724dc8c2a6cdd4c321688</title>
<path fill="none" stroke="black" d="M263.88,-182.29C312.56,-177.5 407.92,-165.53 485,-140 488.33,-138.9 491.71,-137.61 495.06,-136.21"/>
<polygon fill="black" stroke="black" points="496.69,-139.32 504.38,-132.03 493.83,-132.93 496.69,-139.32"/>
<g id="a_edge15&#45;headlabel"><a xlink:href="dir_000019_000021.html" target="_top" xlink:title="1">
<text text-anchor="middle" x="494.57" y="-140.88" font-family="Helvetica,sans-Serif" font-size="10.00">1</text>
</a>
</g>
</g>
<!-- dir_fc403fdb7d4f9d9b203e31bf1b8a15f4&#45;&gt;dir_36505a9bfb81f81ed7a4e794d4cf597e -->
<g id="edge14" class="edge">
<title>dir_fc403fdb7d4f9d9b203e31bf1b8a15f4&#45;&gt;dir_36505a9bfb81f81ed7a4e794d4cf597e</title>
<path fill="none" stroke="black" d="M238.27,-167.87C247.21,-143.46 263.7,-98.43 274.25,-69.64"/>
<polygon fill="black" stroke="black" points="277.55,-70.78 277.71,-60.19 270.98,-68.38 277.55,-70.78"/>
<g id="a_edge14&#45;headlabel"><a xlink:href="dir_000019_000027.html" target="_top" xlink:title="8">
<text text-anchor="middle" x="278.98" y="-72.63" font-family="Helvetica,sans-Serif" font-size="10.00">8</text>
</a>
</g>
</g>
<!-- dir_cd0257e5a0a5e21e0bd17a30fdd07a18 -->
<g id="node9" class="node">
<title>dir_cd0257e5a0a5e21e0bd17a30fdd07a18</title>
<g id="a_node9"><a xlink:href="dir_cd0257e5a0a5e21e0bd17a30fdd07a18.html" target="_top" xlink:title="io">
<polygon fill="#dfe5f1" stroke="#404040" points="70,-348 16,-348 16,-312 70,-312 70,-348"/>
<text text-anchor="middle" x="43" y="-327.5" font-family="Helvetica,sans-Serif" font-size="10.00">io</text>
</a>
</g>
</g>
<!-- dir_cd0257e5a0a5e21e0bd17a30fdd07a18&#45;&gt;dir_f5e28093cb075fb92f2345f7d8607df6 -->
<g id="edge17" class="edge">
<title>dir_cd0257e5a0a5e21e0bd17a30fdd07a18&#45;&gt;dir_f5e28093cb075fb92f2345f7d8607df6</title>
<path fill="none" stroke="black" d="M63.65,-311.86C68.43,-308.71 73.68,-305.85 79,-304 161.87,-275.25 193.06,-320.55 276,-292 282.81,-289.66 289.55,-286.06 295.72,-282.09"/>
<polygon fill="black" stroke="black" points="298.1,-284.7 304.31,-276.12 294.11,-278.96 298.1,-284.7"/>
<g id="a_edge17&#45;headlabel"><a xlink:href="dir_000015_000011.html" target="_top" xlink:title="1">
<text text-anchor="middle" x="296.77" y="-286.59" font-family="Helvetica,sans-Serif" font-size="10.00">1</text>
</a>
</g>
</g>
<!-- dir_cd0257e5a0a5e21e0bd17a30fdd07a18&#45;&gt;dir_36505a9bfb81f81ed7a4e794d4cf597e -->
<g id="edge16" class="edge">
<title>dir_cd0257e5a0a5e21e0bd17a30fdd07a18&#45;&gt;dir_36505a9bfb81f81ed7a4e794d4cf597e</title>
<path fill="none" stroke="black" d="M36.55,-311.73C21.5,-268.13 -10.27,-153.01 50,-96 78.05,-69.47 188.17,-53.57 246.8,-46.82"/>
<polygon fill="black" stroke="black" points="247.22,-50.29 256.77,-45.7 246.44,-43.34 247.22,-50.29"/>
<g id="a_edge16&#45;headlabel"><a xlink:href="dir_000015_000027.html" target="_top" xlink:title="1">
<text text-anchor="middle" x="243.97" y="-51.01" font-family="Helvetica,sans-Serif" font-size="10.00">1</text>
</a>
</g>
</g>
<!-- dir_097a0db622079e3c719566efcc9bbfe3 -->
<g id="node10" class="node">
<title>dir_097a0db622079e3c719566efcc9bbfe3</title>
<g id="a_node10"><a xlink:href="dir_097a0db622079e3c719566efcc9bbfe3.html" target="_top" xlink:title="linearalgebra">
<polygon fill="#dfe5f1" stroke="#404040" points="750.5,-60 669.5,-60 669.5,-24 750.5,-24 750.5,-60"/>
<text text-anchor="middle" x="710" y="-39.5" font-family="Helvetica,sans-Serif" font-size="10.00">linearalgebra</text>
</a>
</g>
</g>
<!-- dir_6063e92d97cad5a47908d6a96069b24d -->
<g id="node11" class="node">
<title>dir_6063e92d97cad5a47908d6a96069b24d</title>
<text text-anchor="middle" x="716" y="-327.5" font-family="Helvetica,sans-Serif" font-size="10.00">python</text>
</g>
<!-- dir_2eacd46bb6575c3620b10a673993bd91 -->
<g id="node12" class="node">
<title>dir_2eacd46bb6575c3620b10a673993bd91</title>
<g id="a_node12"><a xlink:href="dir_2eacd46bb6575c3620b10a673993bd91.html" target="_top" xlink:title="assembler">
<polygon fill="#d0d9ea" stroke="#404040" points="599,-348 531,-348 531,-312 599,-312 599,-348"/>
<text text-anchor="middle" x="565" y="-327.5" font-family="Helvetica,sans-Serif" font-size="10.00">assembler</text>
</a>
</g>
</g>
<!-- dir_2eacd46bb6575c3620b10a673993bd91&#45;&gt;dir_f5e28093cb075fb92f2345f7d8607df6 -->
<g id="edge19" class="edge">
<title>dir_2eacd46bb6575c3620b10a673993bd91&#45;&gt;dir_f5e28093cb075fb92f2345f7d8607df6</title>
<path fill="none" stroke="black" d="M539.43,-311.88C533.88,-308.81 527.9,-305.97 522,-304 479.55,-289.79 465.66,-301.86 422,-292 407.35,-288.69 391.8,-284.02 377.51,-279.23"/>
<polygon fill="black" stroke="black" points="378.44,-275.85 367.84,-275.91 376.17,-282.47 378.44,-275.85"/>
<g id="a_edge19&#45;headlabel"><a xlink:href="dir_000001_000011.html" target="_top" xlink:title="1">
<text text-anchor="middle" x="382.76" y="-271.83" font-family="Helvetica,sans-Serif" font-size="10.00">1</text>
</a>
</g>
</g>
<!-- dir_2eacd46bb6575c3620b10a673993bd91&#45;&gt;dir_36505a9bfb81f81ed7a4e794d4cf597e -->
<g id="edge18" class="edge">
<title>dir_2eacd46bb6575c3620b10a673993bd91&#45;&gt;dir_36505a9bfb81f81ed7a4e794d4cf597e</title>
<path fill="none" stroke="black" d="M538.92,-311.76C533.5,-308.78 527.7,-306 522,-304 488.08,-292.09 468.03,-316.8 442,-292 396.06,-248.23 458.64,-197.1 414,-152 395.79,-133.6 377.91,-155.27 357,-140 338.84,-126.73 345.18,-114.22 332,-96 324.98,-86.3 316.43,-76.38 308.51,-67.79"/>
<polygon fill="black" stroke="black" points="310.87,-65.2 301.47,-60.32 305.78,-70 310.87,-65.2"/>
<g id="a_edge18&#45;headlabel"><a xlink:href="dir_000001_000027.html" target="_top" xlink:title="1">
<text text-anchor="middle" x="315.41" y="-63.36" font-family="Helvetica,sans-Serif" font-size="10.00">1</text>
</a>
</g>
</g>
<!-- dir_58d0c8a3c72390da3e9fe9328fead302 -->
<g id="node13" class="node">
<title>dir_58d0c8a3c72390da3e9fe9328fead302</title>
<g id="a_node13"><a xlink:href="dir_58d0c8a3c72390da3e9fe9328fead302.html" target="_top" xlink:title="basis">
<polygon fill="#d0d9ea" stroke="#404040" points="671,-348 617,-348 617,-312 671,-312 671,-348"/>
<text text-anchor="middle" x="644" y="-327.5" font-family="Helvetica,sans-Serif" font-size="10.00">basis</text>
</a>
</g>
</g>
<!-- dir_58d0c8a3c72390da3e9fe9328fead302&#45;&gt;dir_f5e28093cb075fb92f2345f7d8607df6 -->
<g id="edge21" class="edge">
<title>dir_58d0c8a3c72390da3e9fe9328fead302&#45;&gt;dir_f5e28093cb075fb92f2345f7d8607df6</title>
<path fill="none" stroke="black" d="M623.34,-311.9C618.56,-308.76 613.31,-305.88 608,-304 538.25,-279.36 514.87,-304.69 442,-292 420.48,-288.25 397.23,-282.2 377.11,-276.3"/>
<polygon fill="black" stroke="black" points="378.09,-272.94 367.51,-273.42 376.08,-279.64 378.09,-272.94"/>
<g id="a_edge21&#45;headlabel"><a xlink:href="dir_000003_000011.html" target="_top" xlink:title="1">
<text text-anchor="middle" x="382.35" y="-268.75" font-family="Helvetica,sans-Serif" font-size="10.00">1</text>
</a>
</g>
</g>
<!-- dir_58d0c8a3c72390da3e9fe9328fead302&#45;&gt;dir_36505a9bfb81f81ed7a4e794d4cf597e -->
<g id="edge20" class="edge">
<title>dir_58d0c8a3c72390da3e9fe9328fead302&#45;&gt;dir_36505a9bfb81f81ed7a4e794d4cf597e</title>
<path fill="none" stroke="black" d="M628.79,-311.91C595.84,-276.07 513.84,-192.97 427,-152 402.4,-140.4 387.97,-157.31 367,-140 350.7,-126.55 361.58,-112.98 349,-96 343.86,-89.06 329.51,-77.16 315.6,-66.39"/>
<polygon fill="black" stroke="black" points="317.6,-63.52 307.53,-60.23 313.35,-69.08 317.6,-63.52"/>
<g id="a_edge20&#45;headlabel"><a xlink:href="dir_000003_000027.html" target="_top" xlink:title="1">
<text text-anchor="middle" x="322.18" y="-60.94" font-family="Helvetica,sans-Serif" font-size="10.00">1</text>
</a>
</g>
</g>
<!-- dir_10d62307decb192620fe32f94ec04635 -->
<g id="node14" class="node">
<title>dir_10d62307decb192620fe32f94ec04635</title>
<g id="a_node14"><a xlink:href="dir_10d62307decb192620fe32f94ec04635.html" target="_top" xlink:title="dirichletvalues">
<polygon fill="#d0d9ea" stroke="#404040" points="407.5,-348 318.5,-348 318.5,-312 407.5,-312 407.5,-348"/>
<text text-anchor="middle" x="363" y="-327.5" font-family="Helvetica,sans-Serif" font-size="10.00">dirichletvalues</text>
</a>
</g>
</g>
<!-- dir_10d62307decb192620fe32f94ec04635&#45;&gt;dir_f5e28093cb075fb92f2345f7d8607df6 -->
<g id="edge22" class="edge">
<title>dir_10d62307decb192620fe32f94ec04635&#45;&gt;dir_f5e28093cb075fb92f2345f7d8607df6</title>
<path fill="none" stroke="black" d="M353.36,-311.7C348.87,-303.64 343.44,-293.89 338.48,-284.98"/>
<polygon fill="black" stroke="black" points="341.45,-283.14 333.53,-276.1 335.34,-286.54 341.45,-283.14"/>
<g id="a_edge22&#45;headlabel"><a xlink:href="dir_000005_000011.html" target="_top" xlink:title="1">
<text text-anchor="middle" x="345.68" y="-282.39" font-family="Helvetica,sans-Serif" font-size="10.00">1</text>
</a>
</g>
</g>
<!-- dir_3f77d910b8992c2715464d60b82eb4e5 -->
<g id="node15" class="node">
<title>dir_3f77d910b8992c2715464d60b82eb4e5</title>
<g id="a_node15"><a xlink:href="dir_3f77d910b8992c2715464d60b82eb4e5.html" target="_top" xlink:title="finiteelements">
<polygon fill="#d0d9ea" stroke="#404040" points="512.5,-348 425.5,-348 425.5,-312 512.5,-312 512.5,-348"/>
<text text-anchor="middle" x="469" y="-327.5" font-family="Helvetica,sans-Serif" font-size="10.00">finiteelements</text>
</a>
</g>
</g>
<!-- dir_3f77d910b8992c2715464d60b82eb4e5&#45;&gt;dir_f5e28093cb075fb92f2345f7d8607df6 -->
<g id="edge25" class="edge">
<title>dir_3f77d910b8992c2715464d60b82eb4e5&#45;&gt;dir_f5e28093cb075fb92f2345f7d8607df6</title>
<path fill="none" stroke="black" d="M433.53,-311.88C413.88,-302.39 389.28,-290.51 368.37,-280.42"/>
<polygon fill="black" stroke="black" points="369.88,-277.26 359.36,-276.07 366.84,-283.57 369.88,-277.26"/>
<g id="a_edge25&#45;headlabel"><a xlink:href="dir_000012_000011.html" target="_top" xlink:title="2">
<text text-anchor="middle" x="374.35" y="-273.77" font-family="Helvetica,sans-Serif" font-size="10.00">2</text>
</a>
</g>
</g>
<!-- dir_3f77d910b8992c2715464d60b82eb4e5&#45;&gt;dir_d9d7fab038fcca5270fe0241ec433d4d -->
<g id="edge24" class="edge">
<title>dir_3f77d910b8992c2715464d60b82eb4e5&#45;&gt;dir_d9d7fab038fcca5270fe0241ec433d4d</title>
<path fill="none" stroke="black" d="M438.69,-311.98C431.75,-308.78 424.28,-305.87 417,-304 368.93,-291.68 240.12,-310.32 194,-292 188.4,-289.78 183.03,-286.41 178.16,-282.67"/>
<polygon fill="black" stroke="black" points="180.36,-279.95 170.48,-276.14 175.83,-285.28 180.36,-279.95"/>
<g id="a_edge24&#45;headlabel"><a xlink:href="dir_000012_000020.html" target="_top" xlink:title="1">
<text text-anchor="middle" x="184.94" y="-277.61" font-family="Helvetica,sans-Serif" font-size="10.00">1</text>
</a>
</g>
</g>
<!-- dir_3f77d910b8992c2715464d60b82eb4e5&#45;&gt;dir_36505a9bfb81f81ed7a4e794d4cf597e -->
<g id="edge23" class="edge">
<title>dir_3f77d910b8992c2715464d60b82eb4e5&#45;&gt;dir_36505a9bfb81f81ed7a4e794d4cf597e</title>
<path fill="none" stroke="black" d="M440.28,-311.94C433.26,-306.43 426.49,-299.72 422,-292 390.39,-237.6 444.67,-197.29 401,-152 380.91,-131.17 359.78,-157.85 337,-140 320.09,-126.75 327.14,-114.94 317,-96 312.19,-87.02 306.46,-77.49 301.14,-69.02"/>
<polygon fill="black" stroke="black" points="303.92,-66.87 295.59,-60.33 298.02,-70.64 303.92,-66.87"/>
<g id="a_edge23&#45;headlabel"><a xlink:href="dir_000012_000027.html" target="_top" xlink:title="1">
<text text-anchor="middle" x="308.25" y="-65.87" font-family="Helvetica,sans-Serif" font-size="10.00">1</text>
</a>
</g>
</g>
<!-- dir_afe0d1ab0c4a41ee8553ea61e92b67bf -->
<g id="node16" class="node">
<title>dir_afe0d1ab0c4a41ee8553ea61e92b67bf</title>
<g id="a_node16"><a xlink:href="dir_afe0d1ab0c4a41ee8553ea61e92b67bf.html" target="_top" xlink:title="utils">
<polygon fill="#d0d9ea" stroke="#404040" points="300,-348 246,-348 246,-312 300,-312 300,-348"/>
<text text-anchor="middle" x="273" y="-327.5" font-family="Helvetica,sans-Serif" font-size="10.00">utils</text>
</a>
</g>
</g>
<!-- dir_afe0d1ab0c4a41ee8553ea61e92b67bf&#45;&gt;dir_f5e28093cb075fb92f2345f7d8607df6 -->
<g id="edge26" class="edge">
<title>dir_afe0d1ab0c4a41ee8553ea61e92b67bf&#45;&gt;dir_f5e28093cb075fb92f2345f7d8607df6</title>
<path fill="none" stroke="black" d="M285.61,-311.7C291.6,-303.47 298.88,-293.48 305.48,-284.42"/>
<polygon fill="black" stroke="black" points="308.48,-286.25 311.54,-276.1 302.82,-282.13 308.48,-286.25"/>
<g id="a_edge26&#45;headlabel"><a xlink:href="dir_000026_000011.html" target="_top" xlink:title="1">
<text text-anchor="middle" x="308.66" y="-288.32" font-family="Helvetica,sans-Serif" font-size="10.00">1</text>
</a>
</g>
</g>
<!-- dir_26588bed129c997bc132e8888f2113fa -->
<g id="node17" class="node">
<title>dir_26588bed129c997bc132e8888f2113fa</title>
<text text-anchor="middle" x="626" y="-111.5" font-family="Helvetica,sans-Serif" font-size="10.00">solver</text>
</g>
<!-- dir_bf30182dc97724dc8c2a6cdd4c321688&#45;&gt;dir_a97b071c9c6f7bcc51f4d0bc7519f177 -->
<g id="edge30" class="edge">
<title>dir_bf30182dc97724dc8c2a6cdd4c321688&#45;&gt;dir_a97b071c9c6f7bcc51f4d0bc7519f177</title>
<path fill="none" stroke="black" d="M488.6,-114C486.14,-114 483.68,-114 481.23,-114"/>
<polygon fill="black" stroke="black" points="481.13,-110.5 471.13,-114 481.13,-117.5 481.13,-110.5"/>
<g id="a_edge30&#45;headlabel"><a xlink:href="dir_000021_000004.html" target="_top" xlink:title="1">
<text text-anchor="middle" x="484.73" y="-105.16" font-family="Helvetica,sans-Serif" font-size="10.00">1</text>
</a>
</g>
</g>
<!-- dir_bf30182dc97724dc8c2a6cdd4c321688&#45;&gt;dir_097a0db622079e3c719566efcc9bbfe3 -->
<g id="edge27" class="edge">
<title>dir_bf30182dc97724dc8c2a6cdd4c321688&#45;&gt;dir_097a0db622079e3c719566efcc9bbfe3</title>
<path fill="none" stroke="black" d="M581.15,-97.96C612.02,-87.73 649.68,-74.84 665,-68 667.28,-66.98 669.61,-65.88 671.93,-64.74"/>
<polygon fill="black" stroke="black" points="673.55,-67.84 680.84,-60.16 670.35,-61.62 673.55,-67.84"/>
<g id="a_edge27&#45;headlabel"><a xlink:href="dir_000021_000016.html" target="_top" xlink:title="1">
<text text-anchor="middle" x="671.65" y="-69.51" font-family="Helvetica,sans-Serif" font-size="10.00">1</text>
</a>
</g>
</g>
<!-- dir_bf30182dc97724dc8c2a6cdd4c321688&#45;&gt;dir_bcdbbdf4d2b6b627956abd47159b4d71 -->
<g id="edge31" class="edge">
<title>dir_bf30182dc97724dc8c2a6cdd4c321688&#45;&gt;dir_bcdbbdf4d2b6b627956abd47159b4d71</title>
<path fill="none" stroke="black" d="M533.76,-95.7C533.21,-87.98 532.55,-78.71 531.94,-70.11"/>
<polygon fill="black" stroke="black" points="535.43,-69.83 531.22,-60.1 528.44,-70.33 535.43,-69.83"/>
<g id="a_edge31&#45;headlabel"><a xlink:href="dir_000021_000017.html" target="_top" xlink:title="1">
<text text-anchor="middle" x="538.51" y="-70.71" font-family="Helvetica,sans-Serif" font-size="10.00">1</text>
</a>
</g>
</g>
<!-- dir_bf30182dc97724dc8c2a6cdd4c321688&#45;&gt;dir_36505a9bfb81f81ed7a4e794d4cf597e -->
<g id="edge28" class="edge">
<title>dir_bf30182dc97724dc8c2a6cdd4c321688&#45;&gt;dir_36505a9bfb81f81ed7a4e794d4cf597e</title>
<path fill="none" stroke="black" d="M488.77,-96.99C487.5,-96.65 486.24,-96.31 485,-96 412.89,-77.75 388.87,-96.11 320,-68 318.15,-67.25 316.3,-66.38 314.47,-65.44"/>
<polygon fill="black" stroke="black" points="315.98,-62.27 305.59,-60.23 312.44,-68.31 315.98,-62.27"/>
<g id="a_edge28&#45;headlabel"><a xlink:href="dir_000021_000027.html" target="_top" xlink:title="13">
<text text-anchor="middle" x="320.52" y="-59.14" font-family="Helvetica,sans-Serif" font-size="10.00">13</text>
</a>
</g>
</g>
<!-- dir_bf30182dc97724dc8c2a6cdd4c321688&#45;&gt;dir_8f2573d1a9c53251c08257bad1a27fd3 -->
<g id="edge29" class="edge">
<title>dir_bf30182dc97724dc8c2a6cdd4c321688&#45;&gt;dir_8f2573d1a9c53251c08257bad1a27fd3</title>
<path fill="none" stroke="black" d="M510.05,-95.88C496.96,-86.89 480.74,-75.76 466.56,-66.03"/>
<polygon fill="black" stroke="black" points="468.27,-62.96 458.05,-60.19 464.31,-68.73 468.27,-62.96"/>
<g id="a_edge29&#45;headlabel"><a xlink:href="dir_000021_000022.html" target="_top" xlink:title="6">
<text text-anchor="middle" x="472.84" y="-60.16" font-family="Helvetica,sans-Serif" font-size="10.00">6</text>
</a>
</g>
</g>
<!-- dir_d45ffc48cf12df7e348ec0b798d36815 -->
<g id="node21" class="node">
<title>dir_d45ffc48cf12df7e348ec0b798d36815</title>
<g id="a_node21"><a xlink:href="dir_d45ffc48cf12df7e348ec0b798d36815.html" target="_top" xlink:title="drawing">
<polygon fill="#d0d9ea" stroke="#404040" points="385,-60 329,-60 329,-24 385,-24 385,-60"/>
<text text-anchor="middle" x="357" y="-39.5" font-family="Helvetica,sans-Serif" font-size="10.00">drawing</text>
</a>
</g>
</g>
</g>
</svg>
