<?xml version="1.0" encoding="UTF-8" standalone="no"?>
<!DOCTYPE svg PUBLIC "-//W3C//DTD SVG 1.1//EN"
 "http://www.w3.org/Graphics/SVG/1.1/DTD/svg11.dtd">
<!-- Generated by graphviz version 2.43.0 (0)
 -->
<!-- Title: ikarus Pages: 1 -->
<svg width="378pt" height="159pt"
 viewBox="0.00 0.00 378.00 159.00" xmlns="http://www.w3.org/2000/svg" xmlns:xlink="http://www.w3.org/1999/xlink">
<g id="graph0" class="graph" transform="scale(1 1) rotate(0) translate(4 155)">
<title>ikarus</title>
<polygon fill="white" stroke="transparent" points="-4,4 -4,-155 374,-155 374,4 -4,4"/>
<g id="clust1" class="cluster">
<title>clusterdir_7837fde3ab9c1fb2fc5be7b717af8d79</title>
<g id="a_clust1"><a xlink:href="dir_7837fde3ab9c1fb2fc5be7b717af8d79.html" target="_top" xlink:title="python">
<polygon fill="#edf0f7" stroke="#404040" stroke-dasharray="5,2" points="8,-56 8,-143 362,-143 362,-56 8,-56"/>
<text text-anchor="middle" x="185" y="-131" font-family="Helvetica,sans-Serif" font-size="10.00">python</text>
</a>
</g>
</g>
<g id="clust2" class="cluster">
<title>clusterdir_73badfddb58208682f2caf3b249febfe</title>
<g id="a_clust2"><a xlink:href="dir_73badfddb58208682f2caf3b249febfe.html" target="_top">
<polygon fill="#edf0f7" stroke="#404040" stroke-width="2" points="16,-64 16,-116 354,-116 354,-64 16,-64"/>
</a>
</g>
</g>
<!-- dir_73badfddb58208682f2caf3b249febfe -->
<g id="node1" class="node">
<title>dir_73badfddb58208682f2caf3b249febfe</title>
<text text-anchor="middle" x="319" y="-87.5" font-family="Helvetica,sans-Serif" font-size="10.00">ikarus</text>
</g>
<!-- dir_5bec9ec6c6b8ab3f2f9d60d2ff21ed81 -->
<g id="node5" class="node">
<title>dir_5bec9ec6c6b8ab3f2f9d60d2ff21ed81</title>
<g id="a_node5"><a xlink:href="dir_5bec9ec6c6b8ab3f2f9d60d2ff21ed81.html" target="_top" xlink:title="ikarus">
<polygon fill="none" stroke="red" points="346,-36 292,-36 292,0 346,0 346,-36"/>
<text text-anchor="middle" x="319" y="-15.5" font-family="Helvetica,sans-Serif" font-size="10.00">ikarus</text>
</a>
</g>
</g>
<!-- dir_73badfddb58208682f2caf3b249febfe&#45;&gt;dir_5bec9ec6c6b8ab3f2f9d60d2ff21ed81 -->
<g id="edge1" class="edge">
<title>dir_73badfddb58208682f2caf3b249febfe&#45;&gt;dir_5bec9ec6c6b8ab3f2f9d60d2ff21ed81</title>
<path fill="none" stroke="black" d="M319,-71.7C319,-63.98 319,-54.71 319,-46.11"/>
<polygon fill="black" stroke="black" points="322.5,-46.1 319,-36.1 315.5,-46.1 322.5,-46.1"/>
<g id="a_edge1&#45;headlabel"><a xlink:href="dir_000014_000013.html" target="_top" xlink:title="3">
<text text-anchor="middle" x="325.34" y="-47.2" font-family="Helvetica,sans-Serif" font-size="10.00">3</text>
</a>
</g>
</g>
<!-- dir_ce77774bb77a77a8921d47dc6ef9535b -->
<g id="node2" class="node">
<title>dir_ce77774bb77a77a8921d47dc6ef9535b</title>
<g id="a_node2"><a xlink:href="dir_ce77774bb77a77a8921d47dc6ef9535b.html" target="_top" xlink:title="assembler">
<polygon fill="#dfe5f1" stroke="#404040" points="274,-108 206,-108 206,-72 274,-72 274,-108"/>
<text text-anchor="middle" x="240" y="-87.5" font-family="Helvetica,sans-Serif" font-size="10.00">assembler</text>
</a>
</g>
</g>
<!-- dir_2c5a1e15fafdf1e3d4a509c62c23a920 -->
<g id="node3" class="node">
<title>dir_2c5a1e15fafdf1e3d4a509c62c23a920</title>
<g id="a_node3"><a xlink:href="dir_2c5a1e15fafdf1e3d4a509c62c23a920.html" target="_top" xlink:title="finite_elements">
<polygon fill="#dfe5f1" stroke="#404040" points="188,-108 96,-108 96,-72 188,-72 188,-108"/>
<text text-anchor="middle" x="142" y="-87.5" font-family="Helvetica,sans-Serif" font-size="10.00">finite_elements</text>
</a>
</g>
</g>
<!-- dir_86832cf5e78640a96768d75c38062b36 -->
<g id="node4" class="node">
<title>dir_86832cf5e78640a96768d75c38062b36</title>
<g id="a_node4"><a xlink:href="dir_86832cf5e78640a96768d75c38062b36.html" target="_top" xlink:title="utils">
<polygon fill="#dfe5f1" stroke="#404040" points="78,-108 24,-108 24,-72 78,-72 78,-108"/>
<text text-anchor="middle" x="51" y="-87.5" font-family="Helvetica,sans-Serif" font-size="10.00">utils</text>
</a>
</g>
</g>
</g>
</svg>
