<?xml version="1.0" encoding="UTF-8" standalone="no"?>
<!DOCTYPE svg PUBLIC "-//W3C//DTD SVG 1.1//EN"
 "http://www.w3.org/Graphics/SVG/1.1/DTD/svg11.dtd">
<!-- Generated by graphviz version 2.43.0 (0)
 -->
<!-- Title: ikarus Pages: 1 -->
<svg width="997pt" height="320pt"
 viewBox="0.00 0.00 997.00 320.00" xmlns="http://www.w3.org/2000/svg" xmlns:xlink="http://www.w3.org/1999/xlink">
<g id="graph0" class="graph" transform="scale(1 1) rotate(0) translate(4 316)">
<title>ikarus</title>
<polygon fill="white" stroke="transparent" points="-4,4 -4,-316 993,-316 993,4 -4,4"/>
<g id="clust1" class="cluster">
<title>clusterdir_5bec9ec6c6b8ab3f2f9d60d2ff21ed81</title>
<g id="a_clust1"><a xlink:href="dir_5bec9ec6c6b8ab3f2f9d60d2ff21ed81.html" target="_top">
<polygon fill="#edf0f7" stroke="#404040" stroke-width="2" points="8,-8 8,-304 981,-304 981,-8 8,-8"/>
</a>
</g>
</g>
<g id="clust2" class="cluster">
<title>clusterdir_f5e28093cb075fb92f2345f7d8607df6</title>
<g id="a_clust2"><a xlink:href="dir_f5e28093cb075fb92f2345f7d8607df6.html" target="_top">
<polygon fill="#dfe5f1" stroke="#404040" points="560,-80 560,-220 961,-220 961,-80 560,-80"/>
</a>
</g>
</g>
<g id="clust3" class="cluster">
<title>clusterdir_d9d7fab038fcca5270fe0241ec433d4d</title>
<g id="a_clust3"><a xlink:href="dir_d9d7fab038fcca5270fe0241ec433d4d.html" target="_top">
<polygon fill="#d0d9ea" stroke="#404040" points="664,-88 664,-212 888,-212 888,-88 664,-88"/>
</a>
</g>
</g>
<g id="clust4" class="cluster">
<title>clusterdir_6063e92d97cad5a47908d6a96069b24d</title>
<g id="a_clust4"><a xlink:href="dir_6063e92d97cad5a47908d6a96069b24d.html" target="_top">
<polygon fill="#dfe5f1" stroke="#404040" points="242,-228 242,-296 836,-296 836,-228 242,-228"/>
</a>
</g>
</g>
<g id="clust5" class="cluster">
<title>clusterdir_3f77d910b8992c2715464d60b82eb4e5</title>
<g id="a_clust5"><a xlink:href="dir_3f77d910b8992c2715464d60b82eb4e5.html" target="_top">
<polygon fill="#d0d9ea" stroke="#404040" points="400,-236 400,-288 585,-288 585,-236 400,-236"/>
</a>
</g>
</g>
<g id="clust6" class="cluster">
<title>clusterdir_26588bed129c997bc132e8888f2113fa</title>
<g id="a_clust6"><a xlink:href="dir_26588bed129c997bc132e8888f2113fa.html" target="_top">
<polygon fill="#dfe5f1" stroke="#404040" points="106,-16 106,-140 286,-140 286,-16 106,-16"/>
</a>
</g>
</g>
<g id="clust7" class="cluster">
<title>clusterdir_36505a9bfb81f81ed7a4e794d4cf597e</title>
<g id="a_clust7"><a xlink:href="dir_36505a9bfb81f81ed7a4e794d4cf597e.html" target="_top">
<polygon fill="#dfe5f1" stroke="#404040" points="354,-16 354,-68 576,-68 576,-16 354,-16"/>
</a>
</g>
</g>
<!-- dir_5bec9ec6c6b8ab3f2f9d60d2ff21ed81 -->
<g id="node1" class="node">
<title>dir_5bec9ec6c6b8ab3f2f9d60d2ff21ed81</title>
<text text-anchor="middle" x="874" y="-259.5" font-family="Helvetica,sans-Serif" font-size="10.00">ikarus</text>
</g>
<!-- dir_b4e169eb0efbd955079f9a2ee34b7226 -->
<g id="node2" class="node">
<title>dir_b4e169eb0efbd955079f9a2ee34b7226</title>
<g id="a_node2"><a xlink:href="dir_b4e169eb0efbd955079f9a2ee34b7226.html" target="_top" xlink:title="assembler">
<polygon fill="#dfe5f1" stroke="#404040" points="472,-132 404,-132 404,-96 472,-96 472,-132"/>
<text text-anchor="middle" x="438" y="-111.5" font-family="Helvetica,sans-Serif" font-size="10.00">assembler</text>
</a>
</g>
</g>
<!-- dir_36505a9bfb81f81ed7a4e794d4cf597e -->
<g id="node22" class="node">
<title>dir_36505a9bfb81f81ed7a4e794d4cf597e</title>
<text text-anchor="middle" x="541" y="-39.5" font-family="Helvetica,sans-Serif" font-size="10.00">utils</text>
</g>
<!-- dir_b4e169eb0efbd955079f9a2ee34b7226&#45;&gt;dir_36505a9bfb81f81ed7a4e794d4cf597e -->
<g id="edge1" class="edge">
<title>dir_b4e169eb0efbd955079f9a2ee34b7226&#45;&gt;dir_36505a9bfb81f81ed7a4e794d4cf597e</title>
<path fill="none" stroke="black" d="M462.79,-95.69C470.21,-90.57 478.4,-85.01 486,-80 494.34,-74.5 496.67,-73.52 505,-68 506.07,-67.29 507.16,-66.57 508.25,-65.83"/>
<polygon fill="black" stroke="black" points="510.4,-68.61 516.7,-60.09 506.46,-62.82 510.4,-68.61"/>
<g id="a_edge1&#45;headlabel"><a xlink:href="dir_000000_000029.html" target="_top" xlink:title="1">
<text text-anchor="middle" x="509.02" y="-70.47" font-family="Helvetica,sans-Serif" font-size="10.00">1</text>
</a>
</g>
</g>
<!-- dir_a97b071c9c6f7bcc51f4d0bc7519f177 -->
<g id="node3" class="node">
<title>dir_a97b071c9c6f7bcc51f4d0bc7519f177</title>
<g id="a_node3"><a xlink:href="dir_a97b071c9c6f7bcc51f4d0bc7519f177.html" target="_top" xlink:title="controlroutines">
<polygon fill="#dfe5f1" stroke="#404040" points="386,-132 296,-132 296,-96 386,-96 386,-132"/>
<text text-anchor="middle" x="341" y="-111.5" font-family="Helvetica,sans-Serif" font-size="10.00">controlroutines</text>
</a>
</g>
</g>
<!-- dir_bcdbbdf4d2b6b627956abd47159b4d71 -->
<g id="node20" class="node">
<title>dir_bcdbbdf4d2b6b627956abd47159b4d71</title>
<g id="a_node20"><a xlink:href="dir_bcdbbdf4d2b6b627956abd47159b4d71.html" target="_top" xlink:title="linearsolver">
<polygon fill="#d0d9ea" stroke="#404040" points="237,-60 163,-60 163,-24 237,-24 237,-60"/>
<text text-anchor="middle" x="200" y="-39.5" font-family="Helvetica,sans-Serif" font-size="10.00">linearsolver</text>
</a>
</g>
</g>
<!-- dir_a97b071c9c6f7bcc51f4d0bc7519f177&#45;&gt;dir_bcdbbdf4d2b6b627956abd47159b4d71 -->
<g id="edge4" class="edge">
<title>dir_a97b071c9c6f7bcc51f4d0bc7519f177&#45;&gt;dir_bcdbbdf4d2b6b627956abd47159b4d71</title>
<path fill="none" stroke="black" d="M316.65,-95.94C308.38,-90.51 298.97,-84.69 290,-80 276.26,-72.81 260.8,-66.02 246.62,-60.26"/>
<polygon fill="black" stroke="black" points="247.63,-56.9 237.04,-56.45 245.04,-63.4 247.63,-56.9"/>
<g id="a_edge4&#45;headlabel"><a xlink:href="dir_000004_000018.html" target="_top" xlink:title="1">
<text text-anchor="middle" x="252.02" y="-53.09" font-family="Helvetica,sans-Serif" font-size="10.00">1</text>
</a>
</g>
</g>
<!-- dir_bf30182dc97724dc8c2a6cdd4c321688 -->
<g id="node21" class="node">
<title>dir_bf30182dc97724dc8c2a6cdd4c321688</title>
<g id="a_node21"><a xlink:href="dir_bf30182dc97724dc8c2a6cdd4c321688.html" target="_top" xlink:title="nonlinearsolver">
<polygon fill="#d0d9ea" stroke="#404040" points="206,-132 114,-132 114,-96 206,-96 206,-132"/>
<text text-anchor="middle" x="160" y="-111.5" font-family="Helvetica,sans-Serif" font-size="10.00">nonlinearsolver</text>
</a>
</g>
</g>
<!-- dir_a97b071c9c6f7bcc51f4d0bc7519f177&#45;&gt;dir_bf30182dc97724dc8c2a6cdd4c321688 -->
<g id="edge5" class="edge">
<title>dir_a97b071c9c6f7bcc51f4d0bc7519f177&#45;&gt;dir_bf30182dc97724dc8c2a6cdd4c321688</title>
<path fill="none" stroke="black" d="M320.37,-132.19C309.46,-140.59 295.38,-149.65 281,-154 256.75,-161.34 248.35,-160.98 224,-154 212.31,-150.65 200.68,-144.47 190.61,-137.95"/>
<polygon fill="black" stroke="black" points="192.43,-134.96 182.2,-132.2 188.48,-140.73 192.43,-134.96"/>
<g id="a_edge5&#45;headlabel"><a xlink:href="dir_000004_000023.html" target="_top" xlink:title="4">
<text text-anchor="middle" x="197" y="-132.14" font-family="Helvetica,sans-Serif" font-size="10.00">4</text>
</a>
</g>
</g>
<!-- dir_a97b071c9c6f7bcc51f4d0bc7519f177&#45;&gt;dir_36505a9bfb81f81ed7a4e794d4cf597e -->
<g id="edge2" class="edge">
<title>dir_a97b071c9c6f7bcc51f4d0bc7519f177&#45;&gt;dir_36505a9bfb81f81ed7a4e794d4cf597e</title>
<path fill="none" stroke="black" d="M363.8,-95.99C373.03,-89.94 384.08,-83.72 395,-80 441.55,-64.13 458.94,-85.22 505,-68 507.08,-67.22 509.16,-66.29 511.21,-65.26"/>
<polygon fill="black" stroke="black" points="513.01,-68.26 519.89,-60.21 509.49,-62.21 513.01,-68.26"/>
<g id="a_edge2&#45;headlabel"><a xlink:href="dir_000004_000029.html" target="_top" xlink:title="10">
<text text-anchor="middle" x="511.33" y="-70.02" font-family="Helvetica,sans-Serif" font-size="10.00">10</text>
</a>
</g>
</g>
<!-- dir_8f2573d1a9c53251c08257bad1a27fd3 -->
<g id="node24" class="node">
<title>dir_8f2573d1a9c53251c08257bad1a27fd3</title>
<g id="a_node24"><a xlink:href="dir_8f2573d1a9c53251c08257bad1a27fd3.html" target="_top" xlink:title="observer">
<polygon fill="#d0d9ea" stroke="#404040" points="421.5,-60 362.5,-60 362.5,-24 421.5,-24 421.5,-60"/>
<text text-anchor="middle" x="392" y="-39.5" font-family="Helvetica,sans-Serif" font-size="10.00">observer</text>
</a>
</g>
</g>
<!-- dir_a97b071c9c6f7bcc51f4d0bc7519f177&#45;&gt;dir_8f2573d1a9c53251c08257bad1a27fd3 -->
<g id="edge3" class="edge">
<title>dir_a97b071c9c6f7bcc51f4d0bc7519f177&#45;&gt;dir_8f2573d1a9c53251c08257bad1a27fd3</title>
<path fill="none" stroke="black" d="M353.61,-95.7C359.6,-87.47 366.88,-77.48 373.48,-68.42"/>
<polygon fill="black" stroke="black" points="376.48,-70.25 379.54,-60.1 370.82,-66.13 376.48,-70.25"/>
<g id="a_edge3&#45;headlabel"><a xlink:href="dir_000004_000024.html" target="_top" xlink:title="6">
<text text-anchor="middle" x="376.66" y="-72.32" font-family="Helvetica,sans-Serif" font-size="10.00">6</text>
</a>
</g>
</g>
<!-- dir_f5e28093cb075fb92f2345f7d8607df6 -->
<g id="node4" class="node">
<title>dir_f5e28093cb075fb92f2345f7d8607df6</title>
<text text-anchor="middle" x="612" y="-183.5" font-family="Helvetica,sans-Serif" font-size="10.00">finiteelements</text>
</g>
<!-- dir_f5e28093cb075fb92f2345f7d8607df6&#45;&gt;dir_36505a9bfb81f81ed7a4e794d4cf597e -->
<g id="edge6" class="edge">
<title>dir_f5e28093cb075fb92f2345f7d8607df6&#45;&gt;dir_36505a9bfb81f81ed7a4e794d4cf597e</title>
<path fill="none" stroke="black" d="M603.44,-167.87C591.18,-143.35 568.52,-98.03 554.13,-69.26"/>
<polygon fill="black" stroke="black" points="557.2,-67.57 549.59,-60.19 550.94,-70.7 557.2,-67.57"/>
<g id="a_edge6&#45;headlabel"><a xlink:href="dir_000012_000029.html" target="_top" xlink:title="22">
<text text-anchor="middle" x="561.34" y="-67.01" font-family="Helvetica,sans-Serif" font-size="10.00">22</text>
</a>
</g>
</g>
<!-- dir_61e4bb2d8fdf22e48d3b2b105ffe3f94 -->
<g id="node5" class="node">
<title>dir_61e4bb2d8fdf22e48d3b2b105ffe3f94</title>
<g id="a_node5"><a xlink:href="dir_61e4bb2d8fdf22e48d3b2b105ffe3f94.html" target="_top" xlink:title="febases">
<polygon fill="#d0d9ea" stroke="#404040" points="952.5,-132 897.5,-132 897.5,-96 952.5,-96 952.5,-132"/>
<text text-anchor="middle" x="925" y="-111.5" font-family="Helvetica,sans-Serif" font-size="10.00">febases</text>
</a>
</g>
</g>
<!-- dir_61e4bb2d8fdf22e48d3b2b105ffe3f94&#45;&gt;dir_36505a9bfb81f81ed7a4e794d4cf597e -->
<g id="edge7" class="edge">
<title>dir_61e4bb2d8fdf22e48d3b2b105ffe3f94&#45;&gt;dir_36505a9bfb81f81ed7a4e794d4cf597e</title>
<path fill="none" stroke="black" d="M911.96,-95.75C906.48,-89.76 899.6,-83.63 892,-80 837.27,-53.88 657.33,-46.03 578.53,-43.82"/>
<polygon fill="black" stroke="black" points="578.19,-40.31 568.1,-43.54 578.01,-47.3 578.19,-40.31"/>
<g id="a_edge7&#45;headlabel"><a xlink:href="dir_000010_000029.html" target="_top" xlink:title="1">
<text text-anchor="middle" x="581.86" y="-35.06" font-family="Helvetica,sans-Serif" font-size="10.00">1</text>
</a>
</g>
</g>
<!-- dir_d9d7fab038fcca5270fe0241ec433d4d -->
<g id="node6" class="node">
<title>dir_d9d7fab038fcca5270fe0241ec433d4d</title>
<text text-anchor="middle" x="708" y="-183.5" font-family="Helvetica,sans-Serif" font-size="10.00">mechanics</text>
</g>
<!-- dir_d9d7fab038fcca5270fe0241ec433d4d&#45;&gt;dir_61e4bb2d8fdf22e48d3b2b105ffe3f94 -->
<g id="edge10" class="edge">
<title>dir_d9d7fab038fcca5270fe0241ec433d4d&#45;&gt;dir_61e4bb2d8fdf22e48d3b2b105ffe3f94</title>
<path fill="none" stroke="black" d="M742.73,-169.41C744.16,-168.91 745.59,-168.44 747,-168 809.69,-148.55 832.06,-166.74 892,-140 893.58,-139.3 895.15,-138.5 896.71,-137.64"/>
<polygon fill="black" stroke="black" points="898.76,-140.48 905.33,-132.17 895.01,-134.58 898.76,-140.48"/>
<g id="a_edge10&#45;headlabel"><a xlink:href="dir_000022_000010.html" target="_top" xlink:title="3">
<text text-anchor="middle" x="897.25" y="-142.31" font-family="Helvetica,sans-Serif" font-size="10.00">3</text>
</a>
</g>
</g>
<!-- dir_8255788c45776b878bdf90a74000e4e1 -->
<g id="node7" class="node">
<title>dir_8255788c45776b878bdf90a74000e4e1</title>
<g id="a_node7"><a xlink:href="dir_8255788c45776b878bdf90a74000e4e1.html" target="_top" xlink:title="eas">
<polygon fill="#c1cde4" stroke="#404040" points="726,-132 672,-132 672,-96 726,-96 726,-132"/>
<text text-anchor="middle" x="699" y="-111.5" font-family="Helvetica,sans-Serif" font-size="10.00">eas</text>
</a>
</g>
</g>
<!-- dir_d9d7fab038fcca5270fe0241ec433d4d&#45;&gt;dir_8255788c45776b878bdf90a74000e4e1 -->
<g id="edge11" class="edge">
<title>dir_d9d7fab038fcca5270fe0241ec433d4d&#45;&gt;dir_8255788c45776b878bdf90a74000e4e1</title>
<path fill="none" stroke="black" d="M705.78,-167.7C704.78,-159.98 703.59,-150.71 702.49,-142.11"/>
<polygon fill="black" stroke="black" points="705.95,-141.58 701.2,-132.1 699,-142.47 705.95,-141.58"/>
<g id="a_edge11&#45;headlabel"><a xlink:href="dir_000022_000009.html" target="_top" xlink:title="2">
<text text-anchor="middle" x="709.22" y="-142.28" font-family="Helvetica,sans-Serif" font-size="10.00">2</text>
</a>
</g>
</g>
<!-- dir_31d7c48772b4fae367539a6092b906a8 -->
<g id="node8" class="node">
<title>dir_31d7c48772b4fae367539a6092b906a8</title>
<g id="a_node8"><a xlink:href="dir_31d7c48772b4fae367539a6092b906a8.html" target="_top" xlink:title="loads">
<polygon fill="#c1cde4" stroke="#404040" points="798,-132 744,-132 744,-96 798,-96 798,-132"/>
<text text-anchor="middle" x="771" y="-111.5" font-family="Helvetica,sans-Serif" font-size="10.00">loads</text>
</a>
</g>
</g>
<!-- dir_d9d7fab038fcca5270fe0241ec433d4d&#45;&gt;dir_31d7c48772b4fae367539a6092b906a8 -->
<g id="edge8" class="edge">
<title>dir_d9d7fab038fcca5270fe0241ec433d4d&#45;&gt;dir_31d7c48772b4fae367539a6092b906a8</title>
<path fill="none" stroke="black" d="M723.57,-167.7C731.2,-159.22 740.52,-148.86 748.88,-139.58"/>
<polygon fill="black" stroke="black" points="751.52,-141.88 755.61,-132.1 746.31,-137.2 751.52,-141.88"/>
<g id="a_edge8&#45;headlabel"><a xlink:href="dir_000022_000019.html" target="_top" xlink:title="2">
<text text-anchor="middle" x="751.22" y="-143.95" font-family="Helvetica,sans-Serif" font-size="10.00">2</text>
</a>
</g>
</g>
<!-- dir_fc403fdb7d4f9d9b203e31bf1b8a15f4 -->
<g id="node9" class="node">
<title>dir_fc403fdb7d4f9d9b203e31bf1b8a15f4</title>
<g id="a_node9"><a xlink:href="dir_fc403fdb7d4f9d9b203e31bf1b8a15f4.html" target="_top" xlink:title="materials">
<polygon fill="#c1cde4" stroke="#404040" points="879.5,-132 816.5,-132 816.5,-96 879.5,-96 879.5,-132"/>
<text text-anchor="middle" x="848" y="-111.5" font-family="Helvetica,sans-Serif" font-size="10.00">materials</text>
</a>
</g>
</g>
<!-- dir_d9d7fab038fcca5270fe0241ec433d4d&#45;&gt;dir_fc403fdb7d4f9d9b203e31bf1b8a15f4 -->
<g id="edge12" class="edge">
<title>dir_d9d7fab038fcca5270fe0241ec433d4d&#45;&gt;dir_fc403fdb7d4f9d9b203e31bf1b8a15f4</title>
<path fill="none" stroke="black" d="M742.86,-169.69C766.4,-159.25 795.24,-146.23 807,-140 808.71,-139.09 810.45,-138.14 812.2,-137.17"/>
<polygon fill="black" stroke="black" points="814,-140.17 820.92,-132.14 810.51,-134.11 814,-140.17"/>
<g id="a_edge12&#45;headlabel"><a xlink:href="dir_000022_000020.html" target="_top" xlink:title="6">
<text text-anchor="middle" x="812.31" y="-141.92" font-family="Helvetica,sans-Serif" font-size="10.00">6</text>
</a>
</g>
</g>
<!-- dir_d9d7fab038fcca5270fe0241ec433d4d&#45;&gt;dir_36505a9bfb81f81ed7a4e794d4cf597e -->
<g id="edge9" class="edge">
<title>dir_d9d7fab038fcca5270fe0241ec433d4d&#45;&gt;dir_36505a9bfb81f81ed7a4e794d4cf597e</title>
<path fill="none" stroke="black" d="M688.98,-167.99C680.52,-159.94 670.75,-149.93 663,-140 643.86,-115.49 650.41,-100.47 627,-80 613.01,-67.78 594.38,-59.09 578.03,-53.22"/>
<polygon fill="black" stroke="black" points="578.8,-49.79 568.21,-49.93 576.57,-56.43 578.8,-49.79"/>
<g id="a_edge9&#45;headlabel"><a xlink:href="dir_000022_000029.html" target="_top" xlink:title="19">
<text text-anchor="middle" x="583.11" y="-45.74" font-family="Helvetica,sans-Serif" font-size="10.00">19</text>
</a>
</g>
</g>
<!-- dir_8255788c45776b878bdf90a74000e4e1&#45;&gt;dir_36505a9bfb81f81ed7a4e794d4cf597e -->
<g id="edge13" class="edge">
<title>dir_8255788c45776b878bdf90a74000e4e1&#45;&gt;dir_36505a9bfb81f81ed7a4e794d4cf597e</title>
<path fill="none" stroke="black" d="M671.89,-97.65C661.17,-91.83 648.65,-85.32 637,-80 617.81,-71.23 595.89,-62.68 577.84,-56.01"/>
<polygon fill="black" stroke="black" points="578.85,-52.65 568.26,-52.51 576.45,-59.23 578.85,-52.65"/>
<g id="a_edge13&#45;headlabel"><a xlink:href="dir_000009_000029.html" target="_top" xlink:title="2">
<text text-anchor="middle" x="583.2" y="-48.72" font-family="Helvetica,sans-Serif" font-size="10.00">2</text>
</a>
</g>
</g>
<!-- dir_31d7c48772b4fae367539a6092b906a8&#45;&gt;dir_36505a9bfb81f81ed7a4e794d4cf597e -->
<g id="edge14" class="edge">
<title>dir_31d7c48772b4fae367539a6092b906a8&#45;&gt;dir_36505a9bfb81f81ed7a4e794d4cf597e</title>
<path fill="none" stroke="black" d="M755.98,-95.75C750.01,-89.91 742.73,-83.88 735,-80 684.65,-54.73 619.01,-46.65 578.45,-44.11"/>
<polygon fill="black" stroke="black" points="578.38,-40.6 568.21,-43.56 578,-47.59 578.38,-40.6"/>
<g id="a_edge14&#45;headlabel"><a xlink:href="dir_000019_000029.html" target="_top" xlink:title="2">
<text text-anchor="middle" x="582.13" y="-35.46" font-family="Helvetica,sans-Serif" font-size="10.00">2</text>
</a>
</g>
</g>
<!-- dir_fc403fdb7d4f9d9b203e31bf1b8a15f4&#45;&gt;dir_bf30182dc97724dc8c2a6cdd4c321688 -->
<g id="edge16" class="edge">
<title>dir_fc403fdb7d4f9d9b203e31bf1b8a15f4&#45;&gt;dir_bf30182dc97724dc8c2a6cdd4c321688</title>
<path fill="none" stroke="black" d="M831.32,-132.13C822.36,-140.52 810.59,-149.58 798,-154 767.91,-164.56 254.65,-162.79 224,-154 212.31,-150.65 200.68,-144.47 190.61,-137.95"/>
<polygon fill="black" stroke="black" points="192.43,-134.96 182.2,-132.2 188.48,-140.73 192.43,-134.96"/>
<g id="a_edge16&#45;headlabel"><a xlink:href="dir_000020_000023.html" target="_top" xlink:title="1">
<text text-anchor="middle" x="197" y="-132.14" font-family="Helvetica,sans-Serif" font-size="10.00">1</text>
</a>
</g>
</g>
<!-- dir_fc403fdb7d4f9d9b203e31bf1b8a15f4&#45;&gt;dir_36505a9bfb81f81ed7a4e794d4cf597e -->
<g id="edge15" class="edge">
<title>dir_fc403fdb7d4f9d9b203e31bf1b8a15f4&#45;&gt;dir_36505a9bfb81f81ed7a4e794d4cf597e</title>
<path fill="none" stroke="black" d="M831.03,-95.9C824.13,-89.92 815.72,-83.77 807,-80 730.72,-47.03 631.73,-42.04 578.62,-42.04"/>
<polygon fill="black" stroke="black" points="578.3,-38.54 568.32,-42.11 578.34,-45.54 578.3,-38.54"/>
<g id="a_edge15&#45;headlabel"><a xlink:href="dir_000020_000029.html" target="_top" xlink:title="8">
<text text-anchor="middle" x="581.87" y="-33.18" font-family="Helvetica,sans-Serif" font-size="10.00">8</text>
</a>
</g>
</g>
<!-- dir_cd0257e5a0a5e21e0bd17a30fdd07a18 -->
<g id="node10" class="node">
<title>dir_cd0257e5a0a5e21e0bd17a30fdd07a18</title>
<g id="a_node10"><a xlink:href="dir_cd0257e5a0a5e21e0bd17a30fdd07a18.html" target="_top" xlink:title="io">
<polygon fill="#dfe5f1" stroke="#404040" points="973,-280 919,-280 919,-244 973,-244 973,-280"/>
<text text-anchor="middle" x="946" y="-259.5" font-family="Helvetica,sans-Serif" font-size="10.00">io</text>
</a>
</g>
</g>
<!-- dir_cd0257e5a0a5e21e0bd17a30fdd07a18&#45;&gt;dir_f5e28093cb075fb92f2345f7d8607df6 -->
<g id="edge18" class="edge">
<title>dir_cd0257e5a0a5e21e0bd17a30fdd07a18&#45;&gt;dir_f5e28093cb075fb92f2345f7d8607df6</title>
<path fill="none" stroke="black" d="M931.98,-243.78C925.93,-237.63 918.32,-231.39 910,-228 858.53,-207.02 712.81,-237.33 660,-220 653.16,-217.75 646.41,-214.2 640.23,-210.25"/>
<polygon fill="black" stroke="black" points="641.84,-207.11 631.64,-204.27 637.84,-212.85 641.84,-207.11"/>
<g id="a_edge18&#45;headlabel"><a xlink:href="dir_000016_000012.html" target="_top" xlink:title="1">
<text text-anchor="middle" x="646.42" y="-204.33" font-family="Helvetica,sans-Serif" font-size="10.00">1</text>
</a>
</g>
</g>
<!-- dir_cd0257e5a0a5e21e0bd17a30fdd07a18&#45;&gt;dir_36505a9bfb81f81ed7a4e794d4cf597e -->
<g id="edge17" class="edge">
<title>dir_cd0257e5a0a5e21e0bd17a30fdd07a18&#45;&gt;dir_36505a9bfb81f81ed7a4e794d4cf597e</title>
<path fill="none" stroke="black" d="M955.26,-243.9C973.13,-208.34 1007.06,-125.89 965,-80 939.11,-51.75 676.77,-44.99 578.18,-43.44"/>
<polygon fill="black" stroke="black" points="578.13,-39.94 568.08,-43.29 578.03,-46.94 578.13,-39.94"/>
<g id="a_edge17&#45;headlabel"><a xlink:href="dir_000016_000029.html" target="_top" xlink:title="1">
<text text-anchor="middle" x="581.77" y="-34.65" font-family="Helvetica,sans-Serif" font-size="10.00">1</text>
</a>
</g>
</g>
<!-- dir_097a0db622079e3c719566efcc9bbfe3 -->
<g id="node11" class="node">
<title>dir_097a0db622079e3c719566efcc9bbfe3</title>
<g id="a_node11"><a xlink:href="dir_097a0db622079e3c719566efcc9bbfe3.html" target="_top" xlink:title="linearalgebra">
<polygon fill="#dfe5f1" stroke="#404040" points="97.5,-60 16.5,-60 16.5,-24 97.5,-24 97.5,-60"/>
<text text-anchor="middle" x="57" y="-39.5" font-family="Helvetica,sans-Serif" font-size="10.00">linearalgebra</text>
</a>
</g>
</g>
<!-- dir_6063e92d97cad5a47908d6a96069b24d -->
<g id="node12" class="node">
<title>dir_6063e92d97cad5a47908d6a96069b24d</title>
<text text-anchor="middle" x="694" y="-259.5" font-family="Helvetica,sans-Serif" font-size="10.00">python</text>
</g>
<!-- dir_2eacd46bb6575c3620b10a673993bd91 -->
<g id="node13" class="node">
<title>dir_2eacd46bb6575c3620b10a673993bd91</title>
<g id="a_node13"><a xlink:href="dir_2eacd46bb6575c3620b10a673993bd91.html" target="_top" xlink:title="assembler">
<polygon fill="#d0d9ea" stroke="#404040" points="318,-280 250,-280 250,-244 318,-244 318,-280"/>
<text text-anchor="middle" x="284" y="-259.5" font-family="Helvetica,sans-Serif" font-size="10.00">assembler</text>
</a>
</g>
</g>
<!-- dir_2eacd46bb6575c3620b10a673993bd91&#45;&gt;dir_f5e28093cb075fb92f2345f7d8607df6 -->
<g id="edge20" class="edge">
<title>dir_2eacd46bb6575c3620b10a673993bd91&#45;&gt;dir_f5e28093cb075fb92f2345f7d8607df6</title>
<path fill="none" stroke="black" d="M301.34,-243.82C308.65,-237.68 317.63,-231.43 327,-228 361.89,-215.22 457.32,-225.93 494,-220 515.48,-216.53 538.62,-210.56 558.68,-204.65"/>
<polygon fill="black" stroke="black" points="559.69,-208 568.26,-201.77 557.67,-201.3 559.69,-208"/>
<g id="a_edge20&#45;headlabel"><a xlink:href="dir_000001_000012.html" target="_top" xlink:title="1">
<text text-anchor="middle" x="557.07" y="-209.26" font-family="Helvetica,sans-Serif" font-size="10.00">1</text>
</a>
</g>
</g>
<!-- dir_2eacd46bb6575c3620b10a673993bd91&#45;&gt;dir_36505a9bfb81f81ed7a4e794d4cf597e -->
<g id="edge19" class="edge">
<title>dir_2eacd46bb6575c3620b10a673993bd91&#45;&gt;dir_36505a9bfb81f81ed7a4e794d4cf597e</title>
<path fill="none" stroke="black" d="M304.98,-243.9C311.84,-238.58 319.6,-232.85 327,-228 394.56,-183.74 431.71,-199.8 486,-140 505.53,-118.48 497.14,-104.97 512,-80 514.36,-76.03 517.1,-72 519.93,-68.14"/>
<polygon fill="black" stroke="black" points="522.85,-70.09 526.17,-60.03 517.3,-65.82 522.85,-70.09"/>
<g id="a_edge19&#45;headlabel"><a xlink:href="dir_000001_000029.html" target="_top" xlink:title="1">
<text text-anchor="middle" x="522.91" y="-72.17" font-family="Helvetica,sans-Serif" font-size="10.00">1</text>
</a>
</g>
</g>
<!-- dir_58d0c8a3c72390da3e9fe9328fead302 -->
<g id="node14" class="node">
<title>dir_58d0c8a3c72390da3e9fe9328fead302</title>
<g id="a_node14"><a xlink:href="dir_58d0c8a3c72390da3e9fe9328fead302.html" target="_top" xlink:title="basis">
<polygon fill="#d0d9ea" stroke="#404040" points="390,-280 336,-280 336,-244 390,-244 390,-280"/>
<text text-anchor="middle" x="363" y="-259.5" font-family="Helvetica,sans-Serif" font-size="10.00">basis</text>
</a>
</g>
</g>
<!-- dir_58d0c8a3c72390da3e9fe9328fead302&#45;&gt;dir_f5e28093cb075fb92f2345f7d8607df6 -->
<g id="edge22" class="edge">
<title>dir_58d0c8a3c72390da3e9fe9328fead302&#45;&gt;dir_f5e28093cb075fb92f2345f7d8607df6</title>
<path fill="none" stroke="black" d="M375.66,-243.95C381.18,-237.82 388.18,-231.55 396,-228 419.93,-217.13 488.22,-225.12 514,-220 529.02,-217.01 544.92,-212.35 559.43,-207.47"/>
<polygon fill="black" stroke="black" points="560.93,-210.65 569.23,-204.06 558.64,-204.04 560.93,-210.65"/>
<g id="a_edge22&#45;headlabel"><a xlink:href="dir_000003_000012.html" target="_top" xlink:title="1">
<text text-anchor="middle" x="558.47" y="-212.01" font-family="Helvetica,sans-Serif" font-size="10.00">1</text>
</a>
</g>
</g>
<!-- dir_58d0c8a3c72390da3e9fe9328fead302&#45;&gt;dir_36505a9bfb81f81ed7a4e794d4cf597e -->
<g id="edge21" class="edge">
<title>dir_58d0c8a3c72390da3e9fe9328fead302&#45;&gt;dir_36505a9bfb81f81ed7a4e794d4cf597e</title>
<path fill="none" stroke="black" d="M376,-243.66C381.47,-237.65 388.35,-231.54 396,-228 415.83,-218.82 477.58,-234.42 494,-220 517.91,-199.01 513.96,-110.19 524,-80 525.18,-76.44 526.61,-72.76 528.12,-69.17"/>
<polygon fill="black" stroke="black" points="531.34,-70.56 532.24,-60 524.95,-67.69 531.34,-70.56"/>
<g id="a_edge21&#45;headlabel"><a xlink:href="dir_000003_000029.html" target="_top" xlink:title="1">
<text text-anchor="middle" x="532.45" y="-72.5" font-family="Helvetica,sans-Serif" font-size="10.00">1</text>
</a>
</g>
</g>
<!-- dir_10d62307decb192620fe32f94ec04635 -->
<g id="node15" class="node">
<title>dir_10d62307decb192620fe32f94ec04635</title>
<g id="a_node15"><a xlink:href="dir_10d62307decb192620fe32f94ec04635.html" target="_top" xlink:title="dirichletvalues">
<polygon fill="#d0d9ea" stroke="#404040" points="828.5,-280 739.5,-280 739.5,-244 828.5,-244 828.5,-280"/>
<text text-anchor="middle" x="784" y="-259.5" font-family="Helvetica,sans-Serif" font-size="10.00">dirichletvalues</text>
</a>
</g>
</g>
<!-- dir_10d62307decb192620fe32f94ec04635&#45;&gt;dir_f5e28093cb075fb92f2345f7d8607df6 -->
<g id="edge23" class="edge">
<title>dir_10d62307decb192620fe32f94ec04635&#45;&gt;dir_f5e28093cb075fb92f2345f7d8607df6</title>
<path fill="none" stroke="black" d="M760.92,-243.84C751.74,-237.86 740.81,-231.72 730,-228 700.39,-217.82 689.33,-230.97 660,-220 653.38,-217.52 646.8,-213.94 640.73,-210.04"/>
<polygon fill="black" stroke="black" points="642.47,-206.99 632.25,-204.19 638.49,-212.75 642.47,-206.99"/>
<g id="a_edge23&#45;headlabel"><a xlink:href="dir_000005_000012.html" target="_top" xlink:title="1">
<text text-anchor="middle" x="647.04" y="-204.19" font-family="Helvetica,sans-Serif" font-size="10.00">1</text>
</a>
</g>
</g>
<!-- dir_3f77d910b8992c2715464d60b82eb4e5 -->
<g id="node16" class="node">
<title>dir_3f77d910b8992c2715464d60b82eb4e5</title>
<text text-anchor="middle" x="533" y="-259.5" font-family="Helvetica,sans-Serif" font-size="10.00">finiteelements</text>
</g>
<!-- dir_3f77d910b8992c2715464d60b82eb4e5&#45;&gt;dir_f5e28093cb075fb92f2345f7d8607df6 -->
<g id="edge26" class="edge">
<title>dir_3f77d910b8992c2715464d60b82eb4e5&#45;&gt;dir_f5e28093cb075fb92f2345f7d8607df6</title>
<path fill="none" stroke="black" d="M551.32,-243.84C561.69,-234.12 574.83,-221.82 586.22,-211.15"/>
<polygon fill="black" stroke="black" points="588.87,-213.46 593.78,-204.07 584.09,-208.35 588.87,-213.46"/>
<g id="a_edge26&#45;headlabel"><a xlink:href="dir_000013_000012.html" target="_top" xlink:title="9">
<text text-anchor="middle" x="588.19" y="-215.49" font-family="Helvetica,sans-Serif" font-size="10.00">9</text>
</a>
</g>
</g>
<!-- dir_3f77d910b8992c2715464d60b82eb4e5&#45;&gt;dir_d9d7fab038fcca5270fe0241ec433d4d -->
<g id="edge25" class="edge">
<title>dir_3f77d910b8992c2715464d60b82eb4e5&#45;&gt;dir_d9d7fab038fcca5270fe0241ec433d4d</title>
<path fill="none" stroke="black" d="M552.73,-243.68C560.68,-237.68 570.26,-231.56 580,-228 617.29,-214.35 632.36,-235.32 669,-220 674.32,-217.78 679.45,-214.55 684.15,-210.98"/>
<polygon fill="black" stroke="black" points="686.67,-213.43 692.08,-204.32 682.17,-208.07 686.67,-213.43"/>
<g id="a_edge25&#45;headlabel"><a xlink:href="dir_000013_000022.html" target="_top" xlink:title="5">
<text text-anchor="middle" x="685.75" y="-215.42" font-family="Helvetica,sans-Serif" font-size="10.00">5</text>
</a>
</g>
</g>
<!-- dir_3f77d910b8992c2715464d60b82eb4e5&#45;&gt;dir_36505a9bfb81f81ed7a4e794d4cf597e -->
<g id="edge24" class="edge">
<title>dir_3f77d910b8992c2715464d60b82eb4e5&#45;&gt;dir_36505a9bfb81f81ed7a4e794d4cf597e</title>
<path fill="none" stroke="black" d="M533.63,-243.89C535.01,-206.17 538.34,-115.56 540.01,-70.05"/>
<polygon fill="black" stroke="black" points="543.51,-70.15 540.38,-60.03 536.51,-69.89 543.51,-70.15"/>
<g id="a_edge24&#45;headlabel"><a xlink:href="dir_000013_000029.html" target="_top" xlink:title="5">
<text text-anchor="middle" x="546.21" y="-71.34" font-family="Helvetica,sans-Serif" font-size="10.00">5</text>
</a>
</g>
</g>
<!-- dir_1033b2e4d5e569ff29fa5cd78683f3e8 -->
<g id="node17" class="node">
<title>dir_1033b2e4d5e569ff29fa5cd78683f3e8</title>
<g id="a_node17"><a xlink:href="dir_1033b2e4d5e569ff29fa5cd78683f3e8.html" target="_top" xlink:title="materials">
<polygon fill="#c1cde4" stroke="#404040" points="471.5,-280 408.5,-280 408.5,-244 471.5,-244 471.5,-280"/>
<text text-anchor="middle" x="440" y="-259.5" font-family="Helvetica,sans-Serif" font-size="10.00">materials</text>
</a>
</g>
</g>
<!-- dir_1033b2e4d5e569ff29fa5cd78683f3e8&#45;&gt;dir_d9d7fab038fcca5270fe0241ec433d4d -->
<g id="edge28" class="edge">
<title>dir_1033b2e4d5e569ff29fa5cd78683f3e8&#45;&gt;dir_d9d7fab038fcca5270fe0241ec433d4d</title>
<path fill="none" stroke="black" d="M455.93,-243.81C462.7,-237.66 471.09,-231.42 480,-228 519.25,-212.95 629.84,-235.29 669,-220 674.61,-217.81 679.99,-214.46 684.86,-210.72"/>
<polygon fill="black" stroke="black" points="687.19,-213.33 692.54,-204.19 682.66,-208 687.19,-213.33"/>
<g id="a_edge28&#45;headlabel"><a xlink:href="dir_000021_000022.html" target="_top" xlink:title="1">
<text text-anchor="middle" x="686.29" y="-215.32" font-family="Helvetica,sans-Serif" font-size="10.00">1</text>
</a>
</g>
</g>
<!-- dir_1033b2e4d5e569ff29fa5cd78683f3e8&#45;&gt;dir_36505a9bfb81f81ed7a4e794d4cf597e -->
<g id="edge27" class="edge">
<title>dir_1033b2e4d5e569ff29fa5cd78683f3e8&#45;&gt;dir_36505a9bfb81f81ed7a4e794d4cf597e</title>
<path fill="none" stroke="black" d="M457.08,-243.97C463.75,-238.15 471.77,-232.08 480,-228 493.91,-221.1 503.47,-231.41 514,-220 516.53,-217.26 530.44,-119.15 537.25,-70.21"/>
<polygon fill="black" stroke="black" points="540.72,-70.67 538.62,-60.28 533.78,-69.71 540.72,-70.67"/>
<g id="a_edge27&#45;headlabel"><a xlink:href="dir_000021_000029.html" target="_top" xlink:title="1">
<text text-anchor="middle" x="543.03" y="-72.12" font-family="Helvetica,sans-Serif" font-size="10.00">1</text>
</a>
</g>
</g>
<!-- dir_afe0d1ab0c4a41ee8553ea61e92b67bf -->
<g id="node18" class="node">
<title>dir_afe0d1ab0c4a41ee8553ea61e92b67bf</title>
<g id="a_node18"><a xlink:href="dir_afe0d1ab0c4a41ee8553ea61e92b67bf.html" target="_top" xlink:title="utils">
<polygon fill="#d0d9ea" stroke="#404040" points="649,-280 595,-280 595,-244 649,-244 649,-280"/>
<text text-anchor="middle" x="622" y="-259.5" font-family="Helvetica,sans-Serif" font-size="10.00">utils</text>
</a>
</g>
</g>
<!-- dir_afe0d1ab0c4a41ee8553ea61e92b67bf&#45;&gt;dir_f5e28093cb075fb92f2345f7d8607df6 -->
<g id="edge29" class="edge">
<title>dir_afe0d1ab0c4a41ee8553ea61e92b67bf&#45;&gt;dir_f5e28093cb075fb92f2345f7d8607df6</title>
<path fill="none" stroke="black" d="M619.68,-243.84C618.49,-235.06 617.02,-224.16 615.68,-214.27"/>
<polygon fill="black" stroke="black" points="619.11,-213.51 614.31,-204.07 612.18,-214.45 619.11,-213.51"/>
<g id="a_edge29&#45;headlabel"><a xlink:href="dir_000028_000012.html" target="_top" xlink:title="1">
<text text-anchor="middle" x="622.41" y="-214.19" font-family="Helvetica,sans-Serif" font-size="10.00">1</text>
</a>
</g>
</g>
<!-- dir_26588bed129c997bc132e8888f2113fa -->
<g id="node19" class="node">
<title>dir_26588bed129c997bc132e8888f2113fa</title>
<text text-anchor="middle" x="251" y="-111.5" font-family="Helvetica,sans-Serif" font-size="10.00">solver</text>
</g>
<!-- dir_bf30182dc97724dc8c2a6cdd4c321688&#45;&gt;dir_a97b071c9c6f7bcc51f4d0bc7519f177 -->
<g id="edge33" class="edge">
<title>dir_bf30182dc97724dc8c2a6cdd4c321688&#45;&gt;dir_a97b071c9c6f7bcc51f4d0bc7519f177</title>
<path fill="none" stroke="black" d="M182.2,-132.2C193.88,-140.61 208.89,-149.67 224,-154 248.35,-160.98 256.75,-161.34 281,-154 292.01,-150.67 302.84,-144.57 312.21,-138.13"/>
<polygon fill="black" stroke="black" points="314.35,-140.91 320.37,-132.19 310.22,-135.25 314.35,-140.91"/>
<g id="a_edge33&#45;headlabel"><a xlink:href="dir_000023_000004.html" target="_top" xlink:title="1">
<text text-anchor="middle" x="313.12" y="-142.82" font-family="Helvetica,sans-Serif" font-size="10.00">1</text>
</a>
</g>
</g>
<!-- dir_bf30182dc97724dc8c2a6cdd4c321688&#45;&gt;dir_097a0db622079e3c719566efcc9bbfe3 -->
<g id="edge30" class="edge">
<title>dir_bf30182dc97724dc8c2a6cdd4c321688&#45;&gt;dir_097a0db622079e3c719566efcc9bbfe3</title>
<path fill="none" stroke="black" d="M134.8,-95.88C121.59,-86.89 105.21,-75.76 90.89,-66.03"/>
<polygon fill="black" stroke="black" points="92.53,-62.92 82.29,-60.19 88.6,-68.71 92.53,-62.92"/>
<g id="a_edge30&#45;headlabel"><a xlink:href="dir_000023_000017.html" target="_top" xlink:title="1">
<text text-anchor="middle" x="97.1" y="-60.09" font-family="Helvetica,sans-Serif" font-size="10.00">1</text>
</a>
</g>
</g>
<!-- dir_bf30182dc97724dc8c2a6cdd4c321688&#45;&gt;dir_bcdbbdf4d2b6b627956abd47159b4d71 -->
<g id="edge34" class="edge">
<title>dir_bf30182dc97724dc8c2a6cdd4c321688&#45;&gt;dir_bcdbbdf4d2b6b627956abd47159b4d71</title>
<path fill="none" stroke="black" d="M169.89,-95.7C174.49,-87.64 180.06,-77.89 185.15,-68.98"/>
<polygon fill="black" stroke="black" points="188.3,-70.52 190.23,-60.1 182.23,-67.05 188.3,-70.52"/>
<g id="a_edge34&#45;headlabel"><a xlink:href="dir_000023_000018.html" target="_top" xlink:title="1">
<text text-anchor="middle" x="188.99" y="-72.55" font-family="Helvetica,sans-Serif" font-size="10.00">1</text>
</a>
</g>
</g>
<!-- dir_bf30182dc97724dc8c2a6cdd4c321688&#45;&gt;dir_36505a9bfb81f81ed7a4e794d4cf597e -->
<g id="edge31" class="edge">
<title>dir_bf30182dc97724dc8c2a6cdd4c321688&#45;&gt;dir_36505a9bfb81f81ed7a4e794d4cf597e</title>
<path fill="none" stroke="black" d="M182.61,-95.95C192.1,-89.74 203.59,-83.42 215,-80 276.79,-61.5 443.86,-88.54 505,-68 507.17,-67.27 509.32,-66.37 511.44,-65.34"/>
<polygon fill="black" stroke="black" points="513.44,-68.23 520.38,-60.22 509.96,-62.16 513.44,-68.23"/>
<g id="a_edge31&#45;headlabel"><a xlink:href="dir_000023_000029.html" target="_top" xlink:title="13">
<text text-anchor="middle" x="511.74" y="-69.98" font-family="Helvetica,sans-Serif" font-size="10.00">13</text>
</a>
</g>
</g>
<!-- dir_bf30182dc97724dc8c2a6cdd4c321688&#45;&gt;dir_8f2573d1a9c53251c08257bad1a27fd3 -->
<g id="edge32" class="edge">
<title>dir_bf30182dc97724dc8c2a6cdd4c321688&#45;&gt;dir_8f2573d1a9c53251c08257bad1a27fd3</title>
<path fill="none" stroke="black" d="M183.91,-95.94C193.22,-90.04 204.22,-83.93 215,-80 246.72,-68.44 256.91,-74.69 290,-68 310.75,-63.8 333.67,-58.27 352.51,-53.48"/>
<polygon fill="black" stroke="black" points="353.43,-56.85 362.24,-50.97 351.68,-50.07 353.43,-56.85"/>
<g id="a_edge32&#45;headlabel"><a xlink:href="dir_000023_000024.html" target="_top" xlink:title="6">
<text text-anchor="middle" x="350.65" y="-58" font-family="Helvetica,sans-Serif" font-size="10.00">6</text>
</a>
</g>
</g>
<!-- dir_d45ffc48cf12df7e348ec0b798d36815 -->
<g id="node23" class="node">
<title>dir_d45ffc48cf12df7e348ec0b798d36815</title>
<g id="a_node23"><a xlink:href="dir_d45ffc48cf12df7e348ec0b798d36815.html" target="_top" xlink:title="drawing">
<polygon fill="#d0d9ea" stroke="#404040" points="496,-60 440,-60 440,-24 496,-24 496,-60"/>
<text text-anchor="middle" x="468" y="-39.5" font-family="Helvetica,sans-Serif" font-size="10.00">drawing</text>
</a>
</g>
</g>
</g>
</svg>
