<?xml version="1.0" encoding="UTF-8" standalone="no"?>
<!DOCTYPE svg PUBLIC "-//W3C//DTD SVG 1.1//EN"
 "http://www.w3.org/Graphics/SVG/1.1/DTD/svg11.dtd">
<!-- Generated by graphviz version 2.43.0 (0)
 -->
<!-- Title: python Pages: 1 -->
<svg width="554pt" height="175pt"
 viewBox="0.00 0.00 554.00 175.00" xmlns="http://www.w3.org/2000/svg" xmlns:xlink="http://www.w3.org/1999/xlink">
<g id="graph0" class="graph" transform="scale(1 1) rotate(0) translate(4 171)">
<title>python</title>
<polygon fill="white" stroke="transparent" points="-4,4 -4,-171 550,-171 550,4 -4,4"/>
<g id="clust1" class="cluster">
<title>clusterdir_5bec9ec6c6b8ab3f2f9d60d2ff21ed81</title>
<g id="a_clust1"><a xlink:href="dir_5bec9ec6c6b8ab3f2f9d60d2ff21ed81.html" target="_top" xlink:title="ikarus">
<polygon fill="#edf0f7" stroke="#404040" stroke-dasharray="5,2" points="8,-8 8,-159 538,-159 538,-8 8,-8"/>
<text text-anchor="middle" x="273" y="-147" font-family="Helvetica,sans-Serif" font-size="10.00">ikarus</text>
</a>
</g>
</g>
<g id="clust2" class="cluster">
<title>clusterdir_6063e92d97cad5a47908d6a96069b24d</title>
<g id="a_clust2"><a xlink:href="dir_6063e92d97cad5a47908d6a96069b24d.html" target="_top">
<polygon fill="#edf0f7" stroke="#404040" stroke-width="2" points="16,-80 16,-132 530,-132 530,-80 16,-80"/>
</a>
</g>
</g>
<!-- dir_36505a9bfb81f81ed7a4e794d4cf597e -->
<g id="node1" class="node">
<title>dir_36505a9bfb81f81ed7a4e794d4cf597e</title>
<g id="a_node1"><a xlink:href="dir_36505a9bfb81f81ed7a4e794d4cf597e.html" target="_top" xlink:title="utils">
<polygon fill="#dfe5f1" stroke="red" points="181,-52 127,-52 127,-16 181,-16 181,-52"/>
<text text-anchor="middle" x="154" y="-31.5" font-family="Helvetica,sans-Serif" font-size="10.00">utils</text>
</a>
</g>
</g>
<!-- dir_f5e28093cb075fb92f2345f7d8607df6 -->
<g id="node2" class="node">
<title>dir_f5e28093cb075fb92f2345f7d8607df6</title>
<g id="a_node2"><a xlink:href="dir_f5e28093cb075fb92f2345f7d8607df6.html" target="_top" xlink:title="finiteelements">
<polygon fill="#dfe5f1" stroke="red" points="286.5,-52 199.5,-52 199.5,-16 286.5,-16 286.5,-52"/>
<text text-anchor="middle" x="243" y="-31.5" font-family="Helvetica,sans-Serif" font-size="10.00">finiteelements</text>
</a>
</g>
</g>
<!-- dir_6063e92d97cad5a47908d6a96069b24d -->
<g id="node3" class="node">
<title>dir_6063e92d97cad5a47908d6a96069b24d</title>
<text text-anchor="middle" x="495" y="-103.5" font-family="Helvetica,sans-Serif" font-size="10.00">python</text>
</g>
<!-- dir_2eacd46bb6575c3620b10a673993bd91 -->
<g id="node4" class="node">
<title>dir_2eacd46bb6575c3620b10a673993bd91</title>
<g id="a_node4"><a xlink:href="dir_2eacd46bb6575c3620b10a673993bd91.html" target="_top" xlink:title="assembler">
<polygon fill="#dfe5f1" stroke="#404040" points="92,-124 24,-124 24,-88 92,-88 92,-124"/>
<text text-anchor="middle" x="58" y="-103.5" font-family="Helvetica,sans-Serif" font-size="10.00">assembler</text>
</a>
</g>
</g>
<!-- dir_2eacd46bb6575c3620b10a673993bd91&#45;&gt;dir_36505a9bfb81f81ed7a4e794d4cf597e -->
<g id="edge1" class="edge">
<title>dir_2eacd46bb6575c3620b10a673993bd91&#45;&gt;dir_36505a9bfb81f81ed7a4e794d4cf597e</title>
<path fill="none" stroke="black" d="M81.73,-87.7C93.94,-78.8 108.99,-67.82 122.18,-58.2"/>
<polygon fill="black" stroke="black" points="124.52,-60.82 130.54,-52.1 120.4,-55.17 124.52,-60.82"/>
<g id="a_edge1&#45;headlabel"><a xlink:href="dir_000001_000027.html" target="_top" xlink:title="1">
<text text-anchor="middle" x="123.29" y="-62.74" font-family="Helvetica,sans-Serif" font-size="10.00">1</text>
</a>
</g>
</g>
<!-- dir_2eacd46bb6575c3620b10a673993bd91&#45;&gt;dir_f5e28093cb075fb92f2345f7d8607df6 -->
<g id="edge2" class="edge">
<title>dir_2eacd46bb6575c3620b10a673993bd91&#45;&gt;dir_f5e28093cb075fb92f2345f7d8607df6</title>
<path fill="none" stroke="black" d="M85.28,-87.93C90.4,-85.08 95.79,-82.3 101,-80 136.27,-64.43 148.73,-64.46 189.56,-52.07"/>
<polygon fill="black" stroke="black" points="190.82,-55.34 199.33,-49.03 188.75,-48.65 190.82,-55.34"/>
<g id="a_edge2&#45;headlabel"><a xlink:href="dir_000001_000011.html" target="_top" xlink:title="1">
<text text-anchor="middle" x="188.23" y="-56.62" font-family="Helvetica,sans-Serif" font-size="10.00">1</text>
</a>
</g>
</g>
<!-- dir_58d0c8a3c72390da3e9fe9328fead302 -->
<g id="node5" class="node">
<title>dir_58d0c8a3c72390da3e9fe9328fead302</title>
<g id="a_node5"><a xlink:href="dir_58d0c8a3c72390da3e9fe9328fead302.html" target="_top" xlink:title="basis">
<polygon fill="#dfe5f1" stroke="#404040" points="270,-124 216,-124 216,-88 270,-88 270,-124"/>
<text text-anchor="middle" x="243" y="-103.5" font-family="Helvetica,sans-Serif" font-size="10.00">basis</text>
</a>
</g>
</g>
<!-- dir_58d0c8a3c72390da3e9fe9328fead302&#45;&gt;dir_36505a9bfb81f81ed7a4e794d4cf597e -->
<g id="edge3" class="edge">
<title>dir_58d0c8a3c72390da3e9fe9328fead302&#45;&gt;dir_36505a9bfb81f81ed7a4e794d4cf597e</title>
<path fill="none" stroke="black" d="M221,-87.7C209.79,-78.88 196,-68.03 183.85,-58.47"/>
<polygon fill="black" stroke="black" points="185.77,-55.54 175.75,-52.1 181.44,-61.04 185.77,-55.54"/>
<g id="a_edge3&#45;headlabel"><a xlink:href="dir_000003_000027.html" target="_top" xlink:title="1">
<text text-anchor="middle" x="190.35" y="-53.03" font-family="Helvetica,sans-Serif" font-size="10.00">1</text>
</a>
</g>
</g>
<!-- dir_58d0c8a3c72390da3e9fe9328fead302&#45;&gt;dir_f5e28093cb075fb92f2345f7d8607df6 -->
<g id="edge4" class="edge">
<title>dir_58d0c8a3c72390da3e9fe9328fead302&#45;&gt;dir_f5e28093cb075fb92f2345f7d8607df6</title>
<path fill="none" stroke="black" d="M243,-87.7C243,-79.98 243,-70.71 243,-62.11"/>
<polygon fill="black" stroke="black" points="246.5,-62.1 243,-52.1 239.5,-62.1 246.5,-62.1"/>
<g id="a_edge4&#45;headlabel"><a xlink:href="dir_000003_000011.html" target="_top" xlink:title="1">
<text text-anchor="middle" x="249.34" y="-63.2" font-family="Helvetica,sans-Serif" font-size="10.00">1</text>
</a>
</g>
</g>
<!-- dir_10d62307decb192620fe32f94ec04635 -->
<g id="node6" class="node">
<title>dir_10d62307decb192620fe32f94ec04635</title>
<g id="a_node6"><a xlink:href="dir_10d62307decb192620fe32f94ec04635.html" target="_top" xlink:title="dirichletvalues">
<polygon fill="#dfe5f1" stroke="#404040" points="449.5,-124 360.5,-124 360.5,-88 449.5,-88 449.5,-124"/>
<text text-anchor="middle" x="405" y="-103.5" font-family="Helvetica,sans-Serif" font-size="10.00">dirichletvalues</text>
</a>
</g>
</g>
<!-- dir_10d62307decb192620fe32f94ec04635&#45;&gt;dir_f5e28093cb075fb92f2345f7d8607df6 -->
<g id="edge5" class="edge">
<title>dir_10d62307decb192620fe32f94ec04635&#45;&gt;dir_f5e28093cb075fb92f2345f7d8607df6</title>
<path fill="none" stroke="black" d="M368.78,-88C362.85,-85.28 356.77,-82.54 351,-80 332.72,-71.96 312.56,-63.47 294.65,-56.04"/>
<polygon fill="black" stroke="black" points="295.54,-52.62 284.96,-52.04 292.87,-59.09 295.54,-52.62"/>
<g id="a_edge5&#45;headlabel"><a xlink:href="dir_000005_000011.html" target="_top" xlink:title="1">
<text text-anchor="middle" x="299.94" y="-48.87" font-family="Helvetica,sans-Serif" font-size="10.00">1</text>
</a>
</g>
</g>
<!-- dir_3f77d910b8992c2715464d60b82eb4e5 -->
<g id="node7" class="node">
<title>dir_3f77d910b8992c2715464d60b82eb4e5</title>
<g id="a_node7"><a xlink:href="dir_3f77d910b8992c2715464d60b82eb4e5.html" target="_top" xlink:title="finiteelements">
<polygon fill="#dfe5f1" stroke="#404040" points="197.5,-124 110.5,-124 110.5,-88 197.5,-88 197.5,-124"/>
<text text-anchor="middle" x="154" y="-103.5" font-family="Helvetica,sans-Serif" font-size="10.00">finiteelements</text>
</a>
</g>
</g>
<!-- dir_3f77d910b8992c2715464d60b82eb4e5&#45;&gt;dir_36505a9bfb81f81ed7a4e794d4cf597e -->
<g id="edge6" class="edge">
<title>dir_3f77d910b8992c2715464d60b82eb4e5&#45;&gt;dir_36505a9bfb81f81ed7a4e794d4cf597e</title>
<path fill="none" stroke="black" d="M154,-87.7C154,-79.98 154,-70.71 154,-62.11"/>
<polygon fill="black" stroke="black" points="157.5,-62.1 154,-52.1 150.5,-62.1 157.5,-62.1"/>
<g id="a_edge6&#45;headlabel"><a xlink:href="dir_000012_000027.html" target="_top" xlink:title="1">
<text text-anchor="middle" x="160.34" y="-63.2" font-family="Helvetica,sans-Serif" font-size="10.00">1</text>
</a>
</g>
</g>
<!-- dir_3f77d910b8992c2715464d60b82eb4e5&#45;&gt;dir_f5e28093cb075fb92f2345f7d8607df6 -->
<g id="edge7" class="edge">
<title>dir_3f77d910b8992c2715464d60b82eb4e5&#45;&gt;dir_f5e28093cb075fb92f2345f7d8607df6</title>
<path fill="none" stroke="black" d="M176,-87.7C187.21,-78.88 201,-68.03 213.15,-58.47"/>
<polygon fill="black" stroke="black" points="215.56,-61.04 221.25,-52.1 211.23,-55.54 215.56,-61.04"/>
<g id="a_edge7&#45;headlabel"><a xlink:href="dir_000012_000011.html" target="_top" xlink:title="2">
<text text-anchor="middle" x="214.49" y="-62.99" font-family="Helvetica,sans-Serif" font-size="10.00">2</text>
</a>
</g>
</g>
<!-- dir_afe0d1ab0c4a41ee8553ea61e92b67bf -->
<g id="node8" class="node">
<title>dir_afe0d1ab0c4a41ee8553ea61e92b67bf</title>
<g id="a_node8"><a xlink:href="dir_afe0d1ab0c4a41ee8553ea61e92b67bf.html" target="_top" xlink:title="utils">
<polygon fill="#dfe5f1" stroke="#404040" points="342,-124 288,-124 288,-88 342,-88 342,-124"/>
<text text-anchor="middle" x="315" y="-103.5" font-family="Helvetica,sans-Serif" font-size="10.00">utils</text>
</a>
</g>
</g>
<!-- dir_afe0d1ab0c4a41ee8553ea61e92b67bf&#45;&gt;dir_f5e28093cb075fb92f2345f7d8607df6 -->
<g id="edge8" class="edge">
<title>dir_afe0d1ab0c4a41ee8553ea61e92b67bf&#45;&gt;dir_f5e28093cb075fb92f2345f7d8607df6</title>
<path fill="none" stroke="black" d="M297.2,-87.7C288.4,-79.14 277.62,-68.66 268,-59.3"/>
<polygon fill="black" stroke="black" points="270.2,-56.57 260.59,-52.1 265.32,-61.58 270.2,-56.57"/>
<g id="a_edge8&#45;headlabel"><a xlink:href="dir_000026_000011.html" target="_top" xlink:title="1">
<text text-anchor="middle" x="274.76" y="-54.54" font-family="Helvetica,sans-Serif" font-size="10.00">1</text>
</a>
</g>
</g>
</g>
</svg>
