<?xml version="1.0" encoding="UTF-8" standalone="no"?>
<!DOCTYPE svg PUBLIC "-//W3C//DTD SVG 1.1//EN"
 "http://www.w3.org/Graphics/SVG/1.1/DTD/svg11.dtd">
<!-- Generated by graphviz version 2.43.0 (0)
 -->
<!-- Title: assembler Pages: 1 -->
<svg width="108pt" height="167pt"
 viewBox="0.00 0.00 108.00 167.00" xmlns="http://www.w3.org/2000/svg" xmlns:xlink="http://www.w3.org/1999/xlink">
<g id="graph0" class="graph" transform="scale(1 1) rotate(0) translate(4 163)">
<title>assembler</title>
<polygon fill="white" stroke="transparent" points="-4,4 -4,-163 104,-163 104,4 -4,4"/>
<g id="clust1" class="cluster">
<title>clusterdir_5bec9ec6c6b8ab3f2f9d60d2ff21ed81</title>
<g id="a_clust1"><a xlink:href="dir_5bec9ec6c6b8ab3f2f9d60d2ff21ed81.html" target="_top" xlink:title="ikarus">
<polygon fill="#edf0f7" stroke="#404040" stroke-dasharray="5,2" points="8,-8 8,-151 92,-151 92,-8 8,-8"/>
<text text-anchor="middle" x="50" y="-139" font-family="Helvetica,sans-Serif" font-size="10.00">ikarus</text>
</a>
</g>
</g>
<!-- dir_36505a9bfb81f81ed7a4e794d4cf597e -->
<g id="node1" class="node">
<title>dir_36505a9bfb81f81ed7a4e794d4cf597e</title>
<g id="a_node1"><a xlink:href="dir_36505a9bfb81f81ed7a4e794d4cf597e.html" target="_top" xlink:title="utils">
<polygon fill="#dfe5f1" stroke="red" points="77,-52 23,-52 23,-16 77,-16 77,-52"/>
<text text-anchor="middle" x="50" y="-31.5" font-family="Helvetica,sans-Serif" font-size="10.00">utils</text>
</a>
</g>
</g>
<!-- dir_b4e169eb0efbd955079f9a2ee34b7226 -->
<g id="node2" class="node">
<title>dir_b4e169eb0efbd955079f9a2ee34b7226</title>
<g id="a_node2"><a xlink:href="dir_b4e169eb0efbd955079f9a2ee34b7226.html" target="_top" xlink:title="assembler">
<polygon fill="#edf0f7" stroke="#404040" stroke-width="2" points="84,-124 16,-124 16,-88 84,-88 84,-124"/>
<text text-anchor="middle" x="50" y="-103.5" font-family="Helvetica,sans-Serif" font-size="10.00">assembler</text>
</a>
</g>
</g>
<!-- dir_b4e169eb0efbd955079f9a2ee34b7226&#45;&gt;dir_36505a9bfb81f81ed7a4e794d4cf597e -->
<g id="edge1" class="edge">
<title>dir_b4e169eb0efbd955079f9a2ee34b7226&#45;&gt;dir_36505a9bfb81f81ed7a4e794d4cf597e</title>
<path fill="none" stroke="black" d="M50,-87.7C50,-79.98 50,-70.71 50,-62.11"/>
<polygon fill="black" stroke="black" points="53.5,-62.1 50,-52.1 46.5,-62.1 53.5,-62.1"/>
<g id="a_edge1&#45;headlabel"><a xlink:href="dir_000000_000029.html" target="_top" xlink:title="1">
<text text-anchor="middle" x="56.34" y="-63.2" font-family="Helvetica,sans-Serif" font-size="10.00">1</text>
</a>
</g>
</g>
</g>
</svg>
